<?xml version="1.0" standalone="no"?>
<!DOCTYPE svg PUBLIC "-//W3C//DTD SVG 1.1//EN" "http://www.w3.org/Graphics/SVG/1.1/DTD/svg11.dtd" >
<svg xmlns="http://www.w3.org/2000/svg" xmlns:xlink="http://www.w3.org/1999/xlink" version="1.1">
<metadata>
Created by FontForge 20170731 at Tue Dec 30 12:01:42 2014
 By Aleksey,,,
Typeface (c) Galdino Otten. 2013. All Rights Reserved
</metadata>
<defs>
<font id="SimplyRounded" horiz-adv-x="1024" >
  <font-face 
    font-family="Simply Rounded"
    font-weight="400"
    font-stretch="normal"
    units-per-em="2048"
    panose-1="2 0 5 0 0 0 0 0 0 0"
    ascent="1638"
    descent="-410"
    x-height="953"
    cap-height="1360"
    bbox="-317.256 -436 2327.35 1743"
    underline-thickness="150"
    underline-position="-442"
    unicode-range="U+0020-F002"
  />
<missing-glyph horiz-adv-x="1363" 
d="M661 571l32 228h-197l-34 -228h199zM237 385h-86q-38 0 -65 27t-27 65v2q0 38 27 65t65 27h118l35 228h-90q-38 0 -65 27t-27 65v2q0 38 27 65t65 27h120l44 272q5 34 31 57q27 22 61 22h2q43 0 71 -33q28 -32 21 -75l-37 -243h199l42 272q5 34 31 56q27 23 61 23h4
q43 0 71 -33q28 -32 21 -75l-37 -243h321q38 0 65 -27t27 -65v-2q0 -38 -27 -65t-65 -27h-354l-32 -228h325q38 0 65 -27t27 -65v-2q0 -38 -27 -65t-65 -27h-360l-42 -280q-5 -35 -32 -58t-62 -23h-2q-44 0 -72 33q-29 34 -22 77l39 251h-197l-42 -280q-5 -35 -32 -58
q-26 -23 -62 -23h-2q-43 0 -72 33q-28 34 -22 77z" />
    <glyph glyph-name=".notdef" horiz-adv-x="1363" 
d="M661 571l32 228h-197l-34 -228h199zM237 385h-86q-38 0 -65 27t-27 65v2q0 38 27 65t65 27h118l35 228h-90q-38 0 -65 27t-27 65v2q0 38 27 65t65 27h120l44 272q5 34 31 57q27 22 61 22h2q43 0 71 -33q28 -32 21 -75l-37 -243h199l42 272q5 34 31 56q27 23 61 23h4
q43 0 71 -33q28 -32 21 -75l-37 -243h321q38 0 65 -27t27 -65v-2q0 -38 -27 -65t-65 -27h-354l-32 -228h325q38 0 65 -27t27 -65v-2q0 -38 -27 -65t-65 -27h-360l-42 -280q-5 -35 -32 -58t-62 -23h-2q-44 0 -72 33q-29 34 -22 77l39 251h-197l-42 -280q-5 -35 -32 -58
q-26 -23 -62 -23h-2q-43 0 -72 33q-28 34 -22 77z" />
    <glyph glyph-name=".null" horiz-adv-x="0" 
 />
    <glyph glyph-name="nonmarkingreturn" horiz-adv-x="508" 
 />
    <glyph glyph-name="space" unicode=" " horiz-adv-x="508" 
 />
    <glyph glyph-name="space" unicode="&#xa0;" horiz-adv-x="508" 
 />
    <glyph glyph-name="exclam" unicode="!" horiz-adv-x="702" 
d="M512 1273q3 56 -35 96t-94 40h-70q-56 0 -94 -40t-35 -96l34 -656q3 -52 40 -87t89 -35h2q52 0 89 35t40 87zM479 48q-54 -55 -132 -55q-77 0 -131 55q-55 54 -55 132q0 77 55 131q54 55 131 55q78 0 132 -55q55 -54 55 -131q0 -78 -55 -132z" />
    <glyph glyph-name="quotedbl" unicode="&#x22;" horiz-adv-x="713" 
d="M634 958q-3 -30 -25 -49q-21 -20 -50 -20h-55q-30 0 -51 20q-22 19 -25 49l-30 334q-5 58 34 101t98 43h3q58 0 97 -43t34 -101zM288 958q-3 -30 -24 -49q-22 -20 -51 -20h-55q-29 0 -51 20q-22 19 -24 49l-31 334q-5 58 34 101q40 43 98 43h3q58 0 97 -43
q40 -43 34 -101z" />
    <glyph glyph-name="numbersign" unicode="#" horiz-adv-x="1143" 
d="M667 540l32 228h-197l-34 -228h199zM243 354h-86q-38 0 -65 27t-27 65v2q0 38 27 65t65 27h118l35 228h-90q-38 0 -65 27t-27 65v1q0 39 27 65q27 27 65 27h120l44 273q5 34 31 56q27 23 61 23h2q43 0 71 -33t21 -75l-37 -244h199l42 272q5 34 31 57q27 23 61 23h4
q43 0 71 -33t21 -75l-37 -244h81q38 0 65 -27q27 -26 27 -65v-1q0 -38 -27 -65t-65 -27h-114l-32 -228h85q38 0 65 -27t27 -65v-2q0 -38 -27 -65t-65 -27h-120l-42 -280q-5 -35 -32 -58t-62 -23h-2q-44 0 -72 33q-29 33 -22 76l39 252h-197l-42 -280q-5 -35 -32 -58
q-26 -23 -62 -23h-2q-43 0 -72 33q-28 33 -22 76z" />
    <glyph glyph-name="dollar" unicode="$" horiz-adv-x="1057" 
d="M583 543q101 -44 108 -122q8 -100 -108 -140v262zM473 1142v-241q-103 43 -109 114q-8 91 109 127zM909 707q-93 92 -283 144q-19 6 -43 13v292q58 0 127 -13q53 -10 97 21q44 30 54 82l1 3q10 54 -22 99q-31 45 -86 54q-99 16 -171 18v154q0 23 -16 39q-16 15 -38 15h-1
q-23 0 -39 -15q-16 -16 -16 -39v-162q-210 -30 -328 -153q-119 -122 -105 -297q23 -273 413 -377q3 -1 20 -6v-316q-76 -2 -194 24q-56 12 -103 -20q-48 -32 -57 -89l-1 -3q-8 -53 22 -98q31 -44 84 -55q149 -30 249 -26v-148q0 -22 16 -38t39 -16h1q22 0 38 16t16 38v160
q237 39 349 180q96 121 83 282q-12 145 -106 237z" />
    <glyph glyph-name="percent" unicode="%" horiz-adv-x="1944" 
d="M1361 200q39 -66 107 -66q139 0 139 236t-141 236q-70 0 -107 -69q-34 -63 -34 -167q-1 -105 36 -170zM1733 73q-109 -107 -271 -107q-164 0 -270 106q-111 110 -111 290q0 178 106 293q110 118 288 118q176 0 278 -110q98 -107 98 -279q0 -195 -118 -311zM1252 1280
q21 36 64 36h1q44 0 65 -38q22 -37 -1 -75l-718 -1205q-22 -36 -64 -36h-4q-44 0 -65 38t1 75zM346 743q39 -67 109 -67q138 0 138 239q0 236 -143 236q-69 0 -106 -69q-34 -63 -34 -169q-2 -106 36 -170zM719 616q-109 -107 -271 -107q-165 0 -272 106q-111 110 -111 292
q0 178 107 293q110 118 289 118q176 0 279 -111q98 -106 98 -278q0 -197 -119 -313z" />
    <glyph glyph-name="ampersand" unicode="&#x26;" horiz-adv-x="1342" 
d="M397 269q-57 52 -57 130q0 94 99 162q211 -219 242 -248q18 -15 14 -39t-25 -34q-55 -25 -117 -25q-97 0 -156 54zM617 1208q57 0 90 -43q30 -39 30 -92q0 -91 -115 -175q-37 -27 -66 8q-67 80 -67 163q0 57 32 96q35 43 92 43h4zM1026 543q-19 -27 -53 -30
q-33 -3 -57 22q-30 31 -87 93q-65 69 -91 96l2 8q288 133 288 349q0 145 -112 233q-110 86 -282 86q-207 0 -331 -115q-110 -103 -110 -244q0 -145 112 -265v-6q-277 -137 -277 -391q0 -158 122 -265q139 -121 387 -121q235 0 400 119h1q21 -22 44 -46q50 -50 121 -50h4
q86 0 120 78q35 79 -24 142q-21 23 -45 49q46 44 98 123q27 41 17 90q-10 47 -47 77q-39 32 -88 28q-57 -5 -111 -58z" />
    <glyph glyph-name="quotesingle" unicode="'" horiz-adv-x="466" 
d="M343 958q-3 -30 -24 -49q-22 -20 -51 -20h-55q-29 0 -51 20q-22 19 -24 49l-31 334q-5 58 34 101q40 43 98 43h3q58 0 97 -43q40 -43 34 -101z" />
    <glyph glyph-name="parenleft" unicode="(" horiz-adv-x="825" 
d="M514 1573q62 0 96 -55t7 -113q-154 -340 -154 -778q0 -429 156 -773q26 -58 -8 -113q-34 -54 -96 -54h-4q-61 0 -95 52q-240 379 -240 888q3 518 240 893q34 53 95 53h3z" />
    <glyph glyph-name="parenright" unicode=")" horiz-adv-x="743" 
d="M295 1573q61 0 95 -53q237 -375 240 -893q0 -509 -240 -888q-34 -52 -95 -52h-4q-62 0 -96 54q-34 55 -8 113q156 344 156 773q0 438 -155 778q-26 58 8 113t96 55h3z" />
    <glyph glyph-name="asterisk" unicode="*" horiz-adv-x="1067" 
d="M626 1293q-16 -10 -12 -28q3 -18 22 -21l179 -31q37 -6 56 -37q19 -32 7 -67l-1 -2q-11 -35 -45 -49t-67 3l-164 83q-16 9 -30 -4q-14 -12 -7 -30l66 -173q14 -36 -4 -70q-19 -34 -57 -42h-2q-36 -8 -66 15t-32 60l-14 189q-1 18 -19 24q-17 6 -29 -8l-125 -146
q-24 -28 -61 -27q-36 0 -60 28l-1 2q-23 27 -17 63t36 55l159 101q16 10 13 28q-4 19 -22 22l-173 31q-36 6 -55 38t-7 67v1q12 36 46 50t67 -3l155 -79q16 -8 30 5q14 12 7 29l-64 173q-13 35 5 68q18 34 55 41l2 1q37 7 67 -15q29 -23 31 -61l10 -185q1 -18 19 -24
q17 -6 29 8l124 144q24 28 61 28q37 1 62 -27l1 -1q25 -28 20 -66t-37 -59z" />
    <glyph glyph-name="plus" unicode="+" horiz-adv-x="1706" 
d="M956 720h359q39 0 66 -27t27 -66v-2q0 -38 -27 -65q-27 -28 -66 -28h-359v-341q0 -43 -31 -74t-74 -31h-2q-44 0 -75 31q-30 31 -30 74v341h-360q-39 0 -66 28q-27 27 -27 65v2q0 39 27 66t66 27h360v335q0 43 30 74q31 31 75 31h2q43 0 74 -31t31 -74v-335z" />
    <glyph glyph-name="comma" unicode="," horiz-adv-x="639" 
d="M433 311q-54 55 -131 55q-76 0 -131 -55q-54 -54 -54 -131q0 -63 39 -114q39 -49 99 -65q-10 -11 -20 -17l-2 -1q-5 -6 -34 -19q-48 -21 -44 -65q4 -39 28 -47q102 -30 203 80q102 110 102 248q0 77 -55 131z" />
    <glyph glyph-name="hyphen" unicode="-" horiz-adv-x="934" 
d="M775 534q0 -44 -34 -75q-33 -31 -81 -31h-420q-48 0 -82 31t-34 75v2q0 44 34 75t82 31h420q48 0 81 -31q34 -31 34 -75v-2z" />
    <glyph glyph-name="hyphen" unicode="&#xad;" horiz-adv-x="934" 
d="M775 534q0 -44 -34 -75q-33 -31 -81 -31h-420q-48 0 -82 31t-34 75v2q0 44 34 75t82 31h420q48 0 81 -31q34 -31 34 -75v-2z" />
    <glyph glyph-name="period" unicode="." horiz-adv-x="639" 
d="M474 60q-54 -55 -131 -55q-76 0 -131 55q-54 54 -54 131q0 76 54 131q55 54 131 54q77 0 131 -54q55 -55 55 -131q0 -77 -55 -131z" />
    <glyph glyph-name="slash" unicode="/" horiz-adv-x="625" 
d="M430 1437q23 72 98 72h2q53 0 84 -42q31 -43 15 -93l-443 -1359q-23 -72 -99 -72h-2q-52 0 -83 42t-15 92z" />
    <glyph glyph-name="zero" unicode="0" horiz-adv-x="1394" 
d="M481 378q-86 140 -86 338t86 338q87 140 209 140t208 -140t86 -338t-86 -338t-208 -140t-209 140zM690 1435q-13 0 -39 -3q-246 -29 -397 -216q-160 -199 -160 -519q0 -295 141 -482q148 -198 416 -216q17 -2 25 -2h7h7h6h7q9 0 25 2q268 18 417 216q140 187 140 482
q0 320 -160 519q-151 187 -397 216q-25 3 -38 3z" />
    <glyph glyph-name="one" unicode="1" horiz-adv-x="1104" 
d="M501 1304q-49 0 -88 -43q2 2 0 0v0q-65 -69 -166 -111q-46 -19 -66 -64q-19 -46 1 -92l1 -2q19 -43 62 -61q44 -19 87 -1q52 20 102 49v-829q0 -65 46 -111q47 -46 112 -46h3q65 0 111 46q47 46 47 111v1043q0 46 -33 79q-33 32 -79 32h-140z" />
    <glyph glyph-name="two" unicode="2" horiz-adv-x="1292" 
d="M1054 774q36 82 36 172q0 160 -128 268q-127 106 -347 106q-181 0 -324 -99q-44 -31 -47 -84q-3 -54 38 -88l2 -2q31 -26 71 -25t71 27q56 48 133 54q84 7 150 -38q16 -9 28 -19q24 -22 35 -55q13 -27 15 -56q6 -70 -44 -127q-8 -13 -15 -23q-23 -29 -505 -620
q-42 -52 -13 -112q28 -60 95 -60h657q53 0 91 37q37 38 37 91v2q0 53 -37 91q-38 37 -91 37h-329q40 51 307 354q78 88 114 169z" />
    <glyph glyph-name="three" unicode="3" horiz-adv-x="1274" 
d="M1027 1077q-15 131 -154 215q-138 85 -336 85q-50 0 -100 -6q-54 -6 -108 -21q-68 -18 -68 -90v-2q0 -47 37 -74q37 -28 82 -16q26 6 52 9q21 2 43 2q93 0 160 -42t75 -104q8 -71 -60 -130q-33 -28 -140 -57q-78 -22 -78 -103v-2q0 -39 24 -69q25 -29 64 -36
q72 -13 94 -25q56 -29 83 -83t16 -113l-2 -10q-17 -89 -105 -136q-90 -49 -205 -27l-9 1q-52 7 -92 -27q-39 -35 -39 -87v-2q0 -41 25 -73q26 -31 66 -40q10 -2 21 -5q85 -16 170 -16q210 0 361 93q151 94 179 241q23 117 -41 234t-197 204q204 133 182 312z" />
    <glyph glyph-name="four" unicode="4" horiz-adv-x="1379" 
d="M733 544h-299v8l299 478v-486zM1045 544l-1 611q0 62 -44 106q-44 43 -105 43h-155q-76 0 -121 -62l-501 -695q-27 -38 -27 -85v-2q0 -60 43 -103q42 -43 103 -43h496v-167q0 -64 45 -109t109 -45h3q64 0 109 45t45 108l1 168h110q60 0 94 49q33 48 13 104l-1 2
q-27 75 -107 75h-109z" />
    <glyph glyph-name="five" unicode="5" horiz-adv-x="1202" 
d="M485 1083h448q93 0 121 88l1 3q20 62 -18 115q-38 52 -103 52h-687l-53 -569q-3 -45 -1 -58q10 -53 65 -64q18 -4 131 0q107 3 160 -12q71 -20 114 -74q40 -52 40 -116v-11q0 -97 -89 -166q-90 -69 -217 -69q-75 -7 -151 9q-45 9 -81 -21q-36 -29 -36 -76v-2
q0 -35 22 -62t56 -35q101 -22 207 -22q275 0 470 129q194 128 194 309q0 435 -611 436z" />
    <glyph glyph-name="six" unicode="6" horiz-adv-x="1467" 
d="M939 308q-67 -62 -173 -62q-143 0 -223 81q-67 69 -73 173q0 50 19 73q69 110 248 110q137 0 210 -70q60 -59 60 -145q0 -98 -68 -160zM876 917h-17l-8 -1l-9 1h-17q-182 0 -337 -107q51 150 161 244q110 96 234 96q26 0 50 -5q54 -10 98 19q45 30 54 83l1 2
q10 53 -21 97t-83 52q-14 3 -24 4q-29 3 -45 3q-18 0 -45 -3q-296 -29 -495 -226q-199 -198 -238 -499q-34 -270 83 -449q116 -180 357 -228q66 -17 134 -17h3h8h15h15h10q67 0 136 16l11 2q14 3 21 4l7 2l1 3q157 50 265 171q108 120 126 268q24 183 -95 318
q-133 150 -356 150z" />
    <glyph glyph-name="seven" unicode="7" horiz-adv-x="1264" 
d="M700 1047v-8l-465 -808q-46 -79 0 -158q45 -80 137 -80h4q91 0 137 79l594 1020q20 33 20 71v2q0 58 -42 99q-41 41 -99 41h-742q-66 0 -104 -53q-38 -52 -18 -114l1 -3q29 -88 121 -88h456z" />
    <glyph glyph-name="eight" unicode="8" horiz-adv-x="1245" 
d="M579 831q-88 14 -141 81q-53 66 -40 146l1 4q11 69 73 108q62 40 138 27l12 -2q97 -16 155 -89t43 -160q-10 -63 -66 -99t-126 -24zM828 424q0 -77 -54 -131q-54 -55 -131 -55h-13q-98 0 -167 70q-70 69 -70 167q0 70 50 120q50 49 120 49h50q89 0 152 -63t63 -152v-5z
M884 764q112 41 174 118q62 76 62 175q0 158 -135 262q-135 103 -380 103q-247 0 -381 -103q-134 -104 -134 -262q0 -93 58 -171q58 -77 186 -122q-149 -52 -218 -148t-69 -211q0 -209 184 -329q155 -101 389 -101q252 0 403 123q152 122 152 318q0 119 -74 210
q-75 91 -217 138z" />
    <glyph glyph-name="nine" unicode="9" horiz-adv-x="1467" 
d="M519 1080q67 61 174 61q143 0 222 -81q67 -68 74 -172q0 -50 -19 -74q-69 -110 -248 -110q-138 0 -210 71q-60 59 -60 145q0 98 67 160zM582 470q6 0 17 1l9 1l9 -1q10 -1 17 -1q182 0 336 107q-50 -149 -160 -244q-111 -95 -235 -95q-25 0 -50 5q-53 9 -97 -20
q-45 -29 -55 -82v-3q-10 -52 20 -96q31 -44 84 -53q14 -2 24 -3q29 -3 44 -3q19 0 46 3q295 29 495 226q199 198 237 499q35 270 -82 449q-117 180 -357 228q-67 17 -134 17h-4h-7h-16h-14h-11q-66 0 -135 -17l-12 -2q-14 -2 -20 -4l-8 -1v-4q-157 -49 -265 -170t-127 -268
q-23 -183 96 -318q132 -151 355 -151z" />
    <glyph glyph-name="colon" unicode=":" horiz-adv-x="702" 
d="M492 675q-54 -54 -131 -54q-76 0 -131 54q-54 55 -54 132q0 76 54 131q55 54 131 54q77 0 131 -54q55 -55 55 -131q0 -77 -55 -132zM495 60q-54 -55 -131 -55t-131 55q-55 54 -55 131q0 76 55 131q54 54 131 54t131 -54q54 -55 54 -131q0 -77 -54 -131z" />
    <glyph glyph-name="semicolon" unicode=";" horiz-adv-x="706" 
d="M493 675q-55 -54 -132 -54q-76 0 -131 54q-54 55 -54 132q0 76 54 131q55 54 131 54q77 0 132 -54q54 -55 54 -131q0 -77 -54 -132zM484 326q-54 55 -131 55q-76 0 -131 -55q-54 -54 -54 -131q0 -63 39 -114q39 -49 99 -65q-10 -11 -20 -17l-2 -1q-5 -6 -34 -19
q-48 -21 -44 -65q4 -39 28 -47q102 -30 203 80q102 110 102 248q0 77 -55 131z" />
    <glyph glyph-name="semicolon" unicode="&#x37e;" horiz-adv-x="706" 
d="M493 675q-55 -54 -132 -54q-76 0 -131 54q-54 55 -54 132q0 76 54 131q55 54 131 54q77 0 132 -54q54 -55 54 -131q0 -77 -54 -132zM484 326q-54 55 -131 55q-76 0 -131 -55q-54 -54 -54 -131q0 -63 39 -114q39 -49 99 -65q-10 -11 -20 -17l-2 -1q-5 -6 -34 -19
q-48 -21 -44 -65q4 -39 28 -47q102 -30 203 80q102 110 102 248q0 77 -55 131z" />
    <glyph glyph-name="less" unicode="&#x3c;" horiz-adv-x="1706" 
d="M1363 1161q-36 37 -88 37q-25 0 -49 -11l-828 -357q-96 -42 -96 -148q0 -104 96 -146l828 -357q23 -11 49 -11q52 0 88 37q37 37 37 90q0 84 -78 116l-669 272l669 272q78 32 78 118q0 52 -37 88z" />
    <glyph glyph-name="equal" unicode="=" horiz-adv-x="1706" 
d="M375 957q-50 0 -86 -36q-35 -36 -35 -87q0 -50 35 -86q36 -35 86 -35h931q51 0 86 36t35 87q0 50 -35 85q-36 36 -86 36h-931zM375 539q-50 0 -86 -36q-35 -35 -35 -87q0 -50 35 -85q36 -36 86 -36h931q51 0 86 36t35 87q0 50 -35 86q-36 35 -86 35h-931z" />
    <glyph glyph-name="greater" unicode="&#x3e;" horiz-adv-x="1706" 
d="M302 1073q0 -86 78 -118l669 -272l-669 -272q-78 -32 -78 -116q0 -53 37 -90q36 -37 87 -37q26 0 50 11l828 357q96 42 96 146q0 106 -96 148l-828 357q-24 11 -50 11q-51 0 -87 -37q-37 -36 -37 -88z" />
    <glyph glyph-name="question" unicode="?" horiz-adv-x="1239" 
d="M382 321q54 51 139 51q87 0 140 -51q53 -50 55 -132q0 -80 -53 -132q-54 -52 -142 -52q-86 0 -140 52q-53 52 -53 132q0 81 54 132zM521 469q-65 0 -107 51q-42 50 -30 115q26 130 126 201q126 90 126 212q0 118 -159 121q-76 0 -171 -23q-44 -11 -83 11q-39 21 -53 64
l-1 2q-16 47 8 91q23 44 72 57q153 41 302 41q204 0 316 -95q102 -86 102 -220q0 -113 -53 -208q-52 -92 -133 -131q-106 -51 -121 -166q-6 -53 -46 -88q-39 -35 -92 -35h-3z" />
    <glyph glyph-name="at" unicode="@" horiz-adv-x="1593" 
d="M842 519q-32 -14 -68 -14q-47 0 -78 29q-31 30 -31 95q0 51 24 118q14 37 55 79q56 57 115 57q43 0 85 -33q7 -5 17 -12q13 -8 13 -32q0 -87 -25 -160q-26 -72 -58 -93q-8 -5 -22 -16q-18 -14 -27 -18zM1164 199q-120 -46 -288 -46q-175 0 -310 55q-133 56 -207 175
q-74 120 -74 267q0 152 67 293q66 139 197 216q132 77 322 77q222 0 345 -115q123 -114 123 -283q0 -95 -44 -184q-82 -167 -157 -167q-5 0 -9 4t-4 14q3 41 55 410q6 41 -22 73q-20 23 -51 29q-30 6 -56 -9q-16 -8 -26 -22q-63 78 -180 78q-179 0 -293 -161
q-93 -131 -93 -289q0 -131 79 -210q80 -79 199 -79q101 0 181 65q13 -28 37 -44q50 -31 109 -31q155 0 316 177q116 127 116 338q0 157 -76 289q-76 133 -220 205q-143 71 -327 71q-215 0 -383 -88q-169 -89 -266 -266q-97 -176 -97 -381q0 -186 85 -345q86 -159 262 -241
q174 -81 413 -81q247 0 420 96q27 15 52 33q29 20 34 55q5 33 -17 61q-19 24 -51 29t-56 -12q-47 -33 -105 -56z" />
    <glyph glyph-name="A" unicode="A" horiz-adv-x="1310" 
d="M521 577q91 300 129 482h6q52 -229 132 -480l1 -2h-268zM898 1180q-29 80 -99 129q-69 49 -155 49h-3q-87 0 -157 -51q-70 -50 -98 -131l-332 -965q-27 -79 21 -146q48 -68 131 -68h17q53 0 96 32q43 31 58 82l61 198h436l65 -200q16 -50 58 -81q43 -31 95 -31h4
q83 0 132 69q48 69 19 147z" />
    <glyph glyph-name="B" unicode="B" horiz-adv-x="1216" 
d="M440 235q-18 0 -30 12q-13 12 -13 28v263q0 17 13 29q14 12 32 12h68q132 0 210 -40q86 -44 86 -129q0 -90 -84 -136q-75 -40 -197 -40q-61 0 -85 1zM397 1058q0 37 39 40t92 3q218 0 218 -140q0 -68 -63 -108q-65 -41 -185 -41h-59q-17 0 -30 12q-12 12 -12 29v205z
M904 732q-1 14 12 20q187 88 187 259q0 177 -173 260q-142 75 -433 75q-56 0 -148 3q-105 2 -136 3q-59 1 -101 -40q-42 -40 -42 -98v-1083q0 -60 44 -100q45 -41 105 -38q137 7 208 7q408 0 574 120q152 111 152 282q0 222 -235 311q-13 5 -14 19z" />
    <glyph glyph-name="C" unicode="C" horiz-adv-x="1232" 
d="M1066 232q-45 14 -92 -7q-74 -34 -154 -34q-171 0 -292 137q-121 136 -121 329t121 330t292 137q81 0 156 -35q44 -20 88 -7l4 1q85 26 86 116t-84 116q-96 30 -202 40q-32 3 -48 3t-49 -3q-308 -28 -498 -211q-201 -194 -201 -505q0 -288 176 -470q187 -193 523 -210
q21 -2 32 -2h9h8h8h8q11 0 32 2q106 5 198 29t93 120q2 96 -89 123z" />
    <glyph glyph-name="D" unicode="D" horiz-adv-x="1423" 
d="M523 203q-44 0 -76 31q-31 31 -31 75v716q0 44 31 75q32 31 76 31h1q209 0 357 -136t148 -328t-148 -328t-357 -136h-1zM186 1341q-42 -3 -70 -34q-29 -30 -29 -71v-1141q0 -43 29 -73q30 -30 73 -32q273 -13 342 -13q392 0 612 192q206 182 206 479q0 332 -249 526
q-235 183 -604 183q-73 0 -310 -16z" />
    <glyph glyph-name="E" unicode="E" horiz-adv-x="1036" 
d="M386 245v407h399q51 0 87 36q37 37 37 88v3q0 51 -37 87q-36 36 -87 36h-399v199h423q44 0 78 27t43 70l1 4q13 58 -24 105q-37 46 -97 46h-557q-81 0 -139 -57q-57 -58 -57 -139v-968q0 -81 57 -139q58 -57 139 -57h588q51 0 87 36q37 36 37 88v4q0 52 -37 88
q-36 36 -87 36h-455z" />
    <glyph glyph-name="F" unicode="F" horiz-adv-x="1031" 
d="M412 652h427q51 0 87 36q37 36 37 88v2q0 51 -37 88q-36 36 -87 36h-427v198h423q44 0 78 28q34 27 43 69l1 5q13 58 -24 104q-37 47 -97 47h-549q-84 0 -144 -60t-60 -145v-992q0 -68 48 -116q47 -47 115 -47h3q68 0 115 47q48 48 48 116v496z" />
    <glyph glyph-name="G" unicode="G" horiz-adv-x="1387" 
d="M882 750q-60 0 -97 -48t-21 -106v-2q15 -55 71 -55h92q32 0 54 -22q23 -22 23 -54v-158q0 -47 -34 -81q-33 -34 -81 -34h-45q-179 0 -322 126q-143 127 -158 303q-19 208 122 361q140 152 347 152h165q100 0 135 90l1 3q17 45 -9 86t-74 44q-106 8 -192 8
q-345 0 -564 -187q-233 -197 -233 -534q0 -302 193 -486q205 -196 571 -196q133 0 250 23q37 6 74 13q75 15 123 74q49 59 49 136v411q0 55 -39 94t-94 39h-307z" />
    <glyph glyph-name="H" unicode="H" horiz-adv-x="1253" 
d="M399 950h460v247q0 68 47 115q48 48 116 48h3q67 0 115 -48q48 -47 48 -115v-1034q0 -68 -48 -115q-48 -48 -115 -48h-3q-68 0 -116 48q-47 47 -47 115v518h-460v-518q0 -68 -48 -115q-47 -48 -115 -48h-3q-68 0 -115 48q-48 47 -48 115v1034q0 68 48 115q47 48 115 48h3
q68 0 115 -48q48 -47 48 -115v-247z" />
    <glyph glyph-name="I" unicode="I" horiz-adv-x="459" 
d="M398 163q0 -68 -48 -115q-47 -48 -115 -48h-3q-68 0 -115 48q-48 47 -48 115v1034q0 68 48 115q47 48 115 48h3q68 0 115 -48q48 -47 48 -115v-1034z" />
    <glyph glyph-name="J" unicode="J" horiz-adv-x="742" 
d="M273 1356q-54 0 -87 -43q-34 -43 -20 -95v-3q9 -37 39 -60q31 -24 69 -24h65v-650q0 -169 -94 -215q-40 -19 -83 -20q-48 0 -81 -35q-34 -34 -34 -83v-2q0 -77 71 -109q30 -13 50 -17q230 -47 363 122q117 146 118 380v702q0 63 -44 107q-45 45 -107 45h-225z" />
    <glyph glyph-name="K" unicode="K" horiz-adv-x="1175" 
d="M988 -7q82 0 120 71q39 72 -5 140l-305 469q-72 110 0 220l157 238q45 68 6 140q-38 71 -119 71h-4q-73 0 -113 -61l-259 -345q-11 -14 -28 -9q-17 6 -17 24v239q0 68 -48 115q-47 48 -115 48h-3q-68 0 -115 -48q-48 -47 -48 -115v-1034q0 -68 48 -115q47 -48 115 -48h3
q68 0 115 48q48 47 48 115v332l1 1q31 36 78 34t74 -41l297 -427q40 -62 114 -62h3z" />
    <glyph glyph-name="L" unicode="L" horiz-adv-x="1005" 
d="M224 1360q68 0 115 -48q48 -47 48 -115v-939h453q53 0 90 -37q37 -38 37 -91v-2q0 -53 -37 -91q-37 -37 -90 -37h-630q-63 0 -108 44q-44 45 -44 108v1045q0 68 48 115q47 48 115 48h3z" />
    <glyph glyph-name="M" unicode="M" horiz-adv-x="1682" 
d="M385 997l238 -829q21 -75 83 -121q62 -47 139 -47h4q77 0 139 47q62 46 83 121l239 829v-852q0 -60 42 -102q43 -43 103 -43h3q60 0 102 43q43 42 43 102v948q0 111 -78 189t-189 78h-5q-90 0 -161 -54t-96 -140l-225 -791l-229 792q-24 86 -96 139q-71 54 -160 54h-5
q-111 0 -189 -78t-78 -189v-948q0 -60 43 -102q42 -43 102 -43h3q60 0 103 43q42 42 42 102v852z" />
    <glyph glyph-name="N" unicode="N" horiz-adv-x="1449" 
d="M421 907l487 -792q75 -122 217 -122h5q105 0 180 75t75 181v943q0 67 -47 114t-114 47h-3q-66 0 -114 -47q-47 -47 -47 -114v-747l-576 838q-48 70 -133 70h-94q-67 0 -114 -47t-47 -114v-1038q0 -67 47 -114t114 -47h3q67 0 114 47t47 114v753z" />
    <glyph glyph-name="O" unicode="O" horiz-adv-x="1584" 
d="M511 359q-113 131 -113 317t113 317q112 131 272 131q159 0 272 -131q112 -131 112 -317t-112 -317q-113 -131 -272 -131q-160 0 -272 131zM783 1391q-16 0 -47 -4q-301 -28 -486 -215q-196 -197 -196 -515q0 -293 172 -479q182 -197 510 -215q20 -2 30 -2h8h17h8
q10 0 31 2q327 18 509 215q172 186 172 479q0 318 -196 515q-185 187 -485 215q-32 4 -47 4z" />
    <glyph glyph-name="P" unicode="P" horiz-adv-x="1168" 
d="M424 1135h158q82 0 139 -61q58 -61 58 -148q0 -86 -58 -147q-57 -61 -139 -61h-158v417zM678 475q213 2 324 177q84 131 84 265q0 165 -108 289q-107 123 -267 148l-9 2q-33 4 -60 4h-379q-67 0 -115 -47q-47 -47 -47 -114v-1049q0 -67 47 -113q46 -47 113 -47h3
q66 0 113 47q46 46 46 113v323z" />
    <glyph glyph-name="Q" unicode="Q" horiz-adv-x="1557" 
d="M511 359q-113 131 -113 317t113 317q112 131 272 131q159 0 272 -131q112 -131 112 -317t-112 -317q-113 -131 -272 -131q-160 0 -272 131zM1033 -260q37 -56 103 -70t123 23l2 2q57 37 71 103q13 66 -24 122l-99 151q72 45 130 107q172 186 172 479q0 318 -196 515
q-185 187 -485 215q-32 4 -47 4q-16 0 -47 -4q-301 -28 -486 -215q-196 -197 -196 -515q0 -293 172 -479q182 -197 510 -215q20 -2 30 -2h33q10 0 31 2q28 2 54 4z" />
    <glyph glyph-name="R" unicode="R" horiz-adv-x="1168" 
d="M388 1139h158q82 0 139 -62q58 -61 58 -147t-58 -147q-57 -61 -139 -61h-158v417zM889 569q47 39 77 87q84 131 84 264q0 165 -108 290q-107 123 -267 148l-9 1q-33 5 -60 5h-379q-67 0 -115 -47q-47 -48 -47 -115v-1049q0 -66 47 -112q46 -47 113 -47h3q66 0 113 47
q46 46 46 112v324l189 1l240 -407q33 -56 96 -72q62 -16 118 16l3 2q56 33 72 95q16 63 -17 119z" />
    <glyph glyph-name="S" unicode="S" horiz-adv-x="1052" 
d="M438 890q-59 40 -59 99q0 51 46 86q52 39 145 39q71 0 165 -26q51 -14 98 12q46 27 61 78l1 3q14 53 -14 101q-27 47 -81 60q-142 36 -226 36q-234 0 -378 -115q-144 -114 -144 -300q0 -274 380 -410q124 -43 174 -84t50 -99q0 -66 -56 -103q-55 -38 -153 -38
q-79 0 -212 41q-55 17 -105 -11t-64 -84l-1 -3q-13 -52 14 -99t79 -62q165 -48 271 -48q283 0 430 137q124 115 124 292q0 146 -86 245t-270 167q-141 53 -189 86z" />
    <glyph glyph-name="T" unicode="T" horiz-adv-x="1160" 
d="M44 1213q9 -37 39 -61q30 -23 68 -23h252v-970q0 -69 49 -118q49 -48 118 -48h3q69 0 118 48q48 49 48 118v970h252q38 0 68 23q31 24 40 61v2q14 52 -20 95q-33 43 -87 43h-841q-54 0 -88 -43q-33 -43 -20 -95z" />
    <glyph glyph-name="U" unicode="U" horiz-adv-x="1325" 
d="M922 540q0 -108 -77 -185t-186 -77h-6q-111 0 -189 78q-79 79 -79 190v668q0 67 -47 114q-48 48 -115 48h-3q-67 0 -115 -48q-47 -47 -47 -114v-623q0 -248 175 -423t422 -175h12q241 0 412 171q170 170 170 411v639q0 67 -47 114q-48 48 -115 48h-3q-67 0 -115 -48
q-47 -47 -47 -114v-674z" />
    <glyph glyph-name="V" unicode="V" horiz-adv-x="1305" 
d="M62 1144q-27 79 21 146q48 68 131 68h17q53 0 96 -32q43 -31 58 -82l143 -461q92 -305 130 -487h6q52 230 132 481l151 469q16 50 58 81q43 31 95 31h4q83 0 132 -69q48 -68 19 -147l-349 -966q-29 -81 -99 -129q-69 -49 -155 -49h-3q-87 0 -157 50t-98 132z" />
    <glyph glyph-name="W" unicode="W" horiz-adv-x="2088" 
d="M1874 1353q-52 0 -95 -31q-42 -31 -58 -81l-151 -469q-80 -251 -132 -481h-6q-30 144 -218 922q-15 61 -65 101q-49 39 -113 39h-3q-63 0 -113 -39q-50 -40 -64 -101q-189 -778 -218 -922h-6q-52 229 -133 481l-150 469q-16 50 -58 81q-43 31 -95 31h-4q-84 0 -132 -69
q-48 -68 -20 -147l352 -974q28 -77 95 -124q67 -46 148 -46h4q88 0 158 54t92 140l146 570l146 -570q22 -86 91 -140q70 -54 159 -54h4q81 0 148 46q67 47 94 124l352 974q29 79 -19 147q-49 69 -132 69h-4z" />
    <glyph glyph-name="X" unicode="X" horiz-adv-x="1123" 
d="M898 1353q-100 0 -147 -89l-189 -359l-189 359q-47 89 -147 89h-4q-99 0 -146 -87t7 -169l274 -424l-274 -424q-54 -83 -7 -170q47 -86 146 -86h4q100 0 147 88l189 360l189 -360q47 -88 147 -88h4q99 0 146 86q47 87 -7 170l-274 424l274 424q54 82 7 169t-146 87h-4z
" />
    <glyph glyph-name="Y" unicode="Y" horiz-adv-x="1079" 
d="M371 437l-347 689q-39 78 7 152q46 75 133 75h18q107 0 146 -100q191 -496 221 -572l223 572q39 100 146 100h3q89 0 134 -76q46 -76 4 -154l-359 -675v-292q0 -68 -47 -116q-48 -47 -115 -47h-4q-67 0 -115 47q-48 48 -48 116v281z" />
    <glyph glyph-name="Z" unicode="Z" horiz-adv-x="1216" 
d="M38 117q0 41 24 74l671 899v8h-547q-91 0 -120 87l-1 2q-20 61 18 114q38 52 102 52h842q55 0 94 -39t39 -94v-1q0 -44 -26 -79l-654 -885v-8h555q91 0 120 -87l1 -2q20 -61 -18 -113q-37 -52 -102 -52h-875q-51 0 -87 36t-36 87v1z" />
    <glyph glyph-name="bracketleft" unicode="[" horiz-adv-x="743" 
d="M194 1525q0 35 25 59q24 25 59 25h274q35 0 59 -25q25 -24 25 -59v-2q0 -34 -25 -59q-24 -25 -59 -25h-38q-35 0 -59 -24q-25 -25 -25 -59v-1404q0 -35 25 -59q24 -25 59 -25h38q35 0 59 -24q25 -25 25 -60v-1q0 -35 -25 -60q-24 -24 -59 -24h-274q-35 0 -59 24
q-25 25 -25 60v1742z" />
    <glyph glyph-name="backslash" unicode="\" horiz-adv-x="625" 
d="M629 77q16 -50 -15 -92t-83 -42h-2q-76 0 -99 72l-443 1359q-16 50 15 93q31 42 84 42h2q75 0 98 -72z" />
    <glyph glyph-name="bracketright" unicode="]" horiz-adv-x="743" 
d="M573 -217q0 -35 -25 -60q-24 -24 -59 -24h-274q-35 0 -59 24q-25 25 -25 60v1q0 35 25 60q24 24 59 24h38q35 0 59 25q25 24 25 59v1404q0 34 -25 59q-24 24 -59 24h-38q-35 0 -59 25q-25 25 -25 59v2q0 35 25 59q24 25 59 25h274q35 0 59 -25q25 -24 25 -59v-1742z" />
    <glyph glyph-name="asciicircum" unicode="^" horiz-adv-x="2048" 
d="M1039 1324q-41 60 -139 60q-97 0 -139 -60l-280 -407q-25 -37 7 -71q31 -35 93 -35q70 0 98 44l220 344l219 -344q28 -44 99 -44h5q59 0 91 35q32 34 6 71z" />
    <glyph glyph-name="underscore" unicode="_" 
d="M968 -336q0 -35 -26 -60t-64 -25h-793q-37 0 -64 25q-26 25 -26 60v1q0 36 26 61q27 25 64 25h793q38 0 64 -25t26 -61v-1z" />
    <glyph glyph-name="grave" unicode="`" 
d="M611 1093q10 -13 6 -25q-4 -13 -19 -13h-123q-12 0 -22 9l-197 153q-25 23 -19 49q6 27 36 27h136q27 0 46 -22z" />
    <glyph glyph-name="a" unicode="a" horiz-adv-x="1139" 
d="M343 518q0 74 27 134q29 63 77 86q100 49 200 10q87 -34 110 -96v-250q-3 -124 -105 -159q-51 -17 -102 -9q-86 0 -147 79q-60 80 -60 193v12zM184 141q141 -148 340 -148q57 0 163 69q26 17 57 13q30 -4 52 -27q51 -55 81 -55h132q26 0 45 19q19 18 19 45v799
q0 48 -35 83q-34 34 -83 34h-82q-48 0 -82 -34t-34 -82v-1q-65 148 -233 148q-199 0 -340 -148t-141 -358q0 -209 141 -357z" />
    <glyph glyph-name="b" unicode="b" horiz-adv-x="1160" 
d="M794 506q0 -113 -61 -193q-61 -79 -146 -79q-51 -8 -102 9q-103 34 -106 159v250q24 62 111 96q100 39 200 -10q48 -23 76 -86q28 -60 28 -134v-12zM379 940v330q0 64 -46 110q-45 46 -110 46h-3q-65 0 -110 -46q-46 -46 -46 -110v-1213q0 -27 19 -46q18 -18 45 -18h188
q26 0 45 18q18 19 18 45v1q109 -64 234 -64q199 0 340 148t141 357q0 210 -141 358t-340 148q-125 0 -234 -64z" />
    <glyph glyph-name="c" unicode="c" horiz-adv-x="906" 
d="M841 115q0 52 -40 86t-91 26q-50 -8 -92 -3q-105 0 -179 80q-75 79 -75 192v12q0 74 34 134q35 63 94 86q104 41 211 19q53 -12 96 22q42 34 42 88v8q0 37 -22 68q-23 30 -59 40q-76 21 -156 21q-228 0 -389 -148q-162 -148 -162 -358q0 -209 162 -357q161 -148 389 -148
q80 0 156 21q36 9 59 40q22 30 22 68v3z" />
    <glyph glyph-name="d" unicode="d" horiz-adv-x="1165" 
d="M364 518q0 74 27 134q29 63 77 86q100 49 200 10q87 -34 110 -96v-250q-3 -125 -105 -159q-51 -17 -102 -9q-86 0 -147 79q-60 80 -60 193v12zM545 1004q-199 0 -340 -148t-141 -358q0 -209 141 -357t340 -148q124 0 233 64v-1q0 -26 19 -45q18 -18 45 -18h188
q26 0 45 18q19 19 19 46v1213q0 64 -46 110t-110 46h-4q-64 0 -110 -46t-46 -110v-330q-109 64 -233 64z" />
    <glyph glyph-name="e" unicode="e" horiz-adv-x="1216" 
d="M753 721q68 -46 99 -121h-509q32 75 100 121q70 47 155 47t155 -47zM1042 86q13 55 -23 99q-35 45 -91 44h-330q-87 0 -158 49q-69 47 -99 125h709q40 0 69 27q29 28 29 67v1q0 210 -153 358q-152 148 -367 148q-15 0 -30 -1q-15 1 -30 1q-215 0 -368 -148
q-152 -148 -152 -358q0 -209 152 -357q153 -148 368 -148q15 0 30 1q15 -1 30 -1q154 0 301 1q40 1 72 26q31 25 40 64z" />
    <glyph glyph-name="f" unicode="f" horiz-adv-x="727" 
d="M679 1282q15 63 -28 111t-106 42q-171 -19 -268 -103q-102 -88 -102 -233v-125h-29q-46 0 -79 -33t-33 -79v-2q0 -47 33 -79q33 -33 79 -33h29v-615q0 -61 42 -103q43 -43 103 -43h3q61 0 103 43q43 42 43 103v615h85q47 0 80 33q32 32 32 79v2q0 46 -32 79
q-33 33 -80 33h-85v69q0 120 108 141q84 16 102 96v2z" />
    <glyph glyph-name="g" unicode="g" horiz-adv-x="1130" 
d="M750 406q-3 -125 -105 -159q-51 -17 -102 -10q-86 0 -147 80q-60 80 -60 192v12q0 75 27 135q29 62 77 86q100 48 200 9q87 -33 110 -95v-250zM803 996q-22 0 -37 -15q-16 -15 -16 -37v0q-109 64 -233 64q-199 0 -340 -149q-141 -148 -141 -357q0 -210 141 -358t340 -148
q122 0 230 63q8 -210 -188 -210q-215 0 -244 1q-84 1 -112 -78l-1 -2q-20 -57 14 -106q35 -50 95 -50q129 -1 221 -1q14 0 27 1q14 -1 28 -1q200 0 330 105q145 118 148 334h1v810q0 56 -40 95q-39 39 -94 39h-129z" />
    <glyph glyph-name="h" unicode="h" horiz-adv-x="1157" 
d="M1089 509q-1 234 -117 381q-134 168 -363 121q-45 -9 -234 -120l-3 388q0 64 -45 109q-46 45 -109 45h-3q-64 0 -110 -45q-45 -46 -45 -110v-1124q0 -64 45 -109t109 -45h3q64 0 109 45t45 109v424q2 2 1 1q1 14 3 24q13 68 106 125q106 65 205 17q94 -46 94 -215v-377
q0 -63 45 -108t108 -45h3q64 0 109 45t45 108z" />
    <glyph glyph-name="i" unicode="i" horiz-adv-x="449" 
d="M227 -7q-68 0 -116 48q-47 47 -47 115v661q0 67 47 115q48 48 116 48h3q67 0 115 -48t48 -115v-661q0 -68 -48 -115q-48 -48 -115 -48h-3zM343 1119q-49 -49 -119 -49t-120 49q-49 50 -49 120t49 119q50 49 120 49t119 -49q50 -49 50 -119t-50 -120z" />
    <glyph glyph-name="j" unicode="j" horiz-adv-x="569" 
d="M453 91q-1 -234 -118 -380q-133 -168 -363 -122q-20 4 -50 17q-71 32 -71 109v2q0 49 34 83q33 35 81 36q44 0 83 19q94 46 94 215v741q0 64 45 109t109 45h3q63 0 108 -45t45 -109v-720zM427 1111q-49 -50 -119 -50t-119 50q-50 49 -50 119t50 120q49 49 119 49t119 -49
q50 -50 50 -120t-50 -119z" />
    <glyph glyph-name="k" unicode="k" horiz-adv-x="1049" 
d="M679 656l262 301q51 61 17 133q-33 72 -113 72h-3q-57 0 -95 -43l-278 -290q-15 -17 -33 -22q-19 -6 -19 13v466q0 67 -48 115q-47 48 -115 48h-3q-68 0 -115 -48q-48 -48 -48 -115v-1118q0 -67 48 -115q47 -48 115 -48h3q68 0 115 48q48 48 48 115v239l43 41l266 -376
q41 -67 119 -67h4q86 0 125 77q40 77 -11 146z" />
    <glyph glyph-name="l" unicode="l" horiz-adv-x="497" 
d="M415 156q0 -67 -48 -115q-47 -48 -115 -48h-3q-68 0 -115 48q-48 48 -48 115v1034q0 68 48 116q47 47 115 47h3q68 0 115 -47q48 -48 48 -116v-1034z" />
    <glyph glyph-name="m" unicode="m" horiz-adv-x="1762" 
d="M1694 502q-1 235 -118 381q-134 169 -363 121q-80 -17 -235 -168h-7q-134 222 -395 168q-58 -12 -108 -56q-11 -9 -38 -36q-20 -20 -32 -28v1q0 41 -29 70q-29 30 -70 30h-116q-42 0 -71 -30q-29 -29 -29 -70v-748q0 -59 42 -102q43 -42 102 -42h22q60 0 102 42
q43 43 43 102v439q0 71 48 124q49 54 119 56q73 2 126 -49q52 -51 52 -124v-446q0 -59 43 -102q42 -42 102 -42h29q59 0 102 42q42 43 42 102v439q0 71 48 124q49 54 119 56q74 2 126 -49q53 -51 53 -124v-446q0 -59 42 -102q42 -42 102 -42h3q60 0 102 42q42 43 42 102v365
z" />
    <glyph glyph-name="n" unicode="n" horiz-adv-x="1177" 
d="M1110 496q-1 234 -117 381q-134 168 -363 121q-45 -9 -234 -120v1q0 41 -29 70q-29 30 -70 30h-115q-42 0 -72 -30q-29 -29 -29 -71v-738q0 -63 45 -108t108 -45h5q63 0 108 45t45 108v425q2 2 1 1q1 14 3 24q13 68 106 125q106 65 205 17q94 -46 94 -215v-377
q0 -63 45 -108t108 -45h3q64 0 109 45t45 108z" />
    <glyph glyph-name="o" unicode="o" horiz-adv-x="1173" 
d="M414 306q-73 81 -73 195t73 195t175 81t175 -81q72 -81 72 -195t-72 -195q-73 -82 -175 -82t-175 82zM589 1024q-16 1 -31 1q-217 0 -371 -154q-153 -154 -153 -370q0 -218 153 -371q154 -154 371 -154q15 0 31 1q14 -1 29 -1q218 0 371 154q154 153 154 371
q0 216 -154 370q-153 154 -371 154q-15 0 -29 -1z" />
    <glyph glyph-name="p" unicode="p" horiz-adv-x="1133" 
d="M785 483q0 -74 -27 -134q-29 -63 -77 -86q-100 -49 -200 -10q-87 34 -110 96v250q3 125 105 159q51 17 102 9q86 0 147 -79q60 -80 60 -193v-12zM604 -3q199 0 340 148t141 358q0 209 -141 357t-340 148q-124 0 -233 -64v1q0 26 -19 45q-18 18 -45 18h-188q-26 0 -45 -18
q-19 -19 -19 -46v-1213q0 -64 46 -110t110 -46h4q64 0 110 46t46 110v330q109 -64 233 -64z" />
    <glyph glyph-name="q" unicode="q" horiz-adv-x="1118" 
d="M335 495q0 113 60 193q61 79 147 79q51 8 102 -9q102 -34 105 -159v-250q-23 -62 -110 -96q-100 -39 -200 10q-48 23 -77 86q-27 60 -27 134v12zM749 61v-330q0 -64 46 -110t110 -46h4q64 0 110 46t46 110v1213q0 27 -19 46q-19 18 -45 18h-188q-27 0 -45 -18
q-19 -19 -19 -45v-1q-109 64 -233 64q-199 0 -340 -148t-141 -357q0 -210 141 -358t340 -148q124 0 233 64z" />
    <glyph glyph-name="r" unicode="r" horiz-adv-x="729" 
d="M427 958q-32 -22 -65 -73q-69 101 -155 101h-5q-64 0 -110 -45q-45 -46 -45 -110v-683q0 -63 45 -108q45 -46 109 -46h3q64 0 109 46q45 45 45 108v425h1v1q1 14 3 24q11 56 86 111q85 62 172 48q60 -11 75 86l23 103q6 27 -12 49q-17 22 -46 22q-149 0 -233 -59z" />
    <glyph glyph-name="s" unicode="s" horiz-adv-x="825" 
d="M45 155q12 46 53 69t86 9q87 -27 157 -27q131 0 131 81q0 39 -30 63q-29 23 -114 52q-286 95 -282 297q0 141 109 232q112 92 292 92q91 0 176 -22q43 -11 66 -48q23 -38 12 -81l-1 -2q-10 -43 -49 -66t-82 -11q-60 17 -111 17q-117 0 -117 -79q0 -36 34 -60
q32 -23 125 -55q263 -91 266 -305q0 -144 -107 -230q-113 -91 -318 -91q-117 0 -221 31q-42 13 -64 51t-11 81v2z" />
    <glyph glyph-name="t" unicode="t" horiz-adv-x="722" 
d="M495 467v316h92q42 0 72 30q31 30 31 73v2q0 42 -31 72q-30 31 -72 31h-92v85q0 51 -32 93q-31 41 -81 54l-4 1q-73 20 -133 -26t-60 -122v-85h-42q-43 0 -73 -31q-30 -30 -30 -72v-2q0 -43 30 -73t73 -30h42v-296v0q1 -213 66 -338q81 -156 254 -156q76 0 117 110
q17 47 10 86q-7 44 -43 62q-94 48 -94 216z" />
    <glyph glyph-name="u" unicode="u" horiz-adv-x="1165" 
d="M71 499q1 -234 118 -380q133 -169 363 -122q44 9 233 120v-1q0 -41 30 -70q29 -29 70 -29h115q42 0 71 29q30 30 30 71v738q0 63 -45 108t-109 45h-4q-64 0 -109 -45t-45 -108v-425q-1 -2 -1 -1q-1 -14 -3 -24q-12 -68 -105 -125q-107 -65 -205 -17q-94 46 -94 215v377
q0 63 -45 108t-109 45h-3q-63 0 -108 -45t-45 -108v-356z" />
    <glyph glyph-name="v" unicode="v" horiz-adv-x="969" 
d="M797 980q-50 0 -91 -30t-56 -78q-135 -447 -165 -580h-7q-28 138 -159 579q-14 49 -55 79t-92 30h-19q-79 0 -125 -64t-20 -139l207 -602q28 -81 98 -131q70 -51 156 -51h4q86 0 155 49q70 49 99 129l218 604q27 75 -19 140t-125 65h-4z" />
    <glyph glyph-name="w" unicode="w" horiz-adv-x="1510" 
d="M1353 953q-100 0 -132 -94l-108 -312q-42 -123 -74 -238q-38 153 -139 540q-12 46 -49 75q-38 29 -86 29h-32q-48 0 -86 -29t-50 -75q-102 -392 -138 -540q-32 115 -74 238l-108 312q-32 94 -132 94h-3q-74 0 -115 -60q-42 -61 -15 -130l246 -633q24 -62 79 -100
q55 -37 122 -37h3q73 0 131 44t77 114l79 287l79 -287q19 -70 77 -114t131 -44h3q66 0 121 37q56 38 80 100l246 633q27 69 -15 130q-41 60 -115 60h-3z" />
    <glyph glyph-name="x" unicode="x" horiz-adv-x="933" 
d="M732 978q-79 0 -122 -66l-157 -243l-158 243q-42 66 -122 66h-3q-92 0 -131 -82q-40 -83 17 -154l205 -256l-205 -257q-57 -71 -17 -154q39 -82 131 -82h3q80 0 122 66l158 243l157 -243q43 -66 122 -66h4q91 0 131 82q39 83 -18 154l-204 257l204 256q57 71 18 154
q-40 82 -131 82h-4z" />
    <glyph glyph-name="y" unicode="y" horiz-adv-x="985" 
d="M806 977q-46 0 -84 -28q-37 -27 -51 -72q-138 -453 -168 -588l-195 591q-14 44 -51 70q-37 27 -83 27h-25q-77 0 -119 -64q-42 -65 -10 -135q238 -530 274 -714v-5q0 -169 -95 -215q-39 -19 -82 -20q-48 0 -82 -35q-34 -34 -34 -83v-2q0 -78 71 -109q30 -13 51 -17
q182 -37 326 62q132 91 183 257q8 25 311 892q24 69 -18 129q-42 59 -116 59h-3z" />
    <glyph glyph-name="z" unicode="z" horiz-adv-x="887" 
d="M419 227l414 543q24 32 24 73v1q0 50 -35 85t-84 35h-574q-59 0 -94 -49q-35 -48 -15 -104v-3q27 -78 110 -78h305l-424 -553q-24 -30 -24 -69v-1q0 -47 33 -81q33 -33 80 -33h611q59 0 94 49q34 48 15 104l-1 3q-26 78 -109 78h-326z" />
    <glyph glyph-name="braceleft" unicode="{" 
d="M944 -258q0 62 -64 93q-145 70 -145 150q0 56 15 138q15 129 15 171q3 140 -180 249q-20 12 -18 33q3 22 25 29q177 60 173 263q0 47 -15 170q-15 85 -15 139q0 81 144 149q65 30 65 92v2q0 54 -51 86q-51 31 -109 13q-376 -116 -376 -290q0 -61 18 -194q15 -166 15 -191
q-5 -129 -138 -159q-92 -20 -92 -103v-1q0 -84 90 -103q140 -30 140 -157q0 -25 -15 -191q-18 -132 -18 -194q0 -184 375 -295q59 -18 110 14q51 31 51 85v2z" />
    <glyph glyph-name="bar" unicode="|" 
d="M607 -263q0 -47 -33 -80t-80 -33h-2q-47 0 -80 33t-33 80v1780q0 47 33 80t80 33h2q47 0 80 -33t33 -80v-1780z" />
    <glyph glyph-name="braceright" unicode="}" 
d="M122 -260q0 -54 51 -85q51 -32 110 -14q375 111 375 295q0 62 -18 194q-15 166 -15 191q0 127 140 157q90 19 90 103v1q0 83 -92 103q-133 30 -138 159q0 25 15 191q18 133 18 194q0 174 -376 290q-58 18 -109 -13q-51 -32 -51 -86v-2q0 -62 65 -92q144 -68 144 -149
q0 -54 -15 -139q-15 -123 -15 -170q-4 -203 173 -263q22 -7 25 -29q2 -21 -18 -33q-183 -109 -180 -249q0 -42 15 -171q15 -82 15 -138q0 -80 -145 -150q-64 -31 -64 -93v-2z" />
    <glyph glyph-name="asciitilde" unicode="~" horiz-adv-x="1706" 
d="M971 526q-37 0 -74 11q-38 11 -117 51t-125 40q-51 0 -118 -53q-26 -21 -55 -6q-30 15 -30 47q-3 31 9 71q24 79 102 124q39 23 113 23q31 0 66 -10q34 -10 100 -43q67 -33 95 -41t53 -8q7 0 110 54q44 23 75 5q29 -17 30 -59q4 -106 -141 -186q-35 -20 -93 -20z" />
    <glyph glyph-name="exclamdown" unicode="&#xa1;" horiz-adv-x="702" 
d="M153 -270q-3 -56 35 -96t94 -40h70q56 0 94 40t35 96l-34 656q-3 52 -40 87t-89 35h-2q-52 0 -89 -35t-40 -87zM186 955q54 55 132 55q77 0 131 -55q55 -54 55 -132q0 -77 -55 -131q-54 -55 -131 -55q-78 0 -132 55q-55 54 -55 131q0 78 55 132z" />
    <glyph glyph-name="cent" unicode="&#xa2;" horiz-adv-x="1394" 
d="M959 309q-72 -100 -236 -80q-112 0 -190 88q-79 88 -79 212v14q0 82 35 148q38 68 100 94q106 44 217 22q94 -18 153 -73v290q-120 55 -251 55q-242 0 -413 -163q-171 -164 -171 -395t171 -394t413 -163q131 0 251 54v291zM326 -255l859 1687h-221l-861 -1687h223z" />
    <glyph glyph-name="sterling" unicode="&#xa3;" horiz-adv-x="1109" 
d="M408 246q56 71 77 118q26 60 26 158q0 20 -2 40h99q35 0 59 24t24 59v1q0 36 -25 61t-60 25h-138q-19 51 -32 113t-13 99q0 73 47 121q48 48 119 48q29 0 53 -8q69 -21 111 30l9 10q35 43 17 96q-19 52 -74 63q-50 10 -108 10q-116 0 -214 -47q-97 -46 -151 -134
q-53 -89 -53 -187q0 -109 37 -214h-59q-34 0 -58 -24t-24 -58v-2q0 -36 25 -61t61 -25h100q4 -27 4 -51q0 -103 -44 -185q-8 -14 -28 -40t-60 -47q-33 -17 -33 -54v-81q0 -33 23 -56q23 -24 56 -24h753q31 0 52 22q22 22 22 53v2q0 60 -42 103q-43 42 -103 42h-453z" />
    <glyph glyph-name="currency" unicode="&#xa4;" horiz-adv-x="1014" 
d="M392 594q30 -32 72 -45q21 -6 43 -6q21 0 42 6q42 13 72 45q29 32 42 77q7 23 7 46t-7 46q-13 45 -42 77q-30 32 -73 45q-21 7 -42 7t-43 -8q-42 -13 -71 -44t-41 -77q-7 -23 -7 -47q0 -22 6 -44q12 -46 42 -78zM240 903l-118 118l80 81l118 -118q44 30 99 46
q44 14 89 14q41 0 83 -12q57 -17 102 -48l118 118l80 -81l-117 -117q31 -46 48 -102q12 -42 12 -85q0 -42 -12 -85q-17 -56 -48 -102l117 -117l-80 -81l-118 118q-45 -32 -101 -48q-42 -12 -85 -12q-42 0 -85 12q-57 16 -102 48l-118 -118l-80 81l118 117q-32 46 -48 103
q-12 42 -12 84q0 44 13 87q16 55 47 99z" />
    <glyph glyph-name="yen" unicode="&#xa5;" horiz-adv-x="1103" 
d="M655 261v-105q0 -68 -40 -116q-41 -47 -98 -47h-3q-57 0 -98 47q-41 48 -41 116v105h-250q-37 0 -64 25q-26 25 -26 60v2q0 35 26 60q27 25 64 25h250v4l-30 70h-220q-37 0 -64 25q-26 25 -26 60v2q0 35 26 60q27 25 64 25h146l-191 447q-33 78 6 152q39 75 113 75h15
q91 0 124 -100q163 -496 188 -572l190 572q33 100 124 100h3q75 0 113 -76q40 -76 4 -154l-201 -444h159q38 0 63 -25q27 -25 27 -60v-2q0 -35 -27 -60q-25 -25 -63 -25h-236l-27 -59v-15h263q38 0 63 -25q27 -25 27 -60v-2q0 -35 -27 -60q-25 -25 -63 -25h-263z" />
    <glyph glyph-name="brokenbar" unicode="&#xa6;" horiz-adv-x="1014" 
d="M427 371h160v-789h-160v789zM427 1578h160v-789h-160v789z" />
    <glyph glyph-name="section" unicode="&#xa7;" horiz-adv-x="1069" 
d="M409 628q23 -9 45 -17q124 -42 174 -83t50 -100q0 -15 -5 -33q-21 8 -24 10q-141 53 -189 85q-59 41 -59 100q0 20 8 38zM919 695q-86 99 -270 168q-141 53 -189 85q-59 41 -59 100q0 51 46 85q52 39 145 39q71 0 165 -26q51 -14 98 13q46 26 61 78l1 3q14 53 -14 100
q-27 48 -81 61q-142 35 -226 35q-234 0 -378 -114t-144 -300q0 -127 80 -223q-80 -101 -80 -235q0 -275 380 -411q124 -42 174 -83t50 -100q0 -66 -56 -103q-55 -37 -153 -37q-79 0 -212 41q-55 17 -105 -11q-50 -29 -64 -85l-1 -2q-13 -53 14 -99q27 -47 79 -62
q166 -48 271 -48q283 0 430 136q124 116 124 293q0 132 -72 226q72 101 72 231q0 146 -86 245z" />
    <glyph glyph-name="dieresis" unicode="&#xa8;" 
d="M452 1232.5q30 -29.5 30 -71.5t-30 -72t-73 -30t-73.5 30t-30.5 72t30.5 71.5t73.5 29.5t73 -29.5zM698 1232.5q30 -29.5 30 -71.5t-30 -72t-74 -30q-43 0 -73 30t-30 72t30 71.5t73 29.5q44 0 74 -29.5z" />
    <glyph glyph-name="copyright" unicode="&#xa9;" horiz-adv-x="1674" 
d="M458 223q161 -157 392 -157q229 -1 390 156t161 383q0 224 -162 382q-161 157 -391 157q-229 0 -390 -157q-161 -158 -161 -382q0 -226 161 -382zM1348 138q-203 -193 -496 -193q-294 0 -500 193t-206 469q0 273 206 466q207 192 503 192q290 0 494 -192
q203 -193 203 -466q0 -276 -204 -469zM1097 348q-30 8 -62 -5q-49 -19 -102 -19q-115 0 -195 80q-81 79 -81 192q0 112 81 192q80 80 195 80q54 0 104 -20q29 -12 59 -4h2q57 16 58 68q0 53 -56 68q-65 17 -135 23q-22 2 -32 2q-11 0 -33 -2q-206 -16 -333 -123
q-134 -113 -134 -295q0 -168 118 -274q124 -113 349 -123q14 -1 21 -1h6h6h5h5q8 0 22 1q70 3 132 17q61 14 62 70t-59 72z" />
    <glyph glyph-name="ordfeminine" unicode="&#xaa;" horiz-adv-x="819" 
d="M236.371 1076.79q0 44.3984 17.8193 80.3965q19.1387 37.7988 50.8174 51.5986q65.9971 29.3984 131.995 5.99902q57.417 -20.3984 72.5967 -57.5977v-149.993q-1.97949 -74.3975 -69.2969 -95.3965q-33.6592 -10.1992 -67.3174 -5.39941q-56.7578 0 -97.0166 47.3975
q-39.5977 47.998 -39.5977 115.796v7.19922zM131.436 850.597q93.0557 -88.7969 224.391 -88.7969q37.6182 0 107.575 41.3984q17.1592 10.2002 37.6182 7.7998q19.7998 -2.39941 34.3193 -16.1992q33.6582 -32.999 53.458 -32.999h87.1162q17.1592 0 29.6982 11.3994
q12.54 10.7998 12.54 26.999v479.381q0 28.7988 -23.0996 49.7979q-22.4385 20.3994 -54.7773 20.3994h-54.1182q-31.6787 0 -54.1172 -20.3994q-22.4395 -20.3994 -22.4395 -49.1982v-0.599609q-42.8984 88.7959 -153.773 88.7959q-131.335 0 -224.391 -88.7959
q-93.0566 -88.7959 -93.0566 -214.791q0 -125.396 93.0566 -214.191zM611 539q0 -35 -13 -60t-32 -25h-396.5q-18.5 0 -32 25q-13 25 -13 60v1q0 36 13 61q13.5 25 32 25h396.5q19 0 32 -25t13 -61v-1z" />
    <glyph glyph-name="guillemotleft" unicode="&#xab;" horiz-adv-x="944" 
d="M174 479l342 303h14v-37l-205 -266l205 -266v-37h-14zM487 479l342 303h14v-37l-205 -266l205 -266v-37h-14z" />
    <glyph glyph-name="logicalnot" unicode="&#xac;" horiz-adv-x="1014" 
d="M821 778q39 0 67 -20q27 -20 27 -49v-366q0 -25 -23 -42t-56 -17h-2q-32 0 -55 17q-24 17 -24 42v285h-580q-42 0 -71 22q-30 22 -30 53v1q0 31 30 52q29 22 71 22h646z" />
    <glyph glyph-name="registered" unicode="&#xae;" horiz-adv-x="1674" 
d="M458 223q161 -157 392 -157q229 -1 390 156t161 383q0 224 -162 382q-161 157 -391 157q-229 0 -390 -157q-161 -158 -161 -382q0 -226 161 -382zM1348 138q-203 -193 -496 -193q-294 0 -500 193t-206 469q0 273 206 466q207 192 503 192q290 0 494 -192
q203 -193 203 -466q0 -276 -204 -469zM784 834h90q47 0 79 -32q33 -32 33 -78t-33 -78q-32 -32 -79 -32h-90v220zM783 238v247h62l150 -247h187l-163 271q64 29 103 85q39 57 39 125q0 87 -61 153q-61 65 -153 78v1h-4q-20 2 -35 2h-308v-715h183z" />
    <glyph glyph-name="macron" unicode="&#xaf;" horiz-adv-x="934" 
d="M749 1323q0 -44 -34 -75q-33 -31 -81 -31h-420q-48 0 -82 31t-34 75v2q0 44 34 75t82 31h420q48 0 81 -31q34 -31 34 -75v-2z" />
    <glyph glyph-name="degree" unicode="&#xb0;" horiz-adv-x="674" 
d="M339 1372q-86 0 -147.5 -61t-61.5 -148t61 -147t148 -60t147 60t60 147t-60.5 148t-146.5 61zM339 1442q115 0 196 -81.5t81 -196.5q0 -114 -82 -196t-197 -82q-117 0 -197 81t-80 197t81.5 197t197.5 81z" />
    <glyph glyph-name="plusminus" unicode="&#xb1;" horiz-adv-x="1706" 
d="M939 942h359q39 0 66 -27t27 -66v-2q0 -38 -27 -65q-27 -28 -66 -28h-359v-341q0 -43 -31 -74t-74 -31h-2q-44 0 -75 31q-30 31 -30 74v341h-360q-39 0 -66 28q-27 27 -27 65v2q0 39 27 66t66 27h360v335q0 43 30 74q31 31 75 31h2q43 0 74 -31t31 -74v-335zM1195 172
q42 0 72 -26t30 -63v-1q0 -37 -30 -63t-72 -26h-724q-42 0 -72 26t-30 63v1q0 37 30 63t72 26h724z" />
    <glyph glyph-name="uni00B2" unicode="&#xb2;" horiz-adv-x="1292" 
d="M950 1081q23 52 23 110q0 104 -82 172q-82 69 -224 69q-110 0 -198 -57q-22 -14 -53 -40q-23 -20 -30 -21l125 -105q13 34 45 57q33 23 75 26q55 5 97 -25q11 -5 18 -12q15 -13 22 -34q9 -18 10 -37q4 -45 -28 -81q-5 -9 -10 -15q-3 -5 -71 -80q-83 -93 -140 -157
q-199 -227 -203 -263l-1 -10h648v166h-293q25 33 197 228q49 57 73 109z" />
    <glyph glyph-name="uni00B3" unicode="&#xb3;" horiz-adv-x="1274" 
d="M494 981h5q33 -2 66 2q33 -9 63 -25q35 -18 52 -52q16 -33 9 -70l-1 -5q-10 -55 -65 -85t-126 -16q-105 10 -140 63l-11 17l-32 -163l5 -3q74 -42 161 -58q52 -10 104 -10q131 0 224 58q93 57 111 148q13 73 -26 146q-39 71 -122 125q126 83 113 193q-9 81 -95 133
q-86 53 -208 53q-31 0 -61 -4q-65 -8 -124 -31l-46 -12l46 -131l10 9q43 38 109 45q14 1 27 1q58 0 100 -25q41 -27 46 -65q4 -43 -38 -80q-43 -38 -110 -46q-23 -2 -46 0v-112z" />
    <glyph glyph-name="acute" unicode="&#xb4;" 
d="M486 1271q20 22 46 22h136q30 0 36 -27q6 -26 -19 -49l-197 -153q-10 -9 -21 -9h-124q-15 0 -19 13q-4 12 7 25z" />
    <glyph glyph-name="mu" unicode="&#xb5;" horiz-adv-x="1152" 
d="M712 51q0 -68 47 -115q48 -48 116 -48h3q67 0 115 48q48 47 48 115v821q0 67 -48 115t-115 48h-11q-63 0 -108 -45q-33 -33 -42 -75q-5 -20 -5 -43v-414q-12 -129 -92 -168q-39 -48 -145 17q-33 57 -46 125q-2 10 -3 24q1 -1 -1 1v424q0 64 -45 109t-109 45h-3
q-64 0 -109 -45t-45 -109v-1124q0 -64 45 -110q46 -45 110 -45h3q63 0 109 45q45 45 45 109l3 358q96 -173 274 -33q5 4 9 7v-37z" />
    <glyph glyph-name="paragraph" unicode="&#xb6;" 
d="M929 1435v-70h-127v-1365h-82v1365h-166v-1365h-84v738q-174 8 -275.5 102.5t-101.5 245.5q0 157 107.5 253t285.5 96h443z" />
    <glyph glyph-name="periodcentered" unicode="&#xb7;" horiz-adv-x="508" 
d="M352 805.5q42 -43.5 42 -105.5q0 -61 -42 -104.5t-102 -43.5q-59 0 -101 43.5t-42 104.5q0 62 42 105.5t101 43.5q60 0 102 -43.5z" />
    <glyph glyph-name="periodcentered" unicode="&#x2219;" horiz-adv-x="508" 
d="M352 805.5q42 -43.5 42 -105.5q0 -61 -42 -104.5t-102 -43.5q-59 0 -101 43.5t-42 104.5q0 62 42 105.5t101 43.5q60 0 102 -43.5z" />
    <glyph glyph-name="cedilla" unicode="&#xb8;" 
d="M587 -62l11 28q9 20 -4 39t-36 19h-38q-31 0 -41 -29l-28 -85q-4 -11 4 -20q7 -10 20 -10v0q17 0 56 -13q49 -16 49 -53q0 -38 -28 -56q-14 -8 -72 -8q-59 1 -80 10q-17 8 -33 -2t-16 -28v-1q0 -26 25 -32q72 -19 163 -19q102 0 161 36q58 37 58 101q0 60 -70 93t-101 30
z" />
    <glyph glyph-name="uni00B9" unicode="&#xb9;" horiz-adv-x="1104" 
d="M551 1391q-9 -22 -13 -27q-62 -66 -177 -91l59 -135q64 12 131 51v-613h197v815h-197z" />
    <glyph glyph-name="ordmasculine" unicode="&#xba;" horiz-adv-x="882" 
d="M315.229 972.593q-48.1777 48.5977 -48.1777 116.995t48.1777 116.995q48.1787 48.5977 115.496 48.5977q67.3164 0 115.495 -48.5977q47.5176 -48.5977 47.5176 -116.995t-47.5176 -116.995q-48.1787 -49.1982 -115.495 -49.1982q-67.3174 0 -115.496 49.1982z
M430.725 1403.38q-10.5596 0.599609 -20.46 0.599609q-143.214 0 -244.85 -92.3955q-100.976 -92.3965 -100.976 -221.991q0 -130.795 100.976 -222.591q101.636 -92.3965 244.85 -92.3965q9.90039 0 20.46 0.599609q9.23926 -0.599609 19.1387 -0.599609
q143.874 0 244.851 92.3965q101.636 91.7959 101.636 222.591q0 129.595 -101.636 221.991q-100.977 92.3955 -244.851 92.3955q-9.89941 0 -19.1387 -0.599609zM691 561q0 -35 -13 -60t-32 -25h-396.5q-18.5 0 -32 25q-13 25 -13 60v1q0 36 13 61q13.5 25 32 25h396.5
q19 0 32 -25t13 -61v-1z" />
    <glyph glyph-name="guillemotright" unicode="&#xbb;" horiz-adv-x="944" 
d="M115 176h-14v37l205 266l-205 266v37h14l342 -303zM428 176h-14v37l205 266l-205 266v37h14l342 -303z" />
    <glyph glyph-name="onequarter" unicode="&#xbc;" horiz-adv-x="1861" 
d="M1326 817l-393 -480v-118h440v-194h213v194h162l-58 139h-103l1 459h-262zM1168 363l205 289v-294h-205v5zM257 1403q-9 -22 -13 -27q-62 -66 -177 -91l59 -135q64 12 131 51v-613h197v815h-197zM1130 1520q21 36 64 36h1q44 0 65 -38q22 -37 -1 -75l-851 -1402
q-22 -36 -64 -36h-4q-44 0 -65 38t1 75z" />
    <glyph glyph-name="onehalf" unicode="&#xbd;" horiz-adv-x="1768" 
d="M247 1391q-9 -22 -13 -27q-62 -66 -177 -91l59 -135q64 12 131 51v-613h197v815h-197zM1541 527q23 52 23 110q0 104 -82 172q-82 69 -224 69q-110 0 -198 -57q-22 -14 -53 -40q-23 -20 -29 -21l124 -105q13 34 46 56q32 24 74 27q55 4 97 -25q11 -5 18 -12
q15 -13 23 -34q8 -18 9 -37q5 -45 -28 -81q-5 -9 -10 -15q-3 -5 -71 -80q-83 -93 -140 -157q-198 -228 -203 -263l-1 -10h648v166h-293q25 33 197 228q49 57 73 109zM1130 1520q21 36 64 36h1q44 0 65 -38q22 -37 -1 -75l-851 -1402q-22 -36 -64 -36h-4q-44 0 -65 38t1 75z
" />
    <glyph glyph-name="threequarters" unicode="&#xbe;" horiz-adv-x="1608" 
d="M207 1135h5q33 -2 66 2q33 -9 63 -25q35 -18 52 -52q16 -33 9 -70l-1 -5q-10 -55 -65 -85t-126 -16q-105 10 -140 63l-11 17l-32 -163l5 -3q74 -42 161 -58q52 -10 104 -10q131 0 224 58q93 57 111 148q13 73 -26 146q-39 71 -122 125q126 83 113 193q-9 81 -95 133
q-86 53 -208 53q-31 0 -61 -4q-65 -8 -124 -31l-46 -12l46 -131l10 9q43 38 109 45q14 1 27 1q58 0 100 -25q41 -27 46 -65q4 -43 -38 -80q-43 -38 -110 -46q-23 -2 -46 0v-112zM1165 717l-368 -435v-106h412v-176h200v176h152l-54 125h-97l1 416h-246zM1017 306l192 261
v-266h-192v5zM1130 1520q21 36 64 36h1q44 0 65 -38q22 -37 -1 -75l-851 -1402q-22 -36 -64 -36h-4q-44 0 -65 38t1 75z" />
    <glyph glyph-name="questiondown" unicode="&#xbf;" horiz-adv-x="1239" 
d="M775 762q-54 -51 -139 -51q-87 0 -140 51q-53 50 -55 132q0 80 53 132q54 52 142 52q86 0 140 -52q53 -52 53 -132q0 -81 -54 -132zM636 614q65 0 107 -51q42 -50 30 -115q-26 -130 -126 -201q-126 -90 -126 -212q0 -118 159 -121q76 0 171 23q44 11 83 -11
q39 -21 53 -64l1 -2q16 -47 -8 -91q-23 -44 -72 -57q-153 -41 -302 -41q-204 0 -316 95q-102 86 -102 220q0 113 53 208q52 92 133 131q106 51 121 166q6 53 46 88q39 35 92 35h3z" />
    <glyph glyph-name="Agrave" unicode="&#xc0;" horiz-adv-x="1412" 
d="M503 577q91 300 129 482h6q52 -229 132 -480l1 -2h-268zM880 1180q-29 80 -99 129q-69 49 -155 49h-3q-87 0 -157 -51q-70 -50 -98 -131l-332 -965q-27 -79 21 -146q48 -68 131 -68h17q53 0 96 32q43 31 58 82l61 198h436l65 -200q16 -50 58 -81q43 -31 95 -31h4
q83 0 132 69q48 69 19 147zM769 1503q10 -13 6 -25q-4 -13 -19 -13h-123q-12 0 -22 9l-197 153q-25 23 -19 49q6 27 36 27h136q27 0 46 -22z" />
    <glyph glyph-name="Aacute" unicode="&#xc1;" horiz-adv-x="1412" 
d="M503 577q91 300 129 482h6q52 -229 132 -480l1 -2h-268zM880 1180q-29 80 -99 129q-69 49 -155 49h-3q-87 0 -157 -51q-70 -50 -98 -131l-332 -965q-27 -79 21 -146q48 -68 131 -68h17q53 0 96 32q43 31 58 82l61 198h436l65 -200q16 -50 58 -81q43 -31 95 -31h4
q83 0 132 69q48 69 19 147zM716 1681q20 22 46 22h136q30 0 36 -27q6 -26 -19 -49l-197 -153q-10 -9 -21 -9h-124q-15 0 -19 13q-4 12 7 25z" />
    <glyph glyph-name="Acircumflex" unicode="&#xc2;" horiz-adv-x="1412" 
d="M503 577q91 300 129 482h6q52 -229 132 -480l1 -2h-268zM880 1180q-29 80 -99 129q-69 49 -155 49h-3q-87 0 -157 -51q-70 -50 -98 -131l-332 -965q-27 -79 21 -146q48 -68 131 -68h17q53 0 96 32q43 31 58 82l61 198h436l65 -200q16 -50 58 -81q43 -31 95 -31h4
q83 0 132 69q48 69 19 147zM708 1699q-26 33 -87 33t-87 -33l-176 -230q-16 -21 4 -41q19 -19 58 -19q45 0 63 25l138 159l137 -159q18 -25 63 -25h2q38 0 58 19q20 20 3 41z" />
    <glyph glyph-name="Atilde" unicode="&#xc3;" horiz-adv-x="1412" 
d="M503 577q91 300 129 482h6q52 -229 132 -480l1 -2h-268zM880 1180q-29 80 -99 129q-69 49 -155 49h-3q-87 0 -157 -51q-70 -50 -98 -131l-332 -965q-27 -79 21 -146q48 -68 131 -68h17q53 0 96 32q43 31 58 82l61 198h436l65 -200q16 -50 58 -81q43 -31 95 -31h4
q83 0 132 69q48 69 19 147zM799 1418q-30 0 -60 8t-94 38q-63 29 -100 29q-41 0 -95 -39q-21 -15 -45 -4q-23 11 -23 35q-3 23 7 52q19 59 82 92q31 17 91 17q25 0 52 -8q28 -7 82 -31q53 -24 76 -31q22 -6 42 -6q6 0 89 40q35 17 60 4q23 -12 24 -43q3 -79 -113 -138
q-28 -15 -75 -15z" />
    <glyph glyph-name="Adieresis" unicode="&#xc4;" horiz-adv-x="1412" 
d="M503 577q91 300 129 482h6q52 -229 132 -480l1 -2h-268zM880 1180q-29 80 -99 129q-69 49 -155 49h-3q-87 0 -157 -51q-70 -50 -98 -131l-332 -965q-27 -79 21 -146q48 -68 131 -68h17q53 0 96 32q43 31 58 82l61 198h436l65 -200q16 -50 58 -81q43 -31 95 -31h4
q83 0 132 69q48 69 19 147zM642 1642.5q30 -29.5 30 -71.5t-30 -72t-73 -30t-73.5 30t-30.5 72t30.5 71.5t73.5 29.5t73 -29.5zM888 1642.5q30 -29.5 30 -71.5t-30 -72t-74 -30q-43 0 -73 30t-30 72t30 71.5t73 29.5q44 0 74 -29.5z" />
    <glyph glyph-name="Aring" unicode="&#xc5;" horiz-adv-x="1412" 
d="M503 577q91 300 129 482h6q52 -229 132 -480l1 -2h-268zM880 1180q-29 80 -99 129q-69 49 -155 49h-3q-87 0 -157 -51q-70 -50 -98 -131l-332 -965q-27 -79 21 -146q48 -68 131 -68h17q53 0 96 32q43 31 58 82l61 198h436l65 -200q16 -50 58 -81q43 -31 95 -31h4
q83 0 132 69q48 69 19 147zM605 1608q0 -23 18.5 -39t45.5 -16t45.5 16t18.5 39q0 22 -19 38.5t-45 16.5t-45 -16.5t-19 -38.5zM512 1611q0 56 44 94t108 38q65 0 109.5 -38.5t44.5 -93.5t-44.5 -93.5t-109.5 -38.5q-64 0 -108 38.5t-44 93.5z" />
    <glyph glyph-name="AE" unicode="&#xc6;" horiz-adv-x="1886" 
d="M521 577q91 300 129 482h6q52 -229 132 -480l1 -2h-268zM941 103q16 -46 56 -75q34 -24 73 -30q23 -5 48 -5h588q51 0 87 36q37 36 37 88v4q0 52 -37 88q-36 36 -87 36h-455v407h399q51 0 87 36q37 37 37 88v3q0 51 -37 87q-36 36 -87 36h-399v199h423q44 0 78 27t43 70
l1 4q13 58 -24 105q-37 46 -97 46h-557q-81 0 -139 -57q-57 -58 -57 -139v-43l-24 66q-29 80 -99 129q-69 49 -155 49h-3q-87 0 -157 -51q-70 -50 -98 -131l-332 -965q-27 -79 21 -146q48 -68 131 -68h17q53 0 96 32q43 31 58 82l61 198h436l51 -158q5 -25 16 -48z" />
    <glyph glyph-name="Ccedilla" unicode="&#xc7;" horiz-adv-x="1178" 
d="M1091 232q-45 14 -92 -7q-74 -34 -154 -34q-171 0 -292 137q-121 136 -121 329t121 330t292 137q81 0 156 -35q44 -20 88 -7l4 1q85 26 86 116t-84 116q-96 30 -202 40q-32 3 -48 3t-49 -3q-308 -28 -498 -211q-201 -194 -201 -505q0 -288 176 -470q187 -193 523 -210
q21 -2 32 -2h9h8h8h8q11 0 32 2q106 5 198 29t93 120q2 96 -89 123zM761 -62l11 28q9 20 -4 39t-36 19h-38q-31 0 -41 -29l-28 -85q-4 -11 4 -20q7 -10 20 -10v0q17 0 56 -13q49 -16 49 -53q0 -38 -28 -56q-14 -8 -72 -8q-59 1 -80 10q-17 8 -33 -2t-16 -28v-1q0 -26 25 -32
q72 -19 163 -19q102 0 161 36q58 37 58 101q0 60 -70 93t-101 30z" />
    <glyph glyph-name="Egrave" unicode="&#xc8;" horiz-adv-x="1183" 
d="M453 245v407h399q51 0 87 36q37 37 37 88v3q0 51 -37 87q-36 36 -87 36h-399v199h423q44 0 78 27t43 70l1 4q13 58 -24 105q-37 46 -97 46h-557q-81 0 -139 -57q-57 -58 -57 -139v-968q0 -81 57 -139q58 -57 139 -57h588q51 0 87 36q37 36 37 88v4q0 52 -37 88
q-36 36 -87 36h-455zM751 1503q10 -13 6 -25q-4 -13 -19 -13h-123q-12 0 -22 9l-197 153q-25 23 -19 49q6 27 36 27h136q27 0 46 -22z" />
    <glyph glyph-name="Eacute" unicode="&#xc9;" horiz-adv-x="1183" 
d="M453 245v407h399q51 0 87 36q37 37 37 88v3q0 51 -37 87q-36 36 -87 36h-399v199h423q44 0 78 27t43 70l1 4q13 58 -24 105q-37 46 -97 46h-557q-81 0 -139 -57q-57 -58 -57 -139v-968q0 -81 57 -139q58 -57 139 -57h588q51 0 87 36q37 36 37 88v4q0 52 -37 88
q-36 36 -87 36h-455zM697 1681q20 22 46 22h136q30 0 36 -27q6 -26 -19 -49l-197 -153q-10 -9 -21 -9h-124q-15 0 -19 13q-4 12 7 25z" />
    <glyph glyph-name="Ecircumflex" unicode="&#xca;" horiz-adv-x="1183" 
d="M453 245v407h399q51 0 87 36q37 37 37 88v3q0 51 -37 87q-36 36 -87 36h-399v199h423q44 0 78 27t43 70l1 4q13 58 -24 105q-37 46 -97 46h-557q-81 0 -139 -57q-57 -58 -57 -139v-968q0 -81 57 -139q58 -57 139 -57h588q51 0 87 36q37 36 37 88v4q0 52 -37 88
q-36 36 -87 36h-455zM690 1699q-26 33 -87 33t-87 -33l-176 -230q-16 -21 4 -41q19 -19 58 -19q45 0 63 25l138 159l137 -159q18 -25 63 -25h2q38 0 58 19q20 20 3 41z" />
    <glyph glyph-name="Edieresis" unicode="&#xcb;" horiz-adv-x="1183" 
d="M453 245v407h399q51 0 87 36q37 37 37 88v3q0 51 -37 87q-36 36 -87 36h-399v199h423q44 0 78 27t43 70l1 4q13 58 -24 105q-37 46 -97 46h-557q-81 0 -139 -57q-57 -58 -57 -139v-968q0 -81 57 -139q58 -57 139 -57h588q51 0 87 36q37 36 37 88v4q0 52 -37 88
q-36 36 -87 36h-455zM624 1642.5q30 -29.5 30 -71.5t-30 -72t-73 -30t-73.5 30t-30.5 72t30.5 71.5t73.5 29.5t73 -29.5zM870 1642.5q30 -29.5 30 -71.5t-30 -72t-74 -30q-43 0 -73 30t-30 72t30 71.5t73 29.5q44 0 74 -29.5z" />
    <glyph glyph-name="Igrave" unicode="&#xcc;" horiz-adv-x="657" 
d="M504 158q0 -68 -48 -115q-47 -48 -115 -48h-3q-68 0 -115 48q-48 47 -48 115v1034q0 68 48 115q47 48 115 48h3q68 0 115 -48q48 -47 48 -115v-1034zM503 1481q10 -13 6 -25q-4 -13 -19 -13h-123q-12 0 -22 9l-197 153q-25 23 -19 49q6 27 36 27h136q27 0 46 -22z" />
    <glyph glyph-name="Iacute" unicode="&#xcd;" horiz-adv-x="657" 
d="M502 163q0 -68 -48 -115q-47 -48 -115 -48h-3q-68 0 -115 48q-48 47 -48 115v1034q0 68 48 115q47 48 115 48h3q68 0 115 -48q48 -47 48 -115v-1034zM322 1662q20 22 46 22h136q30 0 36 -27q6 -26 -19 -49l-197 -153q-10 -9 -21 -9h-124q-15 0 -19 13q-4 12 7 25z" />
    <glyph glyph-name="Icircumflex" unicode="&#xce;" horiz-adv-x="692" 
d="M503 187q0 -68 -48 -115q-47 -48 -115 -48h-3q-68 0 -115 48q-48 47 -48 115v1034q0 68 48 115q47 48 115 48h3q68 0 115 -48q48 -47 48 -115v-1034zM435 1683q-26 31 -87 31t-86 -31l-175 -214q-16 -20 4 -38q19 -18 58 -18q44 0 62 23l137 181l137 -181q18 -23 62 -23
h2q38 0 58 18t3 38z" />
    <glyph glyph-name="Idieresis" unicode="&#xcf;" horiz-adv-x="657" 
d="M500 176q0 -68 -48 -115q-47 -48 -115 -48h-3q-68 0 -115 48q-48 47 -48 115v1034q0 68 48 115q47 48 115 48h3q68 0 115 -48q48 -47 48 -115v-1034zM288 1642.5q30 -29.5 30 -71.5t-30 -72t-73 -30t-73.5 30t-30.5 72t30.5 71.5t73.5 29.5t73 -29.5zM534 1642.5
q30 -29.5 30 -71.5t-30 -72t-74 -30q-43 0 -73 30t-30 72t30 71.5t73 29.5q44 0 74 -29.5z" />
    <glyph glyph-name="Eth" unicode="&#xd0;" horiz-adv-x="1518" 
d="M648 219q-44 0 -76 31q-31 31 -31 75v716q0 44 31 75q32 31 76 31h1q209 0 357 -136t148 -328t-148 -328t-357 -136h-1zM311 1357q-42 -3 -70 -34q-29 -30 -29 -71v-1141q0 -43 29 -73q30 -30 73 -32q273 -13 342 -13q392 0 612 192q206 182 206 479q0 332 -249 526
q-235 183 -604 183q-73 0 -310 -16zM985 683q0 36 -26 61t-64 25h-793q-37 0 -64 -25q-26 -25 -26 -61v-1q0 -35 26 -60q27 -25 64 -25h793q38 0 64 25t26 60v1z" />
    <glyph glyph-name="Ntilde" unicode="&#xd1;" horiz-adv-x="1554" 
d="M418 907l487 -792q75 -122 217 -122h5q105 0 180 75t75 181v943q0 67 -47 114t-114 47h-3q-66 0 -114 -47q-47 -47 -47 -114v-747l-576 838q-48 70 -133 70h-94q-67 0 -114 -47t-47 -114v-1038q0 -67 47 -114t114 -47h3q67 0 114 47t47 114v753zM882 1418q-30 0 -60 8
t-94 38q-63 29 -100 29q-41 0 -95 -39q-21 -15 -45 -4q-23 11 -23 35q-3 23 7 52q19 59 82 92q31 17 91 17q25 0 52 -8q28 -7 82 -31q53 -24 76 -31q22 -6 42 -6q6 0 89 40q35 17 60 4q23 -12 24 -43q3 -79 -113 -138q-28 -15 -75 -15z" />
    <glyph glyph-name="Ograve" unicode="&#xd2;" horiz-adv-x="1770" 
d="M552 359q-113 131 -113 317t113 317q112 131 272 131q159 0 272 -131q112 -131 112 -317t-112 -317q-113 -131 -272 -131q-160 0 -272 131zM824 1391q-16 0 -47 -4q-301 -28 -486 -215q-196 -197 -196 -515q0 -293 172 -479q182 -197 510 -215q20 -2 30 -2h8h17h8
q10 0 31 2q327 18 509 215q172 186 172 479q0 318 -196 515q-185 187 -485 215q-32 4 -47 4zM1007 1503q10 -13 6 -25q-4 -13 -19 -13h-123q-12 0 -22 9l-197 153q-25 23 -19 49q6 27 36 27h136q27 0 46 -22z" />
    <glyph glyph-name="Oacute" unicode="&#xd3;" horiz-adv-x="1770" 
d="M552 359q-113 131 -113 317t113 317q112 131 272 131q159 0 272 -131q112 -131 112 -317t-112 -317q-113 -131 -272 -131q-160 0 -272 131zM824 1391q-16 0 -47 -4q-301 -28 -486 -215q-196 -197 -196 -515q0 -293 172 -479q182 -197 510 -215q20 -2 30 -2h8h17h8
q10 0 31 2q327 18 509 215q172 186 172 479q0 318 -196 515q-185 187 -485 215q-32 4 -47 4zM954 1681q20 22 46 22h136q30 0 36 -27q6 -26 -19 -49l-197 -153q-10 -9 -21 -9h-124q-15 0 -19 13q-4 12 7 25z" />
    <glyph glyph-name="Ocircumflex" unicode="&#xd4;" horiz-adv-x="1770" 
d="M552 359q-113 131 -113 317t113 317q112 131 272 131q159 0 272 -131q112 -131 112 -317t-112 -317q-113 -131 -272 -131q-160 0 -272 131zM824 1391q-16 0 -47 -4q-301 -28 -486 -215q-196 -197 -196 -515q0 -293 172 -479q182 -197 510 -215q20 -2 30 -2h8h17h8
q10 0 31 2q327 18 509 215q172 186 172 479q0 318 -196 515q-185 187 -485 215q-32 4 -47 4zM946 1699q-26 33 -87 33t-87 -33l-176 -230q-16 -21 4 -41q19 -19 58 -19q45 0 63 25l138 159l137 -159q18 -25 63 -25h2q38 0 58 19q20 20 3 41z" />
    <glyph glyph-name="Otilde" unicode="&#xd5;" horiz-adv-x="1770" 
d="M552 359q-113 131 -113 317t113 317q112 131 272 131q159 0 272 -131q112 -131 112 -317t-112 -317q-113 -131 -272 -131q-160 0 -272 131zM824 1391q-16 0 -47 -4q-301 -28 -486 -215q-196 -197 -196 -515q0 -293 172 -479q182 -197 510 -215q20 -2 30 -2h8h17h8
q10 0 31 2q327 18 509 215q172 186 172 479q0 318 -196 515q-185 187 -485 215q-32 4 -47 4zM1037 1418q-30 0 -60 8t-94 38q-63 29 -100 29q-41 0 -95 -39q-21 -15 -45 -4q-23 11 -23 35q-3 23 7 52q19 59 82 92q31 17 91 17q25 0 52 -8q28 -7 82 -31q53 -24 76 -31
q22 -6 42 -6q6 0 89 40q35 17 60 4q23 -12 24 -43q3 -79 -113 -138q-28 -15 -75 -15z" />
    <glyph glyph-name="Odieresis" unicode="&#xd6;" horiz-adv-x="1770" 
d="M552 359q-113 131 -113 317t113 317q112 131 272 131q159 0 272 -131q112 -131 112 -317t-112 -317q-113 -131 -272 -131q-160 0 -272 131zM824 1391q-16 0 -47 -4q-301 -28 -486 -215q-196 -197 -196 -515q0 -293 172 -479q182 -197 510 -215q20 -2 30 -2h8h17h8
q10 0 31 2q327 18 509 215q172 186 172 479q0 318 -196 515q-185 187 -485 215q-32 4 -47 4zM881 1642.5q30 -29.5 30 -71.5t-30 -72t-73 -30t-73.5 30t-30.5 72t30.5 71.5t73.5 29.5t73 -29.5zM1127 1642.5q30 -29.5 30 -71.5t-30 -72t-74 -30q-43 0 -73 30t-30 72t30 71.5
t73 29.5q44 0 74 -29.5z" />
    <glyph glyph-name="multiply" unicode="&#xd7;" horiz-adv-x="1014" 
d="M507 618l-247 -247l-99 99l247 247l-247 248l99 98l247 -247l248 247l98 -99l-247 -247l247 -247l-99 -99z" />
    <glyph glyph-name="Oslash" unicode="&#xd8;" horiz-adv-x="1770" 
d="M552 359q-113 131 -113 317t113 317q112 131 272 131q159 0 272 -131q112 -131 112 -317t-112 -317q-113 -131 -272 -131q-160 0 -272 131zM824 1391q-16 0 -47 -4q-301 -28 -486 -215q-196 -197 -196 -515q0 -293 172 -479q182 -197 510 -215q20 -2 30 -2h8h17h8
q10 0 31 2q327 18 509 215q172 186 172 479q0 318 -196 515q-185 187 -485 215q-32 4 -47 4zM347 25q-27 -50 -3 -101q25 -51 80 -62l2 -1q81 -15 121 57l756 1357q28 51 4 103q-24 51 -81 62l-2 1q-80 15 -120 -57z" />
    <glyph glyph-name="Ugrave" unicode="&#xd9;" horiz-adv-x="1484" 
d="M1000 540q0 -108 -77 -185t-186 -77h-6q-111 0 -189 78q-79 79 -79 190v668q0 67 -47 114q-48 48 -115 48h-3q-67 0 -115 -48q-47 -47 -47 -114v-623q0 -248 175 -423t422 -175h12q241 0 412 171q170 170 170 411v639q0 67 -47 114q-48 48 -115 48h-3q-67 0 -115 -48
q-47 -47 -47 -114v-674zM924 1503q10 -13 6 -25q-4 -13 -19 -13h-123q-12 0 -22 9l-197 153q-25 23 -19 49q6 27 36 27h136q27 0 46 -22z" />
    <glyph glyph-name="Uacute" unicode="&#xda;" horiz-adv-x="1484" 
d="M1000 540q0 -108 -77 -185t-186 -77h-6q-111 0 -189 78q-79 79 -79 190v668q0 67 -47 114q-48 48 -115 48h-3q-67 0 -115 -48q-47 -47 -47 -114v-623q0 -248 175 -423t422 -175h12q241 0 412 171q170 170 170 411v639q0 67 -47 114q-48 48 -115 48h-3q-67 0 -115 -48
q-47 -47 -47 -114v-674zM870 1681q20 22 46 22h136q30 0 36 -27q6 -26 -19 -49l-197 -153q-10 -9 -21 -9h-124q-15 0 -19 13q-4 12 7 25z" />
    <glyph glyph-name="Ucircumflex" unicode="&#xdb;" horiz-adv-x="1484" 
d="M1000 540q0 -108 -77 -185t-186 -77h-6q-111 0 -189 78q-79 79 -79 190v668q0 67 -47 114q-48 48 -115 48h-3q-67 0 -115 -48q-47 -47 -47 -114v-623q0 -248 175 -423t422 -175h12q241 0 412 171q170 170 170 411v639q0 67 -47 114q-48 48 -115 48h-3q-67 0 -115 -48
q-47 -47 -47 -114v-674zM863 1699q-26 33 -87 33t-87 -33l-176 -230q-16 -21 4 -41q19 -19 58 -19q45 0 63 25l138 159l137 -159q18 -25 63 -25h2q38 0 58 19q20 20 3 41z" />
    <glyph glyph-name="Udieresis" unicode="&#xdc;" horiz-adv-x="1484" 
d="M1000 540q0 -108 -77 -185t-186 -77h-6q-111 0 -189 78q-79 79 -79 190v668q0 67 -47 114q-48 48 -115 48h-3q-67 0 -115 -48q-47 -47 -47 -114v-623q0 -248 175 -423t422 -175h12q241 0 412 171q170 170 170 411v639q0 67 -47 114q-48 48 -115 48h-3q-67 0 -115 -48
q-47 -47 -47 -114v-674zM797 1642.5q30 -29.5 30 -71.5t-30 -72t-73 -30t-73.5 30t-30.5 72t30.5 71.5t73.5 29.5t73 -29.5zM1043 1642.5q30 -29.5 30 -71.5t-30 -72t-74 -30q-43 0 -73 30t-30 72t30 71.5t73 29.5q44 0 74 -29.5z" />
    <glyph glyph-name="Yacute" unicode="&#xdd;" horiz-adv-x="1346" 
d="M397 437l-347 689q-39 78 7 152q46 75 133 75h18q107 0 146 -100q191 -496 221 -572l223 572q39 100 146 100h3q89 0 134 -76q46 -76 4 -154l-359 -675v-292q0 -68 -47 -116q-48 -47 -115 -47h-4q-67 0 -115 47q-48 48 -48 116v281zM736 1681q20 22 46 22h136
q30 0 36 -27q6 -26 -19 -49l-197 -153q-10 -9 -21 -9h-124q-15 0 -19 13q-4 12 7 25z" />
    <glyph glyph-name="Thorn" unicode="&#xde;" horiz-adv-x="1286" 
d="M865 483q0 -74 -27 -134q-29 -63 -77 -86q-100 -49 -200 -10q-87 34 -110 96v250q3 125 105 159q51 17 102 9q86 0 147 -79q60 -80 60 -193v-12zM684 -3q199 0 340 148t141 358q0 209 -141 357t-340 148q-124 0 -233 -64v1q0 26 -19 45q-18 18 -45 18h-188q-26 0 -45 -18
q-19 -19 -19 -46v-1213q0 -64 46 -110t110 -46h4q64 0 110 46t46 110v330q109 -64 233 -64zM463 1210q0 68 -48 116q-47 47 -115 47h-3q-68 0 -115 -47q-48 -48 -48 -116v-1034q0 -67 48 -115q47 -48 115 -48h3q68 0 115 48q48 48 48 115v1034z" />
    <glyph glyph-name="germandbls" unicode="&#xdf;" horiz-adv-x="1237" 
d="M1050 666q-28 24 -32 60q-4 35 18 64q9 12 18 25q53 84 53 184q0 92 -43 167q-44 73 -109 118t-147 59q-37 6 -483 11q-101 1 -172 -70q-72 -71 -72 -171v-965q0 -65 46 -110q46 -46 110 -45h4q64 0 109 46q45 45 45 109v955h297q51 0 87 -39q36 -40 36 -95t-36 -95
q-36 -39 -87 -39v0q-28 0 -47 -20q-19 -19 -19 -46v-124q0 -36 26 -62q25 -25 61 -25h1q54 0 93 -41t39 -98q0 -59 -39 -101q-40 -45 -93 -37q-16 2 -75 26q-55 23 -107 -5q-52 -29 -62 -88l-1 -1v-2q-15 -86 59 -128q263 -149 477 -15q73 45 122 145q44 90 44 186
q0 122 -69 214q-23 29 -52 53z" />
    <glyph glyph-name="agrave" unicode="&#xe0;" horiz-adv-x="1177" 
d="M338 518q0 74 27 134q29 63 77 86q100 49 200 10q87 -34 110 -96v-250q-3 -124 -105 -159q-51 -17 -102 -9q-86 0 -147 79q-60 80 -60 193v12zM179 141q141 -148 340 -148q57 0 163 69q26 17 57 13q30 -4 52 -27q51 -55 81 -55h132q26 0 45 19q19 18 19 45v799
q0 48 -35 83q-34 34 -83 34h-82q-48 0 -82 -34t-34 -82v-1q-65 148 -233 148q-199 0 -340 -148t-141 -358q0 -209 141 -357zM642 1093q10 -13 6 -25q-4 -13 -19 -13h-123q-12 0 -22 9l-197 153q-25 23 -19 49q6 27 36 27h136q27 0 46 -22z" />
    <glyph glyph-name="aacute" unicode="&#xe1;" horiz-adv-x="1177" 
d="M338 518q0 74 27 134q29 63 77 86q100 49 200 10q87 -34 110 -96v-250q-3 -124 -105 -159q-51 -17 -102 -9q-86 0 -147 79q-60 80 -60 193v12zM179 141q141 -148 340 -148q57 0 163 69q26 17 57 13q30 -4 52 -27q51 -55 81 -55h132q26 0 45 19q19 18 19 45v799
q0 48 -35 83q-34 34 -83 34h-82q-48 0 -82 -34t-34 -82v-1q-65 148 -233 148q-199 0 -340 -148t-141 -358q0 -209 141 -357zM589 1271q20 22 46 22h136q30 0 36 -27q6 -26 -19 -49l-197 -153q-10 -9 -21 -9h-124q-15 0 -19 13q-4 12 7 25z" />
    <glyph glyph-name="acircumflex" unicode="&#xe2;" horiz-adv-x="1177" 
d="M338 518q0 74 27 134q29 63 77 86q100 49 200 10q87 -34 110 -96v-250q-3 -124 -105 -159q-51 -17 -102 -9q-86 0 -147 79q-60 80 -60 193v12zM179 141q141 -148 340 -148q57 0 163 69q26 17 57 13q30 -4 52 -27q51 -55 81 -55h132q26 0 45 19q19 18 19 45v799
q0 48 -35 83q-34 34 -83 34h-82q-48 0 -82 -34t-34 -82v-1q-65 148 -233 148q-199 0 -340 -148t-141 -358q0 -209 141 -357zM689 1318q-26 33 -87 33t-87 -33l-176 -230q-16 -21 4 -41q19 -19 58 -19q45 0 63 25l138 159l137 -159q18 -25 63 -25h2q38 0 58 19q20 20 3 41z
" />
    <glyph glyph-name="atilde" unicode="&#xe3;" horiz-adv-x="1177" 
d="M338 518q0 74 27 134q29 63 77 86q100 49 200 10q87 -34 110 -96v-250q-3 -124 -105 -159q-51 -17 -102 -9q-86 0 -147 79q-60 80 -60 193v12zM179 141q141 -148 340 -148q57 0 163 69q26 17 57 13q30 -4 52 -27q51 -55 81 -55h132q26 0 45 19q19 18 19 45v799
q0 48 -35 83q-34 34 -83 34h-82q-48 0 -82 -34t-34 -82v-1q-65 148 -233 148q-199 0 -340 -148t-141 -358q0 -209 141 -357zM672 1008q-30 0 -60 8t-94 38q-63 29 -100 29q-41 0 -95 -39q-21 -15 -45 -4q-23 11 -23 35q-3 23 7 52q19 59 82 92q31 17 91 17q25 0 52 -8
q28 -7 82 -31q53 -24 76 -31q22 -6 42 -6q6 0 89 40q35 17 60 4q23 -12 24 -43q3 -79 -113 -138q-28 -15 -75 -15z" />
    <glyph glyph-name="adieresis" unicode="&#xe4;" horiz-adv-x="1177" 
d="M338 518q0 74 27 134q29 63 77 86q100 49 200 10q87 -34 110 -96v-250q-3 -124 -105 -159q-51 -17 -102 -9q-86 0 -147 79q-60 80 -60 193v12zM179 141q141 -148 340 -148q57 0 163 69q26 17 57 13q30 -4 52 -27q51 -55 81 -55h132q26 0 45 19q19 18 19 45v799
q0 48 -35 83q-34 34 -83 34h-82q-48 0 -82 -34t-34 -82v-1q-65 148 -233 148q-199 0 -340 -148t-141 -358q0 -209 141 -357zM516 1232.5q30 -29.5 30 -71.5t-30 -72t-73 -30t-73.5 30t-30.5 72t30.5 71.5t73.5 29.5t73 -29.5zM762 1232.5q30 -29.5 30 -71.5t-30 -72t-74 -30
q-43 0 -73 30t-30 72t30 71.5t73 29.5q44 0 74 -29.5z" />
    <glyph glyph-name="aring" unicode="&#xe5;" horiz-adv-x="1177" 
d="M338 518q0 74 27 134q29 63 77 86q100 49 200 10q87 -34 110 -96v-250q-3 -124 -105 -159q-51 -17 -102 -9q-86 0 -147 79q-60 80 -60 193v12zM179 141q141 -148 340 -148q57 0 163 69q26 17 57 13q30 -4 52 -27q51 -55 81 -55h132q26 0 45 19q19 18 19 45v799
q0 48 -35 83q-34 34 -83 34h-82q-48 0 -82 -34t-34 -82v-1q-65 148 -233 148q-199 0 -340 -148t-141 -358q0 -209 141 -357zM479 1198q0 -23 18.5 -39t45.5 -16t45.5 16t18.5 39q0 22 -19 38.5t-45 16.5t-45 -16.5t-19 -38.5zM386 1201q0 56 44 94t108 38q65 0 109.5 -38.5
t44.5 -93.5t-44.5 -93.5t-109.5 -38.5q-64 0 -108 38.5t-44 93.5z" />
    <glyph glyph-name="ae" unicode="&#xe6;" horiz-adv-x="1961" 
d="M338 518q0 74 27 134q29 63 77 86q100 49 200 10q87 -34 110 -96v-250q-3 -124 -105 -159q-51 -17 -102 -9q-86 0 -147 79q-60 80 -60 193v12zM179 141q141 -148 340 -148q57 0 163 69q26 17 57 13q30 -4 52 -27q51 -55 81 -55h132q26 0 45 19q19 18 19 45v799
q0 48 -35 83q-34 34 -83 34h-82q-48 0 -82 -34t-34 -82v-1q-65 148 -233 148q-199 0 -340 -148t-141 -358q0 -209 141 -357zM1522 721q68 -46 99 -121h-509q32 75 100 121q70 47 155 47t155 -47zM1811 86q13 55 -23 99q-35 45 -91 44h-330q-87 0 -158 49q-69 47 -99 125h709
q40 0 69 27q29 28 29 67v1q0 210 -153 358q-152 148 -367 148q-15 0 -30 -1q-15 1 -30 1q-215 0 -368 -148q-152 -148 -152 -358q0 -209 152 -357q153 -148 368 -148q15 0 30 1q15 -1 30 -1q154 0 301 1q40 1 72 26q31 25 40 64z" />
    <glyph glyph-name="ccedilla" unicode="&#xe7;" horiz-adv-x="973" 
d="M875 115q0 52 -40 86t-91 26q-50 -8 -92 -3q-105 0 -179 80q-75 79 -75 192v12q0 74 34 134q35 63 94 86q104 41 211 19q53 -12 96 22q42 34 42 88v8q0 37 -22 68q-23 30 -59 40q-76 21 -156 21q-228 0 -389 -148q-162 -148 -162 -358q0 -209 162 -357q161 -148 389 -148
q80 0 156 21q36 9 59 40q22 30 22 68v3zM604 -62l11 28q9 20 -4 39t-36 19h-38q-31 0 -41 -29l-28 -85q-4 -11 4 -20q7 -10 20 -10v0q17 0 56 -13q49 -16 49 -53q0 -38 -28 -56q-14 -8 -72 -8q-59 1 -80 10q-17 8 -33 -2t-16 -28v-1q0 -26 25 -32q72 -19 163 -19
q102 0 161 36q58 37 58 101q0 60 -70 93t-101 30z" />
    <glyph glyph-name="egrave" unicode="&#xe8;" horiz-adv-x="1318" 
d="M772 721q68 -46 99 -121h-509q32 75 100 121q70 47 155 47t155 -47zM1061 86q13 55 -23 99q-35 45 -91 44h-330q-87 0 -158 49q-69 47 -99 125h709q40 0 69 27q29 28 29 67v1q0 210 -153 358q-152 148 -367 148q-15 0 -30 -1q-15 1 -30 1q-215 0 -368 -148
q-152 -148 -152 -358q0 -209 152 -357q153 -148 368 -148q15 0 30 1q15 -1 30 -1q154 0 301 1q40 1 72 26q31 25 40 64zM763 1093q10 -13 6 -25q-4 -13 -19 -13h-123q-12 0 -22 9l-197 153q-25 23 -19 49q6 27 36 27h136q27 0 46 -22z" />
    <glyph glyph-name="eacute" unicode="&#xe9;" horiz-adv-x="1318" 
d="M772 721q68 -46 99 -121h-509q32 75 100 121q70 47 155 47t155 -47zM1061 86q13 55 -23 99q-35 45 -91 44h-330q-87 0 -158 49q-69 47 -99 125h709q40 0 69 27q29 28 29 67v1q0 210 -153 358q-152 148 -367 148q-15 0 -30 -1q-15 1 -30 1q-215 0 -368 -148
q-152 -148 -152 -358q0 -209 152 -357q153 -148 368 -148q15 0 30 1q15 -1 30 -1q154 0 301 1q40 1 72 26q31 25 40 64zM709 1271q20 22 46 22h136q30 0 36 -27q6 -26 -19 -49l-197 -153q-10 -9 -21 -9h-124q-15 0 -19 13q-4 12 7 25z" />
    <glyph glyph-name="ecircumflex" unicode="&#xea;" horiz-adv-x="1318" 
d="M772 721q68 -46 99 -121h-509q32 75 100 121q70 47 155 47t155 -47zM1061 86q13 55 -23 99q-35 45 -91 44h-330q-87 0 -158 49q-69 47 -99 125h709q40 0 69 27q29 28 29 67v1q0 210 -153 358q-152 148 -367 148q-15 0 -30 -1q-15 1 -30 1q-215 0 -368 -148
q-152 -148 -152 -358q0 -209 152 -357q153 -148 368 -148q15 0 30 1q15 -1 30 -1q154 0 301 1q40 1 72 26q31 25 40 64zM702 1289q-26 33 -87 33t-87 -33l-176 -230q-16 -21 4 -41q19 -19 58 -19q45 0 63 25l138 159l137 -159q18 -25 63 -25h2q38 0 58 19q20 20 3 41z" />
    <glyph glyph-name="edieresis" unicode="&#xeb;" horiz-adv-x="1318" 
d="M772 721q68 -46 99 -121h-509q32 75 100 121q70 47 155 47t155 -47zM1061 86q13 55 -23 99q-35 45 -91 44h-330q-87 0 -158 49q-69 47 -99 125h709q40 0 69 27q29 28 29 67v1q0 210 -153 358q-152 148 -367 148q-15 0 -30 -1q-15 1 -30 1q-215 0 -368 -148
q-152 -148 -152 -358q0 -209 152 -357q153 -148 368 -148q15 0 30 1q15 -1 30 -1q154 0 301 1q40 1 72 26q31 25 40 64zM636 1232.5q30 -29.5 30 -71.5t-30 -72t-73 -30t-73.5 30t-30.5 72t30.5 71.5t73.5 29.5t73 -29.5zM882 1232.5q30 -29.5 30 -71.5t-30 -72t-74 -30
q-43 0 -73 30t-30 72t30 71.5t73 29.5q44 0 74 -29.5z" />
    <glyph glyph-name="igrave" unicode="&#xec;" horiz-adv-x="514" 
d="M248 3q-68 0 -115 48q-48 47 -48 115v661q0 67 48 115q47 48 115 48h3q68 0 115 -48q48 -48 48 -115v-661q0 -68 -48 -115q-47 -48 -115 -48h-3zM349 1093q10 -13 6 -25q-4 -13 -19 -13h-123q-12 0 -22 9l-197 153q-25 23 -19 49q6 27 36 27h136q27 0 46 -22z" />
    <glyph glyph-name="iacute" unicode="&#xed;" horiz-adv-x="514" 
d="M197 3q-68 0 -115 48q-48 47 -48 115v661q0 67 48 115q47 48 115 48h3q68 0 115 -48q48 -48 48 -115v-661q0 -68 -48 -115q-47 -48 -115 -48h-3zM272 1271q20 22 46 22h136q30 0 36 -27q6 -26 -19 -49l-197 -153q-10 -9 -21 -9h-124q-15 0 -19 13q-4 12 7 25z" />
    <glyph glyph-name="icircumflex" unicode="&#xee;" horiz-adv-x="557" 
d="M270 -7q-68 0 -115 48q-48 47 -48 115v661q0 67 48 115q47 48 115 48h3q68 0 115 -48q48 -48 48 -115v-661q0 -68 -48 -115q-47 -48 -115 -48h-3zM367 1338q-26 38 -87 38t-87 -38l-176 -266q-16 -24 4 -47q19 -22 58 -22q45 0 63 29l138 184l137 -184q18 -29 63 -29h2
q38 0 58 22q20 23 3 47z" />
    <glyph glyph-name="idieresis" unicode="&#xef;" horiz-adv-x="514" 
d="M251 3q-68 0 -115 48q-48 47 -48 115v661q0 67 48 115q47 48 115 48h3q68 0 115 -48q48 -48 48 -115v-661q0 -68 -48 -115q-47 -48 -115 -48h-3zM203 1232.5q30 -29.5 30 -71.5t-30 -72t-73 -30t-73.5 30t-30.5 72t30.5 71.5t73.5 29.5t73 -29.5zM449 1232.5
q30 -29.5 30 -71.5t-30 -72t-74 -30q-43 0 -73 30t-30 72t30 71.5t73 29.5q44 0 74 -29.5z" />
    <glyph glyph-name="eth" unicode="&#xf0;" horiz-adv-x="1360" 
d="M308 441q13 92 86 154q87 74 232 74q86 0 153 -32q68 -32 93 -84q17 -25 9 -78q-23 -110 -104 -182q-96 -86 -247 -86q-113 0 -175 65q-62 66 -47 169zM1013 1450l-113 102l-139 -155q-77 23 -165 32q-27 3 -47 3q-17 0 -48 -3q-194 15 -225.5 -124.5t266.5 -142.5h9
l-113 -126l73 -33l72 -34l128 144q33 -21 64 -51q102 -101 133 -258q-147 113 -340 113q-6 0 -18 -1l-9 -1l-9 1q-12 1 -18 1q-236 0 -399 -160q-146 -142 -149 -336q-2 -156 94 -283q96 -128 254 -181l1 -3l6 -2q8 -2 22 -4l13 -2q70 -18 140 -18h54q72 0 145 18
q261 51 412 241q150 190 155 475q4 319 -177 528q-76 88 -176 144z" />
    <glyph glyph-name="ntilde" unicode="&#xf1;" horiz-adv-x="1341" 
d="M1177 496q-1 234 -117 381q-134 168 -363 121q-45 -9 -234 -120v1q0 41 -29 70q-29 30 -70 30h-115q-42 0 -72 -30q-29 -29 -29 -71v-738q0 -63 45 -108t108 -45h5q63 0 108 45t45 108v425q2 2 1 1q1 14 3 24q13 68 106 125q106 65 205 17q94 -46 94 -215v-377
q0 -63 45 -108t108 -45h3q64 0 109 45t45 108zM869 1008q-30 0 -60 8t-94 38q-63 29 -100 29q-41 0 -95 -39q-21 -15 -45 -4q-23 11 -23 35q-3 23 7 52q19 59 82 92q31 17 91 17q25 0 52 -8q28 -7 82 -31q53 -24 76 -31q22 -6 42 -6q6 0 89 40q35 17 60 4q23 -12 24 -43
q3 -79 -113 -138q-28 -15 -75 -15z" />
    <glyph glyph-name="ograve" unicode="&#xf2;" horiz-adv-x="1274" 
d="M444 306q-73 81 -73 195t73 195t175 81t175 -81q72 -81 72 -195t-72 -195q-73 -82 -175 -82t-175 82zM619 1024q-16 1 -31 1q-217 0 -371 -154q-153 -154 -153 -370q0 -218 153 -371q154 -154 371 -154q15 0 31 1q14 -1 29 -1q218 0 371 154q154 153 154 371
q0 216 -154 370q-153 154 -371 154q-15 0 -29 -1zM749 1093q10 -13 6 -25q-4 -13 -19 -13h-123q-12 0 -22 9l-197 153q-25 23 -19 49q6 27 36 27h136q27 0 46 -22z" />
    <glyph glyph-name="oacute" unicode="&#xf3;" horiz-adv-x="1274" 
d="M444 306q-73 81 -73 195t73 195t175 81t175 -81q72 -81 72 -195t-72 -195q-73 -82 -175 -82t-175 82zM619 1024q-16 1 -31 1q-217 0 -371 -154q-153 -154 -153 -370q0 -218 153 -371q154 -154 371 -154q15 0 31 1q14 -1 29 -1q218 0 371 154q154 153 154 371
q0 216 -154 370q-153 154 -371 154q-15 0 -29 -1zM696 1271q20 22 46 22h136q30 0 36 -27q6 -26 -19 -49l-197 -153q-10 -9 -21 -9h-124q-15 0 -19 13q-4 12 7 25z" />
    <glyph glyph-name="ocircumflex" unicode="&#xf4;" horiz-adv-x="1274" 
d="M444 306q-73 81 -73 195t73 195t175 81t175 -81q72 -81 72 -195t-72 -195q-73 -82 -175 -82t-175 82zM619 1024q-16 1 -31 1q-217 0 -371 -154q-153 -154 -153 -370q0 -218 153 -371q154 -154 371 -154q15 0 31 1q14 -1 29 -1q218 0 371 154q154 153 154 371
q0 216 -154 370q-153 154 -371 154q-15 0 -29 -1zM688 1289q-26 33 -87 33t-87 -33l-176 -230q-16 -21 4 -41q19 -19 58 -19q45 0 63 25l138 159l137 -159q18 -25 63 -25h2q38 0 58 19q20 20 3 41z" />
    <glyph glyph-name="otilde" unicode="&#xf5;" horiz-adv-x="1274" 
d="M444 306q-73 81 -73 195t73 195t175 81t175 -81q72 -81 72 -195t-72 -195q-73 -82 -175 -82t-175 82zM619 1024q-16 1 -31 1q-217 0 -371 -154q-153 -154 -153 -370q0 -218 153 -371q154 -154 371 -154q15 0 31 1q14 -1 29 -1q218 0 371 154q154 153 154 371
q0 216 -154 370q-153 154 -371 154q-15 0 -29 -1zM779 1008q-30 0 -60 8t-94 38q-63 29 -100 29q-41 0 -95 -39q-21 -15 -45 -4q-23 11 -23 35q-3 23 7 52q19 59 82 92q31 17 91 17q25 0 52 -8q28 -7 82 -31q53 -24 76 -31q22 -6 42 -6q6 0 89 40q35 17 60 4q23 -12 24 -43
q3 -79 -113 -138q-28 -15 -75 -15z" />
    <glyph glyph-name="odieresis" unicode="&#xf6;" horiz-adv-x="1274" 
d="M444 306q-73 81 -73 195t73 195t175 81t175 -81q72 -81 72 -195t-72 -195q-73 -82 -175 -82t-175 82zM619 1024q-16 1 -31 1q-217 0 -371 -154q-153 -154 -153 -370q0 -218 153 -371q154 -154 371 -154q15 0 31 1q14 -1 29 -1q218 0 371 154q154 153 154 371
q0 216 -154 370q-153 154 -371 154q-15 0 -29 -1zM623 1232.5q30 -29.5 30 -71.5t-30 -72t-73 -30t-73.5 30t-30.5 72t30.5 71.5t73.5 29.5t73 -29.5zM869 1232.5q30 -29.5 30 -71.5t-30 -72t-74 -30q-43 0 -73 30t-30 72t30 71.5t73 29.5q44 0 74 -29.5z" />
    <glyph glyph-name="divide" unicode="&#xf7;" horiz-adv-x="1014" 
d="M913 809q42 0 72 -26t30 -63v-1q0 -37 -30 -63t-72 -26h-724q-42 0 -72 26t-30 63v1q0 37 30 63t72 26h724zM716 897q-54 -54 -131 -54q-76 0 -131 54q-54 55 -54 132q0 76 54 131q55 54 131 54q77 0 131 -54q55 -55 55 -131q0 -77 -55 -132zM719 282q-54 -55 -131 -55
t-131 55q-55 54 -55 131q0 76 55 131q54 54 131 54t131 -54q54 -55 54 -131q0 -77 -54 -131z" />
    <glyph glyph-name="oslash" unicode="&#xf8;" horiz-adv-x="1173" 
d="M414 306q-73 81 -73 195t73 195t175 81t175 -81q72 -81 72 -195t-72 -195q-73 -82 -175 -82t-175 82zM589 1024q-16 1 -31 1q-217 0 -371 -154q-153 -154 -153 -370q0 -218 153 -371q154 -154 371 -154q15 0 31 1q14 -1 29 -1q218 0 371 154q154 153 154 371
q0 216 -154 370q-153 154 -371 154q-15 0 -29 -1zM262 -122q-16 -50 15 -92t83 -42h2q76 0 99 72l443 1359q16 50 -15 93q-31 42 -84 42h-2q-75 0 -98 -72z" />
    <glyph glyph-name="ugrave" unicode="&#xf9;" horiz-adv-x="1366" 
d="M148 499q1 -234 118 -380q133 -169 363 -122q44 9 233 120v-1q0 -41 30 -70q29 -29 70 -29h115q42 0 71 29q30 30 30 71v738q0 63 -45 108t-109 45h-4q-64 0 -109 -45t-45 -108v-425q-1 -2 -1 -1q-1 -14 -3 -24q-12 -68 -105 -125q-107 -65 -205 -17q-94 46 -94 215v377
q0 63 -45 108t-109 45h-3q-63 0 -108 -45t-45 -108v-356zM849 1093q10 -13 6 -25q-4 -13 -19 -13h-123q-12 0 -22 9l-197 153q-25 23 -19 49q6 27 36 27h136q27 0 46 -22z" />
    <glyph glyph-name="uacute" unicode="&#xfa;" horiz-adv-x="1366" 
d="M148 499q1 -234 118 -380q133 -169 363 -122q44 9 233 120v-1q0 -41 30 -70q29 -29 70 -29h115q42 0 71 29q30 30 30 71v738q0 63 -45 108t-109 45h-4q-64 0 -109 -45t-45 -108v-425q-1 -2 -1 -1q-1 -14 -3 -24q-12 -68 -105 -125q-107 -65 -205 -17q-94 46 -94 215v377
q0 63 -45 108t-109 45h-3q-63 0 -108 -45t-45 -108v-356zM796 1271q20 22 46 22h136q30 0 36 -27q6 -26 -19 -49l-197 -153q-10 -9 -21 -9h-124q-15 0 -19 13q-4 12 7 25z" />
    <glyph glyph-name="ucircumflex" unicode="&#xfb;" horiz-adv-x="1366" 
d="M148 499q1 -234 118 -380q133 -169 363 -122q44 9 233 120v-1q0 -41 30 -70q29 -29 70 -29h115q42 0 71 29q30 30 30 71v738q0 63 -45 108t-109 45h-4q-64 0 -109 -45t-45 -108v-425q-1 -2 -1 -1q-1 -14 -3 -24q-12 -68 -105 -125q-107 -65 -205 -17q-94 46 -94 215v377
q0 63 -45 108t-109 45h-3q-63 0 -108 -45t-45 -108v-356zM788 1289q-26 33 -87 33t-87 -33l-176 -230q-16 -21 4 -41q19 -19 58 -19q45 0 63 25l138 159l137 -159q18 -25 63 -25h2q38 0 58 19q20 20 3 41z" />
    <glyph glyph-name="udieresis" unicode="&#xfc;" horiz-adv-x="1366" 
d="M148 499q1 -234 118 -380q133 -169 363 -122q44 9 233 120v-1q0 -41 30 -70q29 -29 70 -29h115q42 0 71 29q30 30 30 71v738q0 63 -45 108t-109 45h-4q-64 0 -109 -45t-45 -108v-425q-1 -2 -1 -1q-1 -14 -3 -24q-12 -68 -105 -125q-107 -65 -205 -17q-94 46 -94 215v377
q0 63 -45 108t-109 45h-3q-63 0 -108 -45t-45 -108v-356zM723 1232.5q30 -29.5 30 -71.5t-30 -72t-73 -30t-73.5 30t-30.5 72t30.5 71.5t73.5 29.5t73 -29.5zM969 1232.5q30 -29.5 30 -71.5t-30 -72t-74 -30q-43 0 -73 30t-30 72t30 71.5t73 29.5q44 0 74 -29.5z" />
    <glyph glyph-name="yacute" unicode="&#xfd;" horiz-adv-x="1157" 
d="M808 977q-46 0 -84 -28q-37 -27 -51 -72q-138 -453 -168 -588l-195 591q-14 44 -51 70q-37 27 -83 27h-25q-77 0 -119 -64q-42 -65 -10 -135q238 -530 274 -714v-5q0 -169 -95 -215q-39 -19 -82 -20q-48 0 -82 -35q-34 -34 -34 -83v-2q0 -78 71 -109q30 -13 51 -17
q182 -37 326 62q132 91 183 257q8 25 311 892q24 69 -18 129q-42 59 -116 59h-3zM590 1271q20 22 46 22h136q30 0 36 -27q6 -26 -19 -49l-197 -153q-10 -9 -21 -9h-124q-15 0 -19 13q-4 12 7 25z" />
    <glyph glyph-name="thorn" unicode="&#xfe;" horiz-adv-x="1286" 
d="M865 483q0 -74 -27 -134q-29 -63 -77 -86q-100 -49 -200 -10q-87 34 -110 96v250q3 125 105 159q51 17 102 9q86 0 147 -79q60 -80 60 -193v-12zM684 -3q199 0 340 148t141 358q0 209 -141 357t-340 148q-124 0 -233 -64v1q0 26 -19 45q-18 18 -45 18h-188q-26 0 -45 -18
q-19 -19 -19 -46v-1213q0 -64 46 -110t110 -46h4q64 0 110 46t46 110v330q109 -64 233 -64zM463 1210q0 68 -48 116q-47 47 -115 47h-3q-68 0 -115 -47q-48 -48 -48 -116v-1034q0 -67 48 -115q47 -48 115 -48h3q68 0 115 48q48 48 48 115v1034z" />
    <glyph glyph-name="ydieresis" unicode="&#xff;" horiz-adv-x="1157" 
d="M808 977q-46 0 -84 -28q-37 -27 -51 -72q-138 -453 -168 -588l-195 591q-14 44 -51 70q-37 27 -83 27h-25q-77 0 -119 -64q-42 -65 -10 -135q238 -530 274 -714v-5q0 -169 -95 -215q-39 -19 -82 -20q-48 0 -82 -35q-34 -34 -34 -83v-2q0 -78 71 -109q30 -13 51 -17
q182 -37 326 62q132 91 183 257q8 25 311 892q24 69 -18 129q-42 59 -116 59h-3zM517 1232.5q30 -29.5 30 -71.5t-30 -72t-73 -30t-73.5 30t-30.5 72t30.5 71.5t73.5 29.5t73 -29.5zM763 1232.5q30 -29.5 30 -71.5t-30 -72t-74 -30q-43 0 -73 30t-30 72t30 71.5t73 29.5
q44 0 74 -29.5z" />
    <glyph glyph-name="dotlessi" unicode="&#x131;" horiz-adv-x="443" 
d="M222 3q-68 0 -115 48q-48 47 -48 115v661q0 67 48 115q47 48 115 48h3q68 0 115 -48q48 -48 48 -115v-661q0 -68 -48 -115q-47 -48 -115 -48h-3z" />
    <glyph glyph-name="circumflex" unicode="&#x2c6;" horiz-adv-x="815" 
d="M480 1289q-26 33 -87 33t-87 -33l-176 -230q-16 -21 4 -41q19 -19 58 -19q45 0 63 25l138 159l137 -159q18 -25 63 -25h2q38 0 58 19q20 20 3 41z" />
    <glyph glyph-name="caron" unicode="&#x2c7;" 
d="M732 1213q15 15 -3 29t-52 14h-2q-40 0 -56 -18l-123 -140l-124 140q-16 18 -56 18q-35 0 -52 -14q-18 -14 -4 -29l158 -166q23 -24 78 -24t78 24z" />
    <glyph glyph-name="uni02C9" unicode="&#x2c9;" 
d="M726 1214q42 0 72 -26t30 -63v-1q0 -37 -30 -63t-72 -26h-454q-42 0 -72 26t-30 63v1q0 37 30 63t72 26h454z" />
    <glyph glyph-name="breve" unicode="&#x2d8;" 
d="M691 1307q-32 0 -52 -17q-21 -17 -16 -40q3 -15 1 -24v-2q0 -26 -29 -45t-70 -19h-5q-60 0 -77 30q-16 28 -7 57q7 24 -14 42t-54 18h-3q-53 0 -66 -35q-10 -26 -10 -52q0 -77 70 -131q71 -54 170 -54t169 54t70 131q0 26 -9 52q-14 35 -68 35z" />
    <glyph glyph-name="dotaccent" unicode="&#x2d9;" 
d="M598 1281.5q34 -34.5 34 -83.5t-34 -84t-83 -35q-48 0 -82.5 35t-34.5 84t34.5 83.5t82.5 34.5q49 0 83 -34.5z" />
    <glyph glyph-name="ring" unicode="&#x2da;" 
d="M428 1198q0 -23 18.5 -39t45.5 -16t45.5 16t18.5 39q0 22 -19 38.5t-45 16.5t-45 -16.5t-19 -38.5zM335 1201q0 56 44 94t108 38q65 0 109.5 -38.5t44.5 -93.5t-44.5 -93.5t-109.5 -38.5q-64 0 -108 38.5t-44 93.5z" />
    <glyph glyph-name="ogonek" unicode="&#x2db;" 
d="M731 -297q-34 -56 -84 -87q-55 -34 -120 -34q-70 0 -114 35.5t-44 90.5q0 76 60.5 156.5t161.5 135.5h101q-4 -1 -7 -3q-56 -23 -90 -70t-26 -91t53 -59t101 8q70 3 8 -82z" />
    <glyph glyph-name="tilde" unicode="&#x2dc;" 
d="M623 1008q-30 0 -60 8t-94 38q-63 29 -100 29q-41 0 -95 -39q-21 -15 -45 -4q-23 11 -23 35q-3 23 7 52q19 59 82 92q31 17 91 17q25 0 52 -8q28 -7 82 -31q53 -24 76 -31q22 -6 42 -6q6 0 89 40q35 17 60 4q23 -12 24 -43q3 -79 -113 -138q-28 -15 -75 -15z" />
    <glyph glyph-name="hungarumlaut" unicode="&#x2dd;" 
d="M250 1085h-154l182 237h281zM625 1085h-154l182 237h281z" />
    <glyph glyph-name="endash" unicode="&#x2013;" horiz-adv-x="1108" 
d="M952 562q42 0 72 -26t30 -63v-1q0 -37 -30 -63t-72 -26h-834q-42 0 -72 26t-30 63v1q0 37 30 63t72 26h834z" />
    <glyph glyph-name="emdash" unicode="&#x2014;" horiz-adv-x="2048" 
d="M1885 562q42 0 72 -26t30 -63v-1q0 -37 -30 -63t-72 -26h-1767q-42 0 -72 26t-30 63v1q0 37 30 63t72 26h1767z" />
    <glyph glyph-name="quoteleft" unicode="&#x2018;" horiz-adv-x="557" 
d="M79 1252l-1 2l178 232h225l-223 -206q108 44 162 -9t54 -138q4 -49 -57 -109.5t-147 -60.5t-147 60.5t-61 145.5q0 45 17 83z" />
    <glyph glyph-name="quoteright" unicode="&#x2019;" horiz-adv-x="557" 
d="M464 1197l1 -2l-214 -223l-189 -9l223 206q-108 -44 -162 9t-54 138q-4 49 57 109.5t147 60.5t147 -60.5t61 -145.5q0 -45 -17 -83z" />
    <glyph glyph-name="quotesinglbase" unicode="&#x201a;" horiz-adv-x="557" 
d="M450 -4l1 -2l-214 -223l-189 -9l223 206q-108 -44 -162 9t-54 138q-4 49 57 109.5t147 60.5t147 -60.5t61 -145.5q0 -45 -17 -83z" />
    <glyph glyph-name="quotedblleft" unicode="&#x201c;" horiz-adv-x="992" 
d="M79 1252l-1 2l214 223l189 9l-223 -206q108 44 162 -9t54 -138q4 -49 -57 -109.5t-147 -60.5t-147 60.5t-61 145.5q0 45 17 83zM517 1252l-1 2l214 223l189 9l-223 -206q108 44 162 -9t54 -138q4 -49 -57 -109.5t-147 -60.5t-147 60.5t-61 145.5q0 45 17 83z" />
    <glyph glyph-name="quotedblright" unicode="&#x201d;" horiz-adv-x="969" 
d="M902 1197l1 -2l-214 -223l-189 -9l223 206q-108 -44 -162 9t-54 138q-4 49 57 109.5t147 60.5t147 -60.5t61 -145.5q0 -45 -17 -83zM464 1197l1 -2l-214 -223l-189 -9l223 206q-108 -44 -162 9t-54 138q-4 49 57 109.5t147 60.5t147 -60.5t61 -145.5q0 -45 -17 -83z" />
    <glyph glyph-name="quotedblbase" unicode="&#x201e;" horiz-adv-x="1010" 
d="M440 79l1 -2l-213 -330h-225l186 245q-36 15 -92 50t-56 120t61 145.5t147 60.5t147 -60.5t61 -145.5q0 -45 -17 -83zM896 79l1 -2l-213 -330h-225l186 245q-36 15 -92 50t-56 120t61 145.5t147 60.5t147 -60.5t61 -145.5q0 -45 -17 -83z" />
    <glyph glyph-name="dagger" unicode="&#x2020;" horiz-adv-x="1014" 
d="M584 829v-1072q0 -42 -26 -72t-63 -30h-1q-37 0 -63 30t-26 72v1072h-280q-42 0 -72 26t-30 63v1q0 37 30 63t72 26h280v326q0 42 26 72t63 30h1q37 0 63 -30t26 -72v-326h256q42 0 72 -26t30 -63v-1q0 -37 -30 -63t-72 -26h-256z" />
    <glyph glyph-name="daggerdbl" unicode="&#x2021;" horiz-adv-x="1014" 
d="M405 1008v326q0 42 26 72t63 30h1q37 0 63 -30t26 -72v-326h256q42 0 72 -26t30 -63v-1q0 -37 -30 -63t-72 -26h-256v-359h256q42 0 72 -26t30 -63v-1q0 -37 -30 -63t-72 -26h-256v-534q0 -42 -26 -72t-63 -30h-1q-37 0 -63 30t-26 72v534h-280q-42 0 -72 26t-30 63v1
q0 37 30 63t72 26h280v359h-280q-42 0 -72 26t-30 63v1q0 37 30 63t72 26h280z" />
    <glyph glyph-name="bullet" unicode="&#x2022;" 
d="M216 718q0 123 87 209t210 86q122 0 208.5 -86.5t86.5 -208.5t-87.5 -209.5t-209.5 -87.5q-123 0 -209 87t-86 210z" />
    <glyph glyph-name="ellipsis" unicode="&#x2026;" horiz-adv-x="2048" 
d="M442 60q-54 -55 -131 -55q-76 0 -131 55q-54 54 -54 131q0 76 54 131q55 54 131 54q77 0 131 -54q55 -55 55 -131q0 -77 -55 -131zM1125 60q-54 -55 -131 -55q-76 0 -131 55q-54 54 -54 131q0 76 54 131q55 54 131 54q77 0 131 -54q55 -55 55 -131q0 -77 -55 -131z
M1808 60q-54 -55 -131 -55q-76 0 -131 55q-54 54 -54 131q0 76 54 131q55 54 131 54q77 0 131 -54q55 -55 55 -131q0 -77 -55 -131z" />
    <glyph glyph-name="guilsinglleft" unicode="&#x2039;" horiz-adv-x="631" 
d="M174 479l342 303h14v-37l-205 -266l205 -266v-37h-14z" />
    <glyph glyph-name="guilsinglright" unicode="&#x203a;" horiz-adv-x="631" 
d="M115 176h-14v37l205 266l-205 266v37h14l342 -303z" />
    <glyph glyph-name="fraction" unicode="&#x2044;" horiz-adv-x="342" 
d="M548 1462q21 36 64 36h1q44 0 65 -38q22 -37 -1 -75l-851 -1402q-22 -36 -64 -36h-4q-44 0 -65 38t1 75z" />
    <glyph glyph-name="fraction" unicode="&#x2215;" horiz-adv-x="342" 
d="M548 1462q21 36 64 36h1q44 0 65 -38q22 -37 -1 -75l-851 -1402q-22 -36 -64 -36h-4q-44 0 -65 38t1 75z" />
    <glyph glyph-name="franc" unicode="&#x20a3;" horiz-adv-x="1207" 
d="M936 397q38 0 64 25t26 60v1q0 36 -26 61t-64 25h-432q-4 38 -4 78q0 49 7 94h429q38 0 64 25t26 60v1q0 36 -26 61t-64 25h-374q18 33 41 64q103 137 248 137q69 0 133 -35q37 -20 74 -7l4 1q72 26 73 116t-71 116q-82 30 -172 40q-27 3 -41 3t-42 -3
q-261 -28 -423 -211q-85 -96 -127 -221h-116q-37 0 -64 -25q-26 -25 -26 -61v-1q0 -35 26 -60q27 -25 64 -25h78q-6 -54 -6 -112q0 -31 2 -60h-74q-37 0 -64 -25q-26 -25 -26 -61v-1q0 -35 26 -60q27 -25 64 -25h101q37 -136 121 -238q159 -193 444 -210q18 -2 28 -2h28
q9 0 27 2q90 5 168 29t79 120q2 96 -75 123l-4 1q-38 14 -78 -7q-63 -34 -131 -34q-145 0 -248 137q-28 37 -49 79h382z" />
    <glyph glyph-name="lira" unicode="&#x20a4;" horiz-adv-x="1207" 
d="M936 397q38 0 64 25t26 60v1q0 36 -26 61t-64 25h-432q-4 38 -4 78q0 49 7 94h429q38 0 64 25t26 60v1q0 36 -26 61t-64 25h-374q18 33 41 64q103 137 248 137q69 0 133 -35q37 -20 74 -7l4 1q72 26 73 116t-71 116q-82 30 -172 40q-27 3 -41 3t-42 -3
q-261 -28 -423 -211q-85 -96 -127 -221h-116q-37 0 -64 -25q-26 -25 -26 -61v-1q0 -35 26 -60q27 -25 64 -25h78q-6 -54 -6 -112q0 -31 2 -60h-74q-37 0 -64 -25q-26 -25 -26 -61v-1q0 -35 26 -60q27 -25 64 -25h101q37 -136 121 -238q159 -193 444 -210q18 -2 28 -2h28
q9 0 27 2q90 5 168 29t79 120q2 96 -75 123l-4 1q-38 14 -78 -7q-63 -34 -131 -34q-145 0 -248 137q-28 37 -49 79h382z" />
    <glyph glyph-name="peseta" unicode="&#x20a7;" horiz-adv-x="1207" 
d="M936 397q38 0 64 25t26 60v1q0 36 -26 61t-64 25h-432q-4 38 -4 78q0 49 7 94h429q38 0 64 25t26 60v1q0 36 -26 61t-64 25h-374q18 33 41 64q103 137 248 137q69 0 133 -35q37 -20 74 -7l4 1q72 26 73 116t-71 116q-82 30 -172 40q-27 3 -41 3t-42 -3
q-261 -28 -423 -211q-85 -96 -127 -221h-116q-37 0 -64 -25q-26 -25 -26 -61v-1q0 -35 26 -60q27 -25 64 -25h78q-6 -54 -6 -112q0 -31 2 -60h-74q-37 0 -64 -25q-26 -25 -26 -61v-1q0 -35 26 -60q27 -25 64 -25h101q37 -136 121 -238q159 -193 444 -210q18 -2 28 -2h28
q9 0 27 2q90 5 168 29t79 120q2 96 -75 123l-4 1q-38 14 -78 -7q-63 -34 -131 -34q-145 0 -248 137q-28 37 -49 79h382z" />
    <glyph glyph-name="Euro" unicode="&#x20ac;" horiz-adv-x="1207" 
d="M936 397q38 0 64 25t26 60v1q0 36 -26 61t-64 25h-432q-4 38 -4 78q0 49 7 94h429q38 0 64 25t26 60v1q0 36 -26 61t-64 25h-374q18 33 41 64q103 137 248 137q69 0 133 -35q37 -20 74 -7l4 1q72 26 73 116t-71 116q-82 30 -172 40q-27 3 -41 3t-42 -3
q-261 -28 -423 -211q-85 -96 -127 -221h-116q-37 0 -64 -25q-26 -25 -26 -61v-1q0 -35 26 -60q27 -25 64 -25h78q-6 -54 -6 -112q0 -31 2 -60h-74q-37 0 -64 -25q-26 -25 -26 -61v-1q0 -35 26 -60q27 -25 64 -25h101q37 -136 121 -238q159 -193 444 -210q18 -2 28 -2h28
q9 0 27 2q90 5 168 29t79 120q2 96 -75 123l-4 1q-38 14 -78 -7q-63 -34 -131 -34q-145 0 -248 137q-28 37 -49 79h382z" />
    <glyph glyph-name="afii61352" unicode="&#x2116;" horiz-adv-x="2437" 
d="M418 907l487 -792q75 -122 217 -122h5q105 0 180 75t75 181v943q0 67 -47 114t-114 47h-3q-66 0 -114 -47q-47 -47 -47 -114v-747l-576 838q-48 70 -133 70h-94q-67 0 -114 -47t-47 -114v-1038q0 -67 47 -114t114 -47h3q67 0 114 47t47 114v753zM1846.23 972.593
q-48.1777 48.5977 -48.1777 116.995t48.1777 116.995q48.1787 48.5977 115.496 48.5977q67.3164 0 115.495 -48.5977q47.5176 -48.5977 47.5176 -116.995t-47.5176 -116.995q-48.1787 -49.1982 -115.495 -49.1982q-67.3174 0 -115.496 49.1982zM1961.72 1403.38
q-10.5596 0.599609 -20.46 0.599609q-143.214 0 -244.85 -92.3955q-100.976 -92.3965 -100.976 -221.991q0 -130.795 100.976 -222.591q101.636 -92.3965 244.85 -92.3965q9.90039 0 20.46 0.599609q9.23926 -0.599609 19.1387 -0.599609q143.874 0 244.851 92.3965
q101.636 91.7959 101.636 222.591q0 129.595 -101.636 221.991q-100.977 92.3955 -244.851 92.3955q-9.89941 0 -19.1387 -0.599609zM2222 561q0 -35 -13 -60t-32 -25h-396.5q-18.5 0 -32 25q-13 25 -13 60v1q0 36 13 61q13.5 25 32 25h396.5q19 0 32 -25t13 -61v-1z" />
    <glyph glyph-name="trademark" unicode="&#x2122;" horiz-adv-x="1367" 
d="M50.8008 1343.23q4.0498 -14.8008 17.5498 -24.4014q13.501 -9.2002 30.6016 -9.2002h113.402v-388.024q0 -27.6016 22.0508 -47.2021q22.0508 -19.2012 53.1016 -19.2012h1.35059q31.0508 0 53.1006 19.2012q21.6006 19.6006 21.6006 47.2021v388.024h113.403
q17.1006 0 30.6006 9.2002q13.9512 9.60059 18.001 24.4014v0.799805q6.2998 20.8018 -9 38.0029q-14.8506 17.2012 -39.1514 17.2012h-378.46q-24.3008 0 -39.6016 -17.2012q-14.8506 -17.2012 -9 -38.0029zM732.255 1253.82l107.103 -331.62
q9.4502 -30.002 37.3516 -48.4033q27.9004 -18.8008 62.5518 -18.8008h1.7998q34.6504 0 62.5518 18.8008q27.9004 18.4014 37.3506 48.4033l107.553 331.62v-340.82q0 -24.002 18.9004 -40.8027q19.3506 -17.2012 46.3516 -17.2012h1.35059q27 0 45.9014 17.2012
q19.3496 16.8008 19.3496 40.8027v379.223q0 44.4023 -35.1006 75.6045t-85.0518 31.2021h-2.25098q-40.501 0 -72.4512 -21.6016q-31.9512 -21.6016 -43.2012 -56.0029l-101.253 -316.42l-103.053 316.819q-10.8008 34.4023 -43.2012 55.6035
q-31.9512 21.6016 -72.002 21.6016h-2.25q-49.9512 0 -85.0527 -31.2021q-35.1006 -31.2021 -35.1006 -75.6045v-379.223q0 -24.002 19.3506 -40.8027q18.9004 -17.2012 45.9014 -17.2012h1.34961q27.001 0 46.3516 17.2012q18.9004 16.8008 18.9004 40.8027v340.82z" />
    <glyph glyph-name="partialdiff" unicode="&#x2202;" horiz-adv-x="1325" 
d="M375 468q0 86 60 145q73 70 210 70q179 0 248 -110q19 -23 19 -73q-6 -104 -73 -173q-80 -81 -223 -81q-106 0 -173 62q-68 62 -68 160zM150 767q-119 -135 -95 -318q18 -148 126 -268q108 -121 265 -171l1 -3l7 -2q7 -1 21 -4l11 -2q69 -16 136 -16h10h15h15h8h3
q68 0 134 17q241 48 357 228q117 179 83 449q-39 301 -238 499q-199 197 -495 226q-27 3 -45 3q-16 0 -45 -3q-10 -1 -24 -4q-52 -8 -83 -52t-21 -97l1 -2q9 -53 54 -83q44 -29 98 -19q24 5 50 5q124 0 234 -96q110 -94 161 -244q-155 107 -337 107h-17l-9 -1l-8 1h-17
q-223 0 -356 -150z" />
    <glyph glyph-name="Delta" unicode="&#x2206;" horiz-adv-x="1081" 
d="M514 1195l-406 -1072h801zM547 1434l526 -1434h-1067z" />
    <glyph glyph-name="product" unicode="&#x220f;" horiz-adv-x="1515" 
d="M511 1384q-102 0 -102 -235v-1281q0 -235 102 -235h97v-51h-560v51h96q103 0 103 235v1281q0 235 -103 235h-96v50h1419v-50h-97q-102 0 -102 -235v-1281q0 -235 102 -235h97v-50h-560v50h96q103 0 103 235v1281q0 235 -103 235h-492z" />
    <glyph glyph-name="summation" unicode="&#x2211;" horiz-adv-x="1206" 
d="M1059 548l-788 -914h635q130 0 189 182h49l-103 -232h-921v50q62 0 106 53l663 781l-663 859q-44 57 -106 57v50h921l103 -232h-49q-59 182 -189 182h-485z" />
    <glyph glyph-name="minus" unicode="&#x2212;" horiz-adv-x="1014" 
d="M862 809q42 0 72 -26t30 -63v-1q0 -37 -30 -63t-72 -26h-724q-42 0 -72 26t-30 63v1q0 37 30 63t72 26h724z" />
    <glyph glyph-name="radical" unicode="&#x221a;" horiz-adv-x="1014" 
d="M181 0l-164 359l74 35l85 -185l728 1470h150v-60h-72z" />
    <glyph glyph-name="infinity" unicode="&#x221e;" horiz-adv-x="1014" 
d="M439 755q-15 103 -74 133q-46 22 -84 22q-12 0 -23 -2q-49 -10 -92.5 -44.5t-65.5 -84.5q-20 -46 -20 -90v-8q2 -48 27.5 -89t71.5 -58q29 -11 61 -11q16 0 33 3q47 10 90.5 43.5t75.5 185.5zM466 687q12 -96 94 -153q69 -48 123 -48q11 0 21 2q62 12 117.5 52t84.5 101
q26 54 26 108v11q-2 60 -35.5 108.5t-91.5 68.5q-37 13 -76 13q-22 0 -44 -4q-67 -9 -127 -62t-92 -197zM450 827q9 35 21 69q34 88 95 137t128 49t128 -48t95 -135t34 -182t-34 -182t-95 -135t-128 -48t-128 49t-95 136q-12 35 -21 70q-5 -21 -12 -41q-27 -73 -74 -113
t-99 -40t-100 41t-73.5 113.5t-25.5 149.5q0 76 25.5 149t73.5 114t100 41t99 -40t74 -112q7 -21 12 -42z" />
    <glyph glyph-name="integral" unicode="&#x222b;" horiz-adv-x="665" 
d="M-12 -281q-60 0 -60 29v159h36q1 -43 34.5 -64.5t63.5 -21.5h1q82 0 115 162q32 162 40 316l70 734l8 62q27 238 135 429.5t234 191.5q60 0 60 -29v-159h-36q-1 43 -35 64.5t-63 21.5q-71 0 -116 -155.5t-49 -363.5l-73 -767q-20 -231 -130.5 -420t-234.5 -189z" />
    <glyph glyph-name="approxequal" unicode="&#x2248;" horiz-adv-x="1706" 
d="M971 512q-37 0 -74 11q-38 11 -117 51t-125 40q-51 0 -118 -53q-26 -21 -55 -6q-30 15 -30 47q-3 31 9 71q24 79 102 124q39 23 113 23q31 0 66 -10q34 -10 100 -43q67 -33 95 -41t53 -8q7 0 110 54q44 23 75 5q29 -17 30 -59q4 -106 -141 -186q-35 -20 -93 -20zM971 204
q-37 0 -74 11q-38 11 -117 51t-125 40q-51 0 -118 -53q-26 -21 -55 -6q-30 15 -30 47q-3 31 9 71q24 79 102 124q39 23 113 23q31 0 66 -10q34 -10 100 -43q67 -33 95 -41t53 -8q7 0 110 54q44 23 75 5q29 -17 30 -59q4 -106 -141 -186q-35 -20 -93 -20z" />
    <glyph glyph-name="lessequal" unicode="&#x2264;" horiz-adv-x="1454" 
d="M1230 1262q-36 37 -88 37q-25 0 -49 -11l-828 -357q-96 -42 -96 -148q0 -104 96 -146l828 -357q23 -11 49 -11q52 0 88 37q37 37 37 90q0 84 -78 116l-669 272l669 272q78 32 78 118q0 52 -37 88zM1080 179q42 0 72 -26t30 -63v-1q0 -37 -30 -63t-72 -26h-724
q-42 0 -72 26t-30 63v1q0 37 30 63t72 26h724z" />
    <glyph glyph-name="greaterequal" unicode="&#x2265;" horiz-adv-x="1325" 
d="M169 1174q0 -86 78 -118l669 -272l-669 -272q-78 -32 -78 -116q0 -53 37 -90q36 -37 87 -37q26 0 50 11l828 357q96 42 96 146q0 106 -96 148l-828 357q-24 11 -50 11q-51 0 -87 -37q-37 -36 -37 -88zM1080 179q42 0 72 -26t30 -63v-1q0 -37 -30 -63t-72 -26h-724
q-42 0 -72 26t-30 63v1q0 37 30 63t72 26h724z" />
    <glyph glyph-name="uniF001" unicode="&#xf001;" horiz-adv-x="1073" 
 />
    <glyph glyph-name="uniF001" unicode="&#xfb01;" horiz-adv-x="1073" 
 />
    <glyph glyph-name="uniF002" unicode="&#xf002;" horiz-adv-x="1081" 
 />
    <glyph glyph-name="uniF002" unicode="&#xfb02;" horiz-adv-x="1081" 
 />
    </font>
</defs>
</svg>
