<svg id="Group_1_copy" data-name="Group 1 copy" xmlns="http://www.w3.org/2000/svg" width="133" height="152" viewBox="0 0 133 152">
  <metadata><?xpacket begin="﻿" id="W5M0MpCehiHzreSzNTczkc9d"?>
<x:xmpmeta xmlns:x="adobe:ns:meta/" x:xmptk="Adobe XMP Core 5.6-c142 79.160924, 2017/07/13-01:06:39        ">
   <rdf:RDF xmlns:rdf="http://www.w3.org/1999/02/22-rdf-syntax-ns#">
      <rdf:Description rdf:about=""/>
   </rdf:RDF>
</x:xmpmeta>
                                                                                                    
                                                                                                    
                                                                                                    
                                                                                                    
                                                                                                    
                                                                                                    
                                                                                                    
                                                                                                    
                                                                                                    
                                                                                                    
                                                                                                    
                                                                                                    
                                                                                                    
                                                                                                    
                                                                                                    
                                                                                                    
                                                                                                    
                                                                                                    
                                                                                                    
                                                                                                    
                           
<?xpacket end="w"?></metadata>
<defs>
    <style>
      .cls-1 {
        fill: #4c2882;
        fill-rule: evenodd;
      }
    </style>
  </defs>
  <path class="cls-1" d="M20.875,117.078h1.485a1.66,1.66,0,0,0,1.307-.623,2.343,2.343,0,0,0,0-3,1.652,1.652,0,0,0-1.307-.633H20.875v4.261Zm6.582,5.018a1.673,1.673,0,0,1,.16,1.216,1.524,1.524,0,0,1-.677.971l-0.028.021a1.336,1.336,0,0,1-1.109.163,1.43,1.43,0,0,1-.9-0.736l-2.257-4.159-1.777.01v3.311a1.629,1.629,0,0,1-.433,1.145,1.394,1.394,0,0,1-1.062.48H19.342a1.375,1.375,0,0,1-1.062-.48,1.609,1.609,0,0,1-.442-1.145v-10.72A1.7,1.7,0,0,1,18.28,111a1.433,1.433,0,0,1,1.081-.48h3.564a3.5,3.5,0,0,1,.564.051l0.085,0.01a4,4,0,0,1,2.51,1.513,4.627,4.627,0,0,1,1.015,2.964,5.265,5.265,0,0,1-.79,2.7,3.638,3.638,0,0,1-.724.889Zm6.375-5.488a2.411,2.411,0,0,0-1.457.481,2.739,2.739,0,0,0-.94,1.236H36.22a2.68,2.68,0,0,0-.931-1.236,2.411,2.411,0,0,0-1.457-.481h0ZM38,123.6a1.172,1.172,0,0,1-.376.654,1.068,1.068,0,0,1-.677.265q-1.382.011-2.83,0.011c-0.094,0-.188,0-0.282-0.011s-0.188.011-.282,0.011a4.607,4.607,0,0,1-3.46-1.513,5.385,5.385,0,0,1,0-7.307,4.607,4.607,0,0,1,3.46-1.513c0.094,0,.188,0,0.282.01s0.188-.01.282-0.01a4.577,4.577,0,0,1,3.451,1.513A5.116,5.116,0,0,1,39,119.368v0.01a0.956,0.956,0,0,1-.273.684,0.881,0.881,0,0,1-.649.276H31.415a2.645,2.645,0,0,0,.931,1.278,2.416,2.416,0,0,0,1.486.5h3.1a0.983,0.983,0,0,1,.856.449,1.19,1.19,0,0,1,.216,1.012Zm8.7-5.846a1.67,1.67,0,0,0-1.034-.971,2.106,2.106,0,0,0-1.88.092,1.717,1.717,0,0,0-.724.879,3.573,3.573,0,0,0-.254,1.379v0.123a3.369,3.369,0,0,0,.564,1.962,1.661,1.661,0,0,0,1.382.818,1.931,1.931,0,0,0,.959-0.1,1.566,1.566,0,0,0,.987-1.625v-2.555Zm1.711-3.475a1.158,1.158,0,0,1,.884.4,1.361,1.361,0,0,1,.376.97v8.279H49.655a4.4,4.4,0,0,1-1.392,3.413,4.533,4.533,0,0,1-3.1,1.073c-0.088,0-.176,0-0.263-0.01s-0.166.01-.254,0.01q-0.865,0-2.078-.01a1.014,1.014,0,0,1-.893-0.511,1.222,1.222,0,0,1-.132-1.083l0.009-.021a1.02,1.02,0,0,1,1.053-.8Q42.876,126,44.9,126q1.843,0,1.768-2.146a3.972,3.972,0,0,1-2.163.644,4.1,4.1,0,0,1-3.2-1.513,5.7,5.7,0,0,1,0-7.307,4.1,4.1,0,0,1,3.2-1.523,4.01,4.01,0,0,1,2.191.654,0.521,0.521,0,0,1,.15-0.378,0.454,0.454,0,0,1,.348-0.153H48.4Zm4.024,10.251a1.42,1.42,0,0,0,1.081-.491,1.652,1.652,0,0,0,.451-1.175v-6.756a1.676,1.676,0,0,0-.451-1.175,1.419,1.419,0,0,0-1.081-.49H52.4a1.428,1.428,0,0,0-1.091.49,1.7,1.7,0,0,0-.442,1.175v6.756a1.671,1.671,0,0,0,.442,1.175,1.429,1.429,0,0,0,1.091.491h0.028ZM53.962,111.8a1.714,1.714,0,0,0-.47-1.217,1.467,1.467,0,0,0-1.119-.5,1.5,1.5,0,0,0-1.128.5,1.733,1.733,0,0,0-.461,1.217,1.767,1.767,0,0,0,.461,1.226,1.493,1.493,0,0,0,1.128.5,1.464,1.464,0,0,0,1.119-.5,1.748,1.748,0,0,0,.47-1.226h0Zm0.95,11.1a1.146,1.146,0,0,0,.1.828,1.038,1.038,0,0,0,.6.521,6.678,6.678,0,0,0,2.078.317,4.394,4.394,0,0,0,2.99-.93,2.964,2.964,0,0,0,1.006-2.35,3.29,3.29,0,0,0-2.5-3.117,4.926,4.926,0,0,1-1.175-.563,0.743,0.743,0,0,1-.32-0.613q0-.807,1.1-0.807a3.559,3.559,0,0,1,1.044.174,0.891,0.891,0,0,0,.771-0.113,1.02,1.02,0,0,0,.461-0.674l0.009-.021a1.12,1.12,0,0,0-.113-0.828,1.006,1.006,0,0,0-.62-0.49A6.078,6.078,0,0,0,58.691,114a3.971,3.971,0,0,0-2.745.94,3.061,3.061,0,0,0-1.025,2.371q-0.038,2.066,2.651,3.036a3.831,3.831,0,0,1,1.072.531,0.813,0.813,0,0,1,.282.644q0,0.828-1.232.828a4.669,4.669,0,0,1-1.476-.276,0.916,0.916,0,0,0-.809.092,1.086,1.086,0,0,0-.5.7v0.02Zm12.872-1a0.8,0.8,0,0,1,.4.633,1.833,1.833,0,0,1-.094.879,1.307,1.307,0,0,1-1.1,1.125,2.507,2.507,0,0,1-2.388-1.595,8.186,8.186,0,0,1-.621-3.454v-3.025H63.59a0.9,0.9,0,0,1-.686-0.307,1.061,1.061,0,0,1-.282-0.746v-0.02a1.049,1.049,0,0,1,.282-0.736,0.886,0.886,0,0,1,.686-0.317h0.395V113.46a1.541,1.541,0,0,1,.564-1.246,1.278,1.278,0,0,1,1.251-.266l0.038,0.01a1.36,1.36,0,0,1,.762.552,1.619,1.619,0,0,1,.3.95v0.869h0.865a0.877,0.877,0,0,1,.677.317,1.03,1.03,0,0,1,.291.736v0.02a1.042,1.042,0,0,1-.291.746,0.886,0.886,0,0,1-.677.307H66.9V121.4l0.884,0.491h0Zm7.456-7.829a0.5,0.5,0,0,1,.432.225,0.6,0.6,0,0,1,.113.5l-0.216,1.053q-0.141.992-.705,0.879a2.389,2.389,0,0,0-2.426,1.625,2.108,2.108,0,0,0-.028.245v0.01H72.4v4.343a1.571,1.571,0,0,1-.423,1.1,1.327,1.327,0,0,1-1.025.47H70.923a1.327,1.327,0,0,1-1.025-.47,1.571,1.571,0,0,1-.423-1.1v-6.98a1.624,1.624,0,0,1,.423-1.124,1.373,1.373,0,0,1,1.034-.46H70.98a1.8,1.8,0,0,1,1.457,1.032,2.567,2.567,0,0,1,.611-0.746l0.79-.6h1.4Zm6.187,8.105a2.067,2.067,0,0,0,1.645-.838,3.272,3.272,0,0,0,0-3.986,2.049,2.049,0,0,0-3.291,0,3.237,3.237,0,0,0,0,3.986,2.067,2.067,0,0,0,1.645.838h0Zm0.273-8.186a4.551,4.551,0,0,1,3.488,1.574,5.674,5.674,0,0,1,0,7.572A4.551,4.551,0,0,1,81.7,124.7c-0.094,0-.185,0-0.273-0.01s-0.2.01-.291,0.01a4.57,4.57,0,0,1-3.488-1.574,5.7,5.7,0,0,1,0-7.572,4.57,4.57,0,0,1,3.488-1.574c0.094,0,.191,0,0.291.01s0.179-.01.273-0.01h0Zm13.417,5.3a3.386,3.386,0,0,0,.564,1.972,1.665,1.665,0,0,0,1.382.808,1.86,1.86,0,0,0,.959-0.092,1.567,1.567,0,0,0,.987-1.625v-2.555a1.7,1.7,0,0,0-1.034-.981,2.085,2.085,0,0,0-1.88.1,1.665,1.665,0,0,0-.724.879,3.543,3.543,0,0,0-.254,1.369v0.123Zm3.893-4.436v-3.372a1.6,1.6,0,0,1,.433-1.124,1.357,1.357,0,0,1,1.034-.471h0.037a1.359,1.359,0,0,1,1.035.471,1.6,1.6,0,0,1,.432,1.124v12.4a0.673,0.673,0,0,1-.179.47,0.572,0.572,0,0,1-.423.184H99.61a0.553,0.553,0,0,1-.423-0.184,0.658,0.658,0,0,1-.179-0.46v-0.01a4,4,0,0,1-2.191.654,4.107,4.107,0,0,1-3.2-1.513,5.7,5.7,0,0,1,0-7.307,4.107,4.107,0,0,1,3.2-1.513,4,4,0,0,1,2.191.654h0Zm9.261,1.758a2.41,2.41,0,0,0-1.457.481,2.737,2.737,0,0,0-.94,1.236h4.785a2.677,2.677,0,0,0-.93-1.236,2.413,2.413,0,0,0-1.458-.481h0Zm4.165,6.991a1.165,1.165,0,0,1-.376.654,1.066,1.066,0,0,1-.677.265q-1.382.011-2.83,0.011c-0.094,0-.188,0-0.282-0.011s-0.188.011-.282,0.011a4.606,4.606,0,0,1-3.46-1.513,5.385,5.385,0,0,1,0-7.307,4.606,4.606,0,0,1,3.46-1.513c0.094,0,.188,0,0.282.01s0.188-.01.282-0.01A4.578,4.578,0,0,1,112,115.709a5.116,5.116,0,0,1,1.438,3.659v0.01a0.954,0.954,0,0,1-.272.684,0.881,0.881,0,0,1-.649.276h-6.666a2.641,2.641,0,0,0,.931,1.278,2.415,2.415,0,0,0,1.485.5h3.1a0.984,0.984,0,0,1,.856.449,1.193,1.193,0,0,1,.216,1.012ZM45.457,140.216a3.389,3.389,0,0,0,.564,1.973A1.667,1.667,0,0,0,47.4,143a1.85,1.85,0,0,0,.959-0.092,1.566,1.566,0,0,0,.987-1.625v-2.555a1.7,1.7,0,0,0-1.034-.981,2.085,2.085,0,0,0-1.88.1,1.67,1.67,0,0,0-.724.879,3.549,3.549,0,0,0-.254,1.369v0.123Zm3.892-4.435v-3.373a1.6,1.6,0,0,1,.433-1.124,1.359,1.359,0,0,1,1.034-.47h0.038a1.359,1.359,0,0,1,1.034.47,1.6,1.6,0,0,1,.432,1.124v12.4a0.669,0.669,0,0,1-.179.47,0.569,0.569,0,0,1-.423.184H49.952a0.55,0.55,0,0,1-.423-0.184,0.656,0.656,0,0,1-.179-0.46v-0.01a4,4,0,0,1-2.191.654,4.1,4.1,0,0,1-3.2-1.513,5.7,5.7,0,0,1,0-7.307,4.106,4.106,0,0,1,3.2-1.512,4,4,0,0,1,2.191.654h0Zm6.864,4.435a3.389,3.389,0,0,0,.564,1.973A1.667,1.667,0,0,0,58.16,143a1.849,1.849,0,0,0,.959-0.092,1.577,1.577,0,0,0,.987-1.625v-2.555a1.7,1.7,0,0,0-1.034-.981,2.085,2.085,0,0,0-1.88.1,1.67,1.67,0,0,0-.724.879,3.547,3.547,0,0,0-.254,1.369v0.123Zm-2.821.082a5.361,5.361,0,0,1,1.326-3.659,4.106,4.106,0,0,1,3.2-1.512,2.2,2.2,0,0,1,2.191,1.512v-0.01a1.2,1.2,0,0,1,.32-0.838,1.009,1.009,0,0,1,.771-0.348h0.771a1.02,1.02,0,0,1,.78.348,1.21,1.21,0,0,1,.329.848v8.166a0.635,0.635,0,0,1-.179.46,0.558,0.558,0,0,1-.423.194H61.234a1.293,1.293,0,0,1-.762-0.562,0.787,0.787,0,0,0-.489-0.276,0.722,0.722,0,0,0-.536.133,3.1,3.1,0,0,1-1.533.705,4.1,4.1,0,0,1-3.2-1.513,5.344,5.344,0,0,1-1.326-3.648h0Zm15.843,2.524a0.8,0.8,0,0,1,.4.634,1.835,1.835,0,0,1-.094.879,1.307,1.307,0,0,1-1.1,1.124,2.507,2.507,0,0,1-2.388-1.594,8.2,8.2,0,0,1-.621-3.455v-3.025H65.042a0.9,0.9,0,0,1-.686-0.306,1.063,1.063,0,0,1-.282-0.746v-0.021a1.05,1.05,0,0,1,.282-0.736,0.886,0.886,0,0,1,.686-0.317h0.395v-0.868A1.542,1.542,0,0,1,66,133.144a1.28,1.28,0,0,1,1.251-.266l0.038,0.01a1.361,1.361,0,0,1,.762.552,1.62,1.62,0,0,1,.3.951v0.868h0.865a0.877,0.877,0,0,1,.677.317,1.032,1.032,0,0,1,.291.736v0.021a1.044,1.044,0,0,1-.291.746,0.889,0.889,0,0,1-.677.306H68.352v4.947l0.884,0.49h0Zm6.788,0.276a2.064,2.064,0,0,0,1.645-.838,3.272,3.272,0,0,0,0-3.986,2.05,2.05,0,0,0-3.291,0,3.237,3.237,0,0,0,0,3.986,2.064,2.064,0,0,0,1.645.838h0Zm0.273-8.186a4.554,4.554,0,0,1,3.488,1.574,5.675,5.675,0,0,1,0,7.573,4.554,4.554,0,0,1-3.488,1.574c-0.094,0-.185,0-0.273-0.011s-0.2.011-.291,0.011a4.573,4.573,0,0,1-3.488-1.574,5.7,5.7,0,0,1,0-7.573,4.573,4.573,0,0,1,3.488-1.574c0.094,0,.191,0,0.291.01s0.179-.01.273-0.01h0Zm5.641,8.912a1.146,1.146,0,0,0,.1.828,1.042,1.042,0,0,0,.6.521,6.707,6.707,0,0,0,2.078.317,4.395,4.395,0,0,0,2.99-.93,2.966,2.966,0,0,0,1.006-2.351,3.29,3.29,0,0,0-2.5-3.117,4.932,4.932,0,0,1-1.175-.562,0.745,0.745,0,0,1-.32-0.613q0-.809,1.1-0.808a3.558,3.558,0,0,1,1.044.174,0.891,0.891,0,0,0,.771-0.112A1.024,1.024,0,0,0,88.1,136.5l0.009-.02a1.119,1.119,0,0,0-.113-0.828,1,1,0,0,0-.621-0.491,6.078,6.078,0,0,0-1.655-.225,3.967,3.967,0,0,0-2.746.941,3.059,3.059,0,0,0-1.025,2.371q-0.038,2.064,2.652,3.035a3.887,3.887,0,0,1,1.072.531,0.814,0.814,0,0,1,.282.644q0,0.828-1.232.828a4.669,4.669,0,0,1-1.476-.276,0.919,0.919,0,0,0-.809.092,1.086,1.086,0,0,0-.5.7v0.021ZM33.144,92.074c0.631,0.109,1.26.229,1.894,0.321a0.275,0.275,0,0,1,.282.392c-0.377,2.286-.738,4.574-1.1,6.862q-0.509,3.176-1.02,6.35H3c0.261-1.576.528-3.151,0.783-4.727q0.953-5.882,1.9-11.764c0.071-.441.153-0.88,0.2-1.323a0.3,0.3,0,0,1,.432-0.308C6.99,88,7.668,88.085,8.345,88.186c0.142,0.03.283,0.066,0.426,0.089q2.842,0.45,5.684.9L21.9,90.348q3.745,0.59,7.49,1.175C30.641,91.716,31.893,91.891,33.144,92.074ZM9.523,96.148a1.555,1.555,0,1,0-1.571-1.564A1.561,1.561,0,0,0,9.523,96.148Zm0.576,4.667A1.542,1.542,0,0,0,8.556,99.23a1.568,1.568,0,0,0-1.605,1.535,1.587,1.587,0,0,0,1.577,1.574A1.561,1.561,0,0,0,10.1,100.815ZM96.563,106c-0.969-1.866-1.93-3.736-2.914-5.594-0.174-.329-0.157-0.491.2-0.656,0.593-.27,1.161-0.594,1.739-0.895,0.119-.052.242-0.1,0.358-0.155q7.353-3.695,14.7-7.393c2.43-1.224,4.853-2.462,7.279-3.694,0.535-.263,1.08-0.507,1.6-0.8,0.319-.176.473-0.165,0.657,0.191q3.088,5.982,6.209,11.948,1.73,3.321,3.462,6.642a0.645,0.645,0,0,1,.135.4H96.563Zm5.351-2.634a1.561,1.561,0,0,0-1.567-1.572,1.59,1.59,0,0,0-1.582,1.571,1.566,1.566,0,0,0,1.559,1.538A1.54,1.54,0,0,0,101.914,103.366ZM93.883,90.71c-0.824-1.635-1.129-2.056-1.94-3.7a0.418,0.418,0,0,0-.58-0.295,3.686,3.686,0,0,1-1.946.006,6.2,6.2,0,0,0-1.689-.133c-3.95.049-7.9,0.1-11.85,0.128a3.33,3.33,0,0,1-.181-6.657c2.594-.062,5.189-0.072,7.783-0.1,0.171,0,.342,0,0.577,0-0.173-.37-0.31-0.681-0.462-0.984q-1.917-3.827-3.839-7.652A2.786,2.786,0,0,0,79.6,71.07a29.736,29.736,0,0,0-1.4-2.766,0.778,0.778,0,0,0-.152-0.4q-1.568-3.133-3.14-6.265c-1.273-2.539-2.554-5.074-3.817-7.618a3.3,3.3,0,0,1,.729-4.061,3.4,3.4,0,0,1,5.315,1.065c1.7,3.355,3.382,6.723,5.074,10.085a0.683,0.683,0,0,0,.279.394,3.222,3.222,0,0,1-.061-0.972,3.381,3.381,0,0,1,2.814-3.009,3.431,3.431,0,0,1,3.618,1.864c0.129,0.245.253,0.493,0.379,0.74a0.427,0.427,0,0,0,.04-0.284,3.235,3.235,0,0,1,1.411-3.23,7.7,7.7,0,0,1,.914-0.494A3.664,3.664,0,0,1,94.8,56.8a3.817,3.817,0,0,1,.932,1.235c0.217,0.424.431,0.849,0.646,1.273a0.287,0.287,0,0,0,.069-0.246,3.337,3.337,0,0,1,1.881-3.52,4.5,4.5,0,0,1,2.183-.284,4.257,4.257,0,0,1,2.659,2.484c2.4,4.809,4.839,9.6,7.281,14.382a4.547,4.547,0,0,1,.056,4.423c-0.047.089-.2,0.227,0.071,0.25a0.3,0.3,0,0,1,.125.163c0.9,1.791,1.263,2.373,2.156,4.165a0.753,0.753,0,0,1-.38.276q-4.459,2.246-8.92,4.491-4.269,2.143-8.543,4.274A4.744,4.744,0,0,1,93.883,90.71Zm6.544-36.486a4.494,4.494,0,0,0-2.182.284c-1.342.646-2.292,1.56-2.056,3a0.288,0.288,0,0,1-.069.246,7.215,7.215,0,0,0-1.4-1.99c-0.949-.792-4.042-0.9-5.208-0.681,0-.187-0.007-0.893-0.007-1.08,0-10.616,0-19.675.009-30.291,0-.4-0.1-0.494-0.5-0.494-22.035.009-40.071,0.009-62.106,0-0.387,0-.517.079-0.517,0.491Q26.4,43.068,26.4,62.427a2.045,2.045,0,0,1-.585-0.509c-1.007-.963-4.225-1.459-5.606-1.546-0.41-.026-0.525-0.15-0.5-0.535,0.107-1.533.188-3.067,0.29-4.6,0.071-1.074.148-2.148,0.243-3.221a5.139,5.139,0,0,0-1.09-3.969,2.022,2.022,0,0,1-.644-1.345c0-.187.014-0.374,0.014-0.561q0-11.345,0-22.69A2.251,2.251,0,0,1,20.2,21.066,2.822,2.822,0,0,1,20.934,21q38.55,0,77.1,0a2.189,2.189,0,0,1,2.4,2.364c0,10.56,0,20.083,0,30.642C100.435,54.08,100.43,54.152,100.427,54.224Zm-4.317-8.48A2.25,2.25,0,1,0,98.4,47.987,2.188,2.188,0,0,0,96.11,45.744ZM18.187,48.912a5.835,5.835,0,0,1,1.09,3.969c-0.095,1.072-.172,2.146-0.243,3.221-0.1,1.533-.183,3.067-0.29,4.6-0.027.385,0.088,0.51,0.5,0.535A5.785,5.785,0,0,1,24.618,67.1a6.69,6.69,0,0,1-2.188,4.576h1.88q6.641,0,13.282.009c0.932,0,1.864.01,2.8,0.016a19.474,19.474,0,0,1-6.6,7.363,0.829,0.829,0,0,0-.324.617c-0.32,1.828-.466,2.7-0.787,4.532-0.145-.013-0.291-0.017-0.434-0.04-1.15-.182-2.3-0.372-3.449-0.552q-5.153-.808-10.307-1.611-3.45-.54-6.9-1.087c0.318-1.784.436-2.621,0.786-4.4,0.457-2.325-.419-3.817-0.261-6.169q0.375-5.575.747-11.151c0.222-3.4.432-6.807,0.647-10.211,0.042-.661.1-1.321,0.122-1.982,0.009-.344.137-0.448,0.468-0.388A5.667,5.667,0,0,1,18.187,48.912ZM94.321,91.92a4.749,4.749,0,0,0,1.137-.541q4.273-2.133,8.543-4.274,4.462-2.24,8.921-4.491a0.753,0.753,0,0,0,.38-0.276,1.542,1.542,0,0,0,.677-0.27,0.932,0.932,0,0,1,1.324.438c0.885,1.7,1.318,2.54,2.194,4.242-2.426,1.232-4.849,2.47-7.278,3.695q-7.35,3.7-14.706,7.393c-0.116.058-.239,0.1-0.358,0.155-0.885-1.7-1.34-2.53-2.214-4.234a0.916,0.916,0,0,1,.431-1.316A5.969,5.969,0,0,0,94.321,91.92ZM11.411,81.872q3.45,0.544,6.9,1.087,5.154,0.807,10.308,1.611c1.15,0.18,2.3.37,3.449,0.552,0.143,0.023.289,0.027,0.434,0.039,0.242,0.049.484,0.1,0.725,0.148a0.919,0.919,0,0,1,.825,1.148c-0.233,1.476-.473,2.951-0.711,4.426-0.064.4-.13,0.275-0.2,0.672-1.251-.183-2.5-0.358-3.752-0.551q-3.746-.579-7.49-1.175l-7.446-1.176q-2.842-.449-5.684-0.9c-0.143-.023-0.284-0.059-0.426-0.089,0.292-1.818.587-3.117,0.876-4.936a1.033,1.033,0,0,1,1.37-.985C10.864,81.793,11.138,81.831,11.411,81.872ZM40.388,71.094c-0.932-.005-1.864-0.015-2.8-0.016q-6.641-.006-13.282-0.009H23.722c0.745-.888,1.2-2.812,1.6-3.765l33.982,0c6.269,0,10.874,0,17.143,0,0.523,0.894.976,2.824,1.4,3.766-0.189,0-24.2.012-36.845,0.013C40.8,71.082,40.592,71.09,40.388,71.094Z"/>
</svg>
