<svg xmlns="http://www.w3.org/2000/svg" width="133" height="152" viewBox="0 0 133 152">
  <metadata><?xpacket begin="﻿" id="W5M0MpCehiHzreSzNTczkc9d"?>
<x:xmpmeta xmlns:x="adobe:ns:meta/" x:xmptk="Adobe XMP Core 5.6-c142 79.160924, 2017/07/13-01:06:39        ">
   <rdf:RDF xmlns:rdf="http://www.w3.org/1999/02/22-rdf-syntax-ns#">
      <rdf:Description rdf:about=""/>
   </rdf:RDF>
</x:xmpmeta>
                                                                                                    
                                                                                                    
                                                                                                    
                                                                                                    
                                                                                                    
                                                                                                    
                                                                                                    
                                                                                                    
                                                                                                    
                                                                                                    
                                                                                                    
                                                                                                    
                                                                                                    
                                                                                                    
                                                                                                    
                                                                                                    
                                                                                                    
                                                                                                    
                                                                                                    
                                                                                                    
                           
<?xpacket end="w"?></metadata>
<defs>
    <style>
      .cls-1 {
        fill: #4c2882;
        fill-rule: evenodd;
      }
    </style>
  </defs>
  <path id="Comunicación_directa" data-name="Comunicación directa" class="cls-1" d="M60.338,84.406a1.417,1.417,0,0,0-.964-0.789,2.442,2.442,0,0,0-1.785.228,12.723,12.723,0,0,1-8.518,1.1,7.029,7.029,0,0,1-5.156-4.04c-0.319-.692-0.666-1.371-1-2.057a20.825,20.825,0,0,0-2.84-4.877,14.127,14.127,0,0,0-13.533-4.779,21.282,21.282,0,0,0-9.231,3.944,37.347,37.347,0,0,0-8.235,8.415,29.274,29.274,0,0,0-5.846,21.509,2.068,2.068,0,0,0,2.139,1.925q2.647,0.025,5.295,0a2.076,2.076,0,0,0,2.167-2.27,16.45,16.45,0,0,1,.293-3.678,19.159,19.159,0,0,1,5.183-9.877,10.322,10.322,0,0,1,1.49-1.3c0,4.184,0,8.286,0,12.388a1.287,1.287,0,0,0,1.457,1.465q9.1,0,18.2,0a1.277,1.277,0,0,0,1.444-1.434c0-2.245,0-4.49,0-6.813l0.453,0.26a16.081,16.081,0,0,0,7.748,2.441,25.81,25.81,0,0,0,12.888-3.131A2.084,2.084,0,0,0,63,90C62.112,88.132,61.213,86.275,60.338,84.406Zm67.831,3.58a33.226,33.226,0,0,0-11.586-15.309,17.163,17.163,0,0,0-17.242-2.432,21.707,21.707,0,0,0-12.22,11.529,34.141,34.141,0,0,0-2.7,8.826,67.148,67.148,0,0,0-.993,9.408,1.679,1.679,0,0,0,1.761,1.884c1.6,0.043,3.193.038,4.789,0a1.8,1.8,0,0,0,1.882-1.662,4.741,4.741,0,0,0,.051-0.578A44.774,44.774,0,0,1,92.67,92.6a14.2,14.2,0,0,1,1.374-3.946,2.413,2.413,0,0,1,.6-0.771c0,0.233,0,.381,0,0.529q-0.012,5.882-.024,11.765a1.331,1.331,0,0,0,1.53,1.53q8.781,0,17.563,0a1.306,1.306,0,0,0,1.485-1.485V87.859a10.5,10.5,0,0,1,3,3.885,23.555,23.555,0,0,1,1.913,10.859,2.119,2.119,0,0,0,2.069,2.369q2.751,0.05,5.5,0a2.055,2.055,0,0,0,2.048-1.929c0.071-.717.138-1.434,0.188-2.152A30.7,30.7,0,0,0,128.169,87.986ZM45.036,43.035c1.043,0.087,2.1.041,3.149,0.033,0.307,0,.369.064,0.3,0.372-0.391,1.756-.761,3.517-1.13,5.277a1.159,1.159,0,0,0,.572,1.346,1.422,1.422,0,0,0,1.561-.2q3.435-3.239,6.863-6.486a1.028,1.028,0,0,1,.778-0.3q5.211,0.014,10.422,0a5.152,5.152,0,0,0,5.1-5.037q0.007-6.071,0-12.142a4.537,4.537,0,0,0-.987-2.855,5.129,5.129,0,0,0-4.218-2.032c-3.642-.012-7.284,0-10.926,0s-7.256,0-10.884,0a5.551,5.551,0,0,0-1.208.12,4.832,4.832,0,0,0-3.854,4.759q0,5.988,0,11.975a7.059,7.059,0,0,0,.064.952A4.877,4.877,0,0,0,45.036,43.035Zm41.23,16.256a1.224,1.224,0,0,0,.569-1.47L85.85,53.236c-0.2-.931-0.2-0.924.779-0.933a17.187,17.187,0,0,0,2.935-.081,4.968,4.968,0,0,0,4.069-5.039q0.031-6.007,0-12.014a4.828,4.828,0,0,0-5.075-4.936h-6.6c-2.339,0-4.677.01-7.016-.01-0.384,0-.456.108-0.454,0.463q0.022,4.282.006,8.564a5.864,5.864,0,0,1-5.879,5.812c-2.227,0-4.453.005-6.68-.006-0.288,0-.388.067-0.376,0.365,0.023,0.609.015,1.219,0.005,1.829a4.643,4.643,0,0,0,1.011,2.972,5.279,5.279,0,0,0,4.484,2.091c3.361-.023,6.722-0.006,10.083-0.008a0.788,0.788,0,0,1,.609.2q3.439,3.264,6.892,6.512A1.447,1.447,0,0,0,86.267,59.291Zm-55.95,7.568A10.6,10.6,0,0,0,40.978,56.5,10.809,10.809,0,0,0,30.326,46.06a10.294,10.294,0,0,0-10.36,10.423A10.141,10.141,0,0,0,30.316,66.859Zm75.117,0A10.117,10.117,0,0,0,115.879,56.5,10.273,10.273,0,0,0,105.6,46.06c-5.723-.005-10.7,4.82-10.708,10.377A10.588,10.588,0,0,0,105.433,66.859ZM15.5,122.1a1.329,1.329,0,0,1-.038,2.484,8.412,8.412,0,0,1-1.862.3,3.013,3.013,0,0,1-.3.02h-0.31a3.011,3.011,0,0,1-.3-0.02,6.776,6.776,0,0,1-4.917-2.146,6.955,6.955,0,0,1-1.655-4.8,6.935,6.935,0,0,1,6.572-7.318c0.207-.02.36-0.031,0.461-0.031s0.251,0.011.451,0.031a8.578,8.578,0,0,1,1.9.409,1.108,1.108,0,0,1,.79,1.185,1.135,1.135,0,0,1-.809,1.186l-0.038.01a1.067,1.067,0,0,1-.827-0.071,3.2,3.2,0,0,0-1.467-.358,3.431,3.431,0,0,0-2.745,1.4,5.553,5.553,0,0,0,0,6.735,3.431,3.431,0,0,0,2.745,1.4,3.211,3.211,0,0,0,1.448-.347,1.1,1.1,0,0,1,.865-0.072Zm7.061,0.072a2.067,2.067,0,0,0,1.645-.838,3.272,3.272,0,0,0,0-3.986,2.049,2.049,0,0,0-3.291,0,3.237,3.237,0,0,0,0,3.986,2.067,2.067,0,0,0,1.645.838h0Zm0.273-8.186a4.551,4.551,0,0,1,3.488,1.574,5.674,5.674,0,0,1,0,7.572,4.551,4.551,0,0,1-3.488,1.574c-0.094,0-.185,0-0.273-0.01s-0.2.01-.291,0.01a4.57,4.57,0,0,1-3.488-1.574,5.7,5.7,0,0,1,0-7.572,4.57,4.57,0,0,1,3.488-1.574c0.094,0,.191,0,0.291.01s0.179-.01.273-0.01h0Zm21.146,9.075a1.506,1.506,0,0,1-.395,1.042,1.256,1.256,0,0,1-.959.43H42.594a1.256,1.256,0,0,1-.959-0.43,1.506,1.506,0,0,1-.395-1.042V118.5a1.765,1.765,0,0,0-.5-1.267,1.5,1.5,0,0,0-1.185-.5,1.472,1.472,0,0,0-1.119.572,1.92,1.92,0,0,0-.451,1.267v4.487a1.507,1.507,0,0,1-.395,1.042,1.276,1.276,0,0,1-.959.43H36.361a1.257,1.257,0,0,1-.959-0.43,1.487,1.487,0,0,1-.4-1.042V118.5a1.784,1.784,0,0,0-.489-1.267,1.514,1.514,0,0,0-1.185-.5,1.472,1.472,0,0,0-1.119.572,1.92,1.92,0,0,0-.451,1.267v4.487a1.487,1.487,0,0,1-.4,1.042,1.257,1.257,0,0,1-.959.43H30.183a1.275,1.275,0,0,1-.959-0.43,1.507,1.507,0,0,1-.395-1.042v-7.645A1.019,1.019,0,0,1,29.1,114.7a0.861,0.861,0,0,1,.668-0.307H30.86a0.852,0.852,0,0,1,.658.307,1.02,1.02,0,0,1,.273.715v0.011a2.32,2.32,0,0,0,.3-0.286q0.254-.276.357-0.368a2.149,2.149,0,0,1,1.015-.573,3.117,3.117,0,0,1,3.714,1.717h0.066a5.761,5.761,0,0,1,2.209-1.717,3.057,3.057,0,0,1,3.413,1.237,6.448,6.448,0,0,1,1.109,3.894v3.73Zm1.307-7.338a1.575,1.575,0,0,1,.423-1.1,1.334,1.334,0,0,1,1.016-.46H46.75a1.344,1.344,0,0,1,1.025.46,1.575,1.575,0,0,1,.423,1.1v3.853a2.278,2.278,0,0,0,.884,2.2,1.778,1.778,0,0,0,1.927-.174A2,2,0,0,0,52,120.318a2.18,2.18,0,0,0,.028-0.245c0,0.007,0,0,.009-0.011v-4.343a1.575,1.575,0,0,1,.423-1.1,1.344,1.344,0,0,1,1.025-.46H53.52a1.344,1.344,0,0,1,1.025.46,1.575,1.575,0,0,1,.423,1.1v7.542a1.035,1.035,0,0,1-.282.726,0.871,0.871,0,0,1-.667.3H52.937a0.861,0.861,0,0,1-.658-0.3A1,1,0,0,1,52,123.272v-0.011a11.51,11.51,0,0,1-2.191,1.227,3.065,3.065,0,0,1-3.413-1.247,6.427,6.427,0,0,1-1.109-3.884v-3.638Zm20.732,7.307a1.575,1.575,0,0,1-.423,1.1,1.341,1.341,0,0,1-1.025.46H64.539a1.331,1.331,0,0,1-1.015-.46,1.575,1.575,0,0,1-.423-1.1v-3.853a2.279,2.279,0,0,0-.884-2.2,1.777,1.777,0,0,0-1.928.174,2.039,2.039,0,0,0-1,1.277,2.1,2.1,0,0,0-.028.246l-0.009.01v4.343a1.575,1.575,0,0,1-.423,1.1,1.331,1.331,0,0,1-1.015.46H57.77a1.331,1.331,0,0,1-1.016-.46,1.575,1.575,0,0,1-.423-1.1v-7.542a1.034,1.034,0,0,1,.273-0.726,0.889,0.889,0,0,1,.677-0.306h1.081a0.851,0.851,0,0,1,.658.306,1.021,1.021,0,0,1,.273.716v0.01a11.223,11.223,0,0,1,2.2-1.226,3.075,3.075,0,0,1,3.413,1.236,6.518,6.518,0,0,1,1.1,3.894Zm2.783,1.5a1.419,1.419,0,0,0,1.081-.491,1.652,1.652,0,0,0,.451-1.175v-6.756a1.676,1.676,0,0,0-.451-1.175,1.418,1.418,0,0,0-1.081-.49H68.77a1.428,1.428,0,0,0-1.091.49,1.7,1.7,0,0,0-.442,1.175v6.756a1.671,1.671,0,0,0,.442,1.175,1.429,1.429,0,0,0,1.091.491H68.8ZM70.331,111.8a1.714,1.714,0,0,0-.47-1.217,1.467,1.467,0,0,0-1.119-.5,1.5,1.5,0,0,0-1.128.5,1.733,1.733,0,0,0-.461,1.217,1.767,1.767,0,0,0,.461,1.226,1.493,1.493,0,0,0,1.128.5,1.464,1.464,0,0,0,1.119-.5,1.748,1.748,0,0,0,.47-1.226h0Zm8.434,11.517a1.214,1.214,0,0,1-.207.7,0.963,0.963,0,0,1-.555.409,5.075,5.075,0,0,1-1.467.215,5.167,5.167,0,1,1,0-10.333,5.075,5.075,0,0,1,1.467.215,1.028,1.028,0,0,1,.555.409,1.246,1.246,0,0,1,.207.7V115.7a1.142,1.142,0,0,1-.395.9,0.962,0.962,0,0,1-.9.225,3.169,3.169,0,0,0-1.984.194,1.784,1.784,0,0,0-.884.879,2.916,2.916,0,0,0-.32,1.369v0.123a2.878,2.878,0,0,0,.705,1.962,2.136,2.136,0,0,0,1.683.818,2.876,2.876,0,0,0,.865-0.031,0.966,0.966,0,0,1,.856.266,1.147,1.147,0,0,1,.376.879v0.03Zm3.836-4.026a3.386,3.386,0,0,0,.564,1.972,1.665,1.665,0,0,0,1.382.808,1.86,1.86,0,0,0,.959-0.092,1.578,1.578,0,0,0,.987-1.625v-2.555a1.7,1.7,0,0,0-1.034-.981,2.085,2.085,0,0,0-1.88.1,1.665,1.665,0,0,0-.724.879,3.543,3.543,0,0,0-.254,1.369v0.123Zm-2.821.082a5.359,5.359,0,0,1,1.326-3.659,4.107,4.107,0,0,1,3.2-1.513,2.2,2.2,0,0,1,2.191,1.513V115.7a1.192,1.192,0,0,1,.32-0.838,1.009,1.009,0,0,1,.771-0.348h0.771a1.02,1.02,0,0,1,.78.348,1.209,1.209,0,0,1,.329.848v8.166a0.633,0.633,0,0,1-.179.459,0.556,0.556,0,0,1-.423.195H87.622a1.3,1.3,0,0,1-.762-0.563,0.791,0.791,0,0,0-.489-0.275,0.721,0.721,0,0,0-.536.132,3.091,3.091,0,0,1-1.533.706,4.107,4.107,0,0,1-3.2-1.513,5.343,5.343,0,0,1-1.326-3.648h0Zm18.212,3.944a1.214,1.214,0,0,1-.207.7,0.963,0.963,0,0,1-.555.409,5.075,5.075,0,0,1-1.467.215,5.167,5.167,0,1,1,0-10.333,5.075,5.075,0,0,1,1.467.215,1.028,1.028,0,0,1,.555.409,1.246,1.246,0,0,1,.207.7V115.7a1.142,1.142,0,0,1-.395.9,0.962,0.962,0,0,1-.9.225,3.169,3.169,0,0,0-1.984.194,1.784,1.784,0,0,0-.884.879,2.916,2.916,0,0,0-.32,1.369v0.123a2.878,2.878,0,0,0,.705,1.962,2.136,2.136,0,0,0,1.683.818,2.876,2.876,0,0,0,.865-0.031,0.966,0.966,0,0,1,.856.266,1.147,1.147,0,0,1,.376.879v0.03Zm2.773,1.217a1.421,1.421,0,0,0,1.082-.491,1.655,1.655,0,0,0,.451-1.175v-6.756a1.679,1.679,0,0,0-.451-1.175,1.42,1.42,0,0,0-1.082-.49h-0.028a1.428,1.428,0,0,0-1.091.49,1.7,1.7,0,0,0-.442,1.175v6.756a1.671,1.671,0,0,0,.442,1.175,1.429,1.429,0,0,0,1.091.491h0.028ZM102.3,111.8a1.716,1.716,0,0,0-.47-1.217,1.466,1.466,0,0,0-1.119-.5,1.5,1.5,0,0,0-1.128.5,1.733,1.733,0,0,0-.461,1.217,1.768,1.768,0,0,0,.461,1.226,1.493,1.493,0,0,0,1.128.5,1.464,1.464,0,0,0,1.119-.5,1.749,1.749,0,0,0,.47-1.226h0Zm6.346,10.373a2.068,2.068,0,0,0,1.646-.838,3.272,3.272,0,0,0,0-3.986,2.049,2.049,0,0,0-3.291,0,3.238,3.238,0,0,0,0,3.986,2.067,2.067,0,0,0,1.645.838h0Zm0.273-8.186a4.55,4.55,0,0,1,3.488,1.574,5.674,5.674,0,0,1,0,7.572,4.55,4.55,0,0,1-3.488,1.574c-0.094,0-.185,0-0.273-0.01s-0.2.01-.291,0.01a4.569,4.569,0,0,1-3.488-1.574,5.7,5.7,0,0,1,0-7.572,4.569,4.569,0,0,1,3.488-1.574c0.094,0,.191,0,0.291.01s0.179-.01.273-0.01h0Zm-1.006-.695a0.274,0.274,0,0,0-.066.255,0.168,0.168,0,0,0,.179.133h1.166a0.28,0.28,0,0,0,.2-0.092l1.852-1.564a0.527,0.527,0,0,0,.179-0.5,0.311,0.311,0,0,0-.338-0.276H109.8a0.555,0.555,0,0,0-.433.225Zm17.338,9.739a1.575,1.575,0,0,1-.423,1.1,1.341,1.341,0,0,1-1.025.46h-0.028a1.332,1.332,0,0,1-1.016-.46,1.575,1.575,0,0,1-.423-1.1v-3.853a2.28,2.28,0,0,0-.884-2.2,1.776,1.776,0,0,0-1.927.174,2.042,2.042,0,0,0-1,1.277,2.225,2.225,0,0,0-.028.246l-0.009.01v4.343a1.575,1.575,0,0,1-.423,1.1,1.333,1.333,0,0,1-1.016.46H117a1.33,1.33,0,0,1-1.015-.46,1.575,1.575,0,0,1-.423-1.1v-7.542a1.033,1.033,0,0,1,.272-0.726,0.889,0.889,0,0,1,.677-0.306H117.6a0.853,0.853,0,0,1,.659.306,1.023,1.023,0,0,1,.272.716v0.01a11.239,11.239,0,0,1,2.2-1.226,3.075,3.075,0,0,1,3.413,1.236,6.523,6.523,0,0,1,1.1,3.894Zm-85.913,17.19a3.389,3.389,0,0,0,.564,1.973,1.667,1.667,0,0,0,1.382.807,1.85,1.85,0,0,0,.959-0.092,1.566,1.566,0,0,0,.987-1.625v-2.555a1.7,1.7,0,0,0-1.034-.981,2.085,2.085,0,0,0-1.88.1,1.67,1.67,0,0,0-.724.879,3.549,3.549,0,0,0-.254,1.369v0.123Zm3.892-4.435v-3.373a1.6,1.6,0,0,1,.432-1.124,1.359,1.359,0,0,1,1.034-.47h0.038a1.359,1.359,0,0,1,1.034.47,1.6,1.6,0,0,1,.432,1.124v12.4a0.669,0.669,0,0,1-.179.47,0.569,0.569,0,0,1-.423.184H43.831a0.55,0.55,0,0,1-.423-0.184,0.656,0.656,0,0,1-.179-0.46v-0.01a4,4,0,0,1-2.191.654,4.1,4.1,0,0,1-3.2-1.513,5.7,5.7,0,0,1,0-7.307,4.106,4.106,0,0,1,3.2-1.512,4,4,0,0,1,2.191.654h0Zm5.8,9.678a1.42,1.42,0,0,0,1.081-.491,1.652,1.652,0,0,0,.451-1.175v-6.755a1.676,1.676,0,0,0-.451-1.176,1.419,1.419,0,0,0-1.081-.49H49a1.428,1.428,0,0,0-1.091.49,1.7,1.7,0,0,0-.442,1.176v6.755a1.671,1.671,0,0,0,.442,1.175,1.429,1.429,0,0,0,1.091.491H49.03Zm1.533-12.734a1.712,1.712,0,0,0-.47-1.216,1.464,1.464,0,0,0-1.119-.5,1.493,1.493,0,0,0-1.128.5,1.731,1.731,0,0,0-.461,1.216,1.766,1.766,0,0,0,.461,1.226,1.493,1.493,0,0,0,1.128.5,1.464,1.464,0,0,0,1.119-.5,1.746,1.746,0,0,0,.47-1.226h0Zm6.732,2.269a0.5,0.5,0,0,1,.433.225,0.6,0.6,0,0,1,.113.5l-0.216,1.053q-0.141.992-.705,0.879a2.389,2.389,0,0,0-2.426,1.625,2.091,2.091,0,0,0-.028.245v0.01H54.455v4.344a1.575,1.575,0,0,1-.423,1.1,1.331,1.331,0,0,1-1.025.47H52.979a1.331,1.331,0,0,1-1.025-.47,1.575,1.575,0,0,1-.423-1.1V136.9a1.627,1.627,0,0,1,.423-1.125,1.372,1.372,0,0,1,1.034-.459h0.047a1.8,1.8,0,0,1,1.457,1.032A2.552,2.552,0,0,1,55.1,135.6l0.79-.6h1.4Zm6.271,2.544a2.417,2.417,0,0,0-1.457.481,2.739,2.739,0,0,0-.94,1.236h4.786a2.68,2.68,0,0,0-.931-1.236,2.418,2.418,0,0,0-1.457-.481h0Zm4.165,6.991a1.165,1.165,0,0,1-.376.654,1.069,1.069,0,0,1-.677.266q-1.382.009-2.83,0.01c-0.094,0-.188,0-0.282-0.01s-0.188.01-.282,0.01a4.6,4.6,0,0,1-3.46-1.513,5.384,5.384,0,0,1,0-7.307,4.605,4.605,0,0,1,3.46-1.512c0.094,0,.188,0,0.282.01s0.188-.01.282-0.01a4.576,4.576,0,0,1,3.451,1.512,5.118,5.118,0,0,1,1.438,3.659v0.01a0.959,0.959,0,0,1-.273.685,0.881,0.881,0,0,1-.649.276H61.15a2.646,2.646,0,0,0,.931,1.277,2.416,2.416,0,0,0,1.486.5h3.1a0.982,0.982,0,0,1,.856.45,1.187,1.187,0,0,1,.216,1.011Zm9.553-.286a1.216,1.216,0,0,1-.207.695,0.966,0.966,0,0,1-.555.408,5.041,5.041,0,0,1-1.467.215,5.166,5.166,0,1,1,0-10.332,5.074,5.074,0,0,1,1.467.214,1.038,1.038,0,0,1,.555.409,1.246,1.246,0,0,1,.207.695v0.082a1.14,1.14,0,0,1-.395.9,0.962,0.962,0,0,1-.9.225,3.169,3.169,0,0,0-1.984.194,1.784,1.784,0,0,0-.884.879,2.92,2.92,0,0,0-.32,1.37v0.122a2.883,2.883,0,0,0,.705,1.963,2.135,2.135,0,0,0,1.683.817,2.876,2.876,0,0,0,.865-0.031,0.969,0.969,0,0,1,.856.266,1.146,1.146,0,0,1,.376.879v0.031Zm6.149-1.421a0.8,0.8,0,0,1,.4.634,1.833,1.833,0,0,1-.094.879,1.307,1.307,0,0,1-1.1,1.124,2.508,2.508,0,0,1-2.388-1.594,8.2,8.2,0,0,1-.621-3.455v-3.025H79.24a0.9,0.9,0,0,1-.686-0.306,1.063,1.063,0,0,1-.282-0.746v-0.021a1.051,1.051,0,0,1,.282-0.736,0.886,0.886,0,0,1,.686-0.317h0.395v-0.868a1.541,1.541,0,0,1,.564-1.247,1.28,1.28,0,0,1,1.25-.266l0.038,0.01a1.36,1.36,0,0,1,.762.552,1.619,1.619,0,0,1,.3.951v0.868h0.865a0.877,0.877,0,0,1,.677.317,1.032,1.032,0,0,1,.291.736v0.021a1.044,1.044,0,0,1-.291.746,0.889,0.889,0,0,1-.677.306H82.549v4.947l0.884,0.49h0Zm4.475-2.606a3.389,3.389,0,0,0,.564,1.973,1.667,1.667,0,0,0,1.382.807,1.849,1.849,0,0,0,.959-0.092,1.577,1.577,0,0,0,.987-1.625v-2.555a1.7,1.7,0,0,0-1.034-.981,2.085,2.085,0,0,0-1.88.1,1.67,1.67,0,0,0-.724.879,3.547,3.547,0,0,0-.254,1.369v0.123Zm-2.821.082a5.361,5.361,0,0,1,1.326-3.659,4.106,4.106,0,0,1,3.2-1.512,2.2,2.2,0,0,1,2.191,1.512v-0.01a1.2,1.2,0,0,1,.32-0.838,1.009,1.009,0,0,1,.771-0.348h0.771a1.02,1.02,0,0,1,.78.348,1.21,1.21,0,0,1,.329.848v8.166a0.635,0.635,0,0,1-.179.46,0.558,0.558,0,0,1-.423.194H92.93a1.293,1.293,0,0,1-.762-0.562,0.787,0.787,0,0,0-.489-0.276,0.722,0.722,0,0,0-.536.133,3.1,3.1,0,0,1-1.533.705,4.1,4.1,0,0,1-3.2-1.513,5.344,5.344,0,0,1-1.326-3.648h0Z"/>
</svg>
