<svg id="Group_1_copy_2" data-name="Group 1 copy 2" xmlns="http://www.w3.org/2000/svg" width="133" height="152" viewBox="0 0 133 152">
  <metadata><?xpacket begin="﻿" id="W5M0MpCehiHzreSzNTczkc9d"?>
<x:xmpmeta xmlns:x="adobe:ns:meta/" x:xmptk="Adobe XMP Core 5.6-c142 79.160924, 2017/07/13-01:06:39        ">
   <rdf:RDF xmlns:rdf="http://www.w3.org/1999/02/22-rdf-syntax-ns#">
      <rdf:Description rdf:about=""/>
   </rdf:RDF>
</x:xmpmeta>
                                                                                                    
                                                                                                    
                                                                                                    
                                                                                                    
                                                                                                    
                                                                                                    
                                                                                                    
                                                                                                    
                                                                                                    
                                                                                                    
                                                                                                    
                                                                                                    
                                                                                                    
                                                                                                    
                                                                                                    
                                                                                                    
                                                                                                    
                                                                                                    
                                                                                                    
                                                                                                    
                           
<?xpacket end="w"?></metadata>
<defs>
    <style>
      .cls-1 {
        fill: #4c2882;
        fill-rule: evenodd;
      }
    </style>
  </defs>
  <path class="cls-1" d="M20.875,117.078h1.485a1.66,1.66,0,0,0,1.307-.623,2.343,2.343,0,0,0,0-3,1.652,1.652,0,0,0-1.307-.633H20.875v4.261Zm6.582,5.018a1.673,1.673,0,0,1,.16,1.216,1.524,1.524,0,0,1-.677.971l-0.028.021a1.336,1.336,0,0,1-1.109.163,1.43,1.43,0,0,1-.9-0.736l-2.257-4.159-1.777.01v3.311a1.629,1.629,0,0,1-.433,1.145,1.394,1.394,0,0,1-1.062.48H19.342a1.375,1.375,0,0,1-1.062-.48,1.609,1.609,0,0,1-.442-1.145v-10.72A1.7,1.7,0,0,1,18.28,111a1.433,1.433,0,0,1,1.081-.48h3.564a3.5,3.5,0,0,1,.564.051l0.085,0.01a4,4,0,0,1,2.51,1.513,4.627,4.627,0,0,1,1.015,2.964,5.265,5.265,0,0,1-.79,2.7,3.638,3.638,0,0,1-.724.889Zm6.375-5.488a2.411,2.411,0,0,0-1.457.481,2.739,2.739,0,0,0-.94,1.236H36.22a2.68,2.68,0,0,0-.931-1.236,2.411,2.411,0,0,0-1.457-.481h0ZM38,123.6a1.172,1.172,0,0,1-.376.654,1.068,1.068,0,0,1-.677.265q-1.382.011-2.83,0.011c-0.094,0-.188,0-0.282-0.011s-0.188.011-.282,0.011a4.607,4.607,0,0,1-3.46-1.513,5.385,5.385,0,0,1,0-7.307,4.607,4.607,0,0,1,3.46-1.513c0.094,0,.188,0,0.282.01s0.188-.01.282-0.01a4.577,4.577,0,0,1,3.451,1.513A5.116,5.116,0,0,1,39,119.368v0.01a0.956,0.956,0,0,1-.273.684,0.881,0.881,0,0,1-.649.276H31.415a2.645,2.645,0,0,0,.931,1.278,2.416,2.416,0,0,0,1.486.5h3.1a0.983,0.983,0,0,1,.856.449,1.19,1.19,0,0,1,.216,1.012Zm8.7-5.846a1.67,1.67,0,0,0-1.034-.971,2.106,2.106,0,0,0-1.88.092,1.717,1.717,0,0,0-.724.879,3.573,3.573,0,0,0-.254,1.379v0.123a3.369,3.369,0,0,0,.564,1.962,1.661,1.661,0,0,0,1.382.818,1.931,1.931,0,0,0,.959-0.1,1.566,1.566,0,0,0,.987-1.625v-2.555Zm1.711-3.475a1.158,1.158,0,0,1,.884.4,1.361,1.361,0,0,1,.376.97v8.279H49.655a4.4,4.4,0,0,1-1.392,3.413,4.533,4.533,0,0,1-3.1,1.073c-0.088,0-.176,0-0.263-0.01s-0.166.01-.254,0.01q-0.865,0-2.078-.01a1.014,1.014,0,0,1-.893-0.511,1.222,1.222,0,0,1-.132-1.083l0.009-.021a1.02,1.02,0,0,1,1.053-.8Q42.876,126,44.9,126q1.843,0,1.768-2.146a3.972,3.972,0,0,1-2.163.644,4.1,4.1,0,0,1-3.2-1.513,5.7,5.7,0,0,1,0-7.307,4.1,4.1,0,0,1,3.2-1.523,4.01,4.01,0,0,1,2.191.654,0.521,0.521,0,0,1,.15-0.378,0.454,0.454,0,0,1,.348-0.153H48.4Zm4.024,10.251a1.42,1.42,0,0,0,1.081-.491,1.652,1.652,0,0,0,.451-1.175v-6.756a1.676,1.676,0,0,0-.451-1.175,1.419,1.419,0,0,0-1.081-.49H52.4a1.428,1.428,0,0,0-1.091.49,1.7,1.7,0,0,0-.442,1.175v6.756a1.671,1.671,0,0,0,.442,1.175,1.429,1.429,0,0,0,1.091.491h0.028ZM53.962,111.8a1.714,1.714,0,0,0-.47-1.217,1.467,1.467,0,0,0-1.119-.5,1.5,1.5,0,0,0-1.128.5,1.733,1.733,0,0,0-.461,1.217,1.767,1.767,0,0,0,.461,1.226,1.493,1.493,0,0,0,1.128.5,1.464,1.464,0,0,0,1.119-.5,1.748,1.748,0,0,0,.47-1.226h0Zm0.95,11.1a1.146,1.146,0,0,0,.1.828,1.038,1.038,0,0,0,.6.521,6.678,6.678,0,0,0,2.078.317,4.394,4.394,0,0,0,2.99-.93,2.964,2.964,0,0,0,1.006-2.35,3.29,3.29,0,0,0-2.5-3.117,4.926,4.926,0,0,1-1.175-.563,0.743,0.743,0,0,1-.32-0.613q0-.807,1.1-0.807a3.559,3.559,0,0,1,1.044.174,0.891,0.891,0,0,0,.771-0.113,1.02,1.02,0,0,0,.461-0.674l0.009-.021a1.12,1.12,0,0,0-.113-0.828,1.006,1.006,0,0,0-.62-0.49A6.078,6.078,0,0,0,58.691,114a3.971,3.971,0,0,0-2.745.94,3.061,3.061,0,0,0-1.025,2.371q-0.038,2.066,2.651,3.036a3.831,3.831,0,0,1,1.072.531,0.813,0.813,0,0,1,.282.644q0,0.828-1.232.828a4.669,4.669,0,0,1-1.476-.276,0.916,0.916,0,0,0-.809.092,1.086,1.086,0,0,0-.5.7v0.02Zm12.872-1a0.8,0.8,0,0,1,.4.633,1.833,1.833,0,0,1-.094.879,1.307,1.307,0,0,1-1.1,1.125,2.507,2.507,0,0,1-2.388-1.595,8.186,8.186,0,0,1-.621-3.454v-3.025H63.59a0.9,0.9,0,0,1-.686-0.307,1.061,1.061,0,0,1-.282-0.746v-0.02a1.049,1.049,0,0,1,.282-0.736,0.886,0.886,0,0,1,.686-0.317h0.395V113.46a1.541,1.541,0,0,1,.564-1.246,1.278,1.278,0,0,1,1.251-.266l0.038,0.01a1.36,1.36,0,0,1,.762.552,1.619,1.619,0,0,1,.3.95v0.869h0.865a0.877,0.877,0,0,1,.677.317,1.03,1.03,0,0,1,.291.736v0.02a1.042,1.042,0,0,1-.291.746,0.886,0.886,0,0,1-.677.307H66.9V121.4l0.884,0.491h0Zm7.456-7.829a0.5,0.5,0,0,1,.432.225,0.6,0.6,0,0,1,.113.5l-0.216,1.053q-0.141.992-.705,0.879a2.389,2.389,0,0,0-2.426,1.625,2.108,2.108,0,0,0-.028.245v0.01H72.4v4.343a1.571,1.571,0,0,1-.423,1.1,1.327,1.327,0,0,1-1.025.47H70.923a1.327,1.327,0,0,1-1.025-.47,1.571,1.571,0,0,1-.423-1.1v-6.98a1.624,1.624,0,0,1,.423-1.124,1.373,1.373,0,0,1,1.034-.46H70.98a1.8,1.8,0,0,1,1.457,1.032,2.567,2.567,0,0,1,.611-0.746l0.79-.6h1.4Zm6.187,8.105a2.067,2.067,0,0,0,1.645-.838,3.272,3.272,0,0,0,0-3.986,2.049,2.049,0,0,0-3.291,0,3.237,3.237,0,0,0,0,3.986,2.067,2.067,0,0,0,1.645.838h0Zm0.273-8.186a4.551,4.551,0,0,1,3.488,1.574,5.674,5.674,0,0,1,0,7.572A4.551,4.551,0,0,1,81.7,124.7c-0.094,0-.185,0-0.273-0.01s-0.2.01-.291,0.01a4.57,4.57,0,0,1-3.488-1.574,5.7,5.7,0,0,1,0-7.572,4.57,4.57,0,0,1,3.488-1.574c0.094,0,.191,0,0.291.01s0.179-.01.273-0.01h0Zm13.417,5.3a3.386,3.386,0,0,0,.564,1.972,1.665,1.665,0,0,0,1.382.808,1.86,1.86,0,0,0,.959-0.092,1.567,1.567,0,0,0,.987-1.625v-2.555a1.7,1.7,0,0,0-1.034-.981,2.085,2.085,0,0,0-1.88.1,1.665,1.665,0,0,0-.724.879,3.543,3.543,0,0,0-.254,1.369v0.123Zm3.893-4.436v-3.372a1.6,1.6,0,0,1,.433-1.124,1.357,1.357,0,0,1,1.034-.471h0.037a1.359,1.359,0,0,1,1.035.471,1.6,1.6,0,0,1,.432,1.124v12.4a0.673,0.673,0,0,1-.179.47,0.572,0.572,0,0,1-.423.184H99.61a0.553,0.553,0,0,1-.423-0.184,0.658,0.658,0,0,1-.179-0.46v-0.01a4,4,0,0,1-2.191.654,4.107,4.107,0,0,1-3.2-1.513,5.7,5.7,0,0,1,0-7.307,4.107,4.107,0,0,1,3.2-1.513,4,4,0,0,1,2.191.654h0Zm9.261,1.758a2.41,2.41,0,0,0-1.457.481,2.737,2.737,0,0,0-.94,1.236h4.785a2.677,2.677,0,0,0-.93-1.236,2.413,2.413,0,0,0-1.458-.481h0Zm4.165,6.991a1.165,1.165,0,0,1-.376.654,1.066,1.066,0,0,1-.677.265q-1.382.011-2.83,0.011c-0.094,0-.188,0-0.282-0.011s-0.188.011-.282,0.011a4.606,4.606,0,0,1-3.46-1.513,5.385,5.385,0,0,1,0-7.307,4.606,4.606,0,0,1,3.46-1.513c0.094,0,.188,0,0.282.01s0.188-.01.282-0.01A4.578,4.578,0,0,1,112,115.709a5.116,5.116,0,0,1,1.438,3.659v0.01a0.954,0.954,0,0,1-.272.684,0.881,0.881,0,0,1-.649.276h-6.666a2.641,2.641,0,0,0,.931,1.278,2.415,2.415,0,0,0,1.485.5h3.1a0.984,0.984,0,0,1,.856.449,1.193,1.193,0,0,1,.216,1.012ZM45.457,140.216a3.389,3.389,0,0,0,.564,1.973A1.667,1.667,0,0,0,47.4,143a1.85,1.85,0,0,0,.959-0.092,1.566,1.566,0,0,0,.987-1.625v-2.555a1.7,1.7,0,0,0-1.034-.981,2.085,2.085,0,0,0-1.88.1,1.67,1.67,0,0,0-.724.879,3.549,3.549,0,0,0-.254,1.369v0.123Zm3.892-4.435v-3.373a1.6,1.6,0,0,1,.433-1.124,1.359,1.359,0,0,1,1.034-.47h0.038a1.359,1.359,0,0,1,1.034.47,1.6,1.6,0,0,1,.432,1.124v12.4a0.669,0.669,0,0,1-.179.47,0.569,0.569,0,0,1-.423.184H49.952a0.55,0.55,0,0,1-.423-0.184,0.656,0.656,0,0,1-.179-0.46v-0.01a4,4,0,0,1-2.191.654,4.1,4.1,0,0,1-3.2-1.513,5.7,5.7,0,0,1,0-7.307,4.106,4.106,0,0,1,3.2-1.512,4,4,0,0,1,2.191.654h0Zm6.864,4.435a3.389,3.389,0,0,0,.564,1.973A1.667,1.667,0,0,0,58.16,143a1.849,1.849,0,0,0,.959-0.092,1.577,1.577,0,0,0,.987-1.625v-2.555a1.7,1.7,0,0,0-1.034-.981,2.085,2.085,0,0,0-1.88.1,1.67,1.67,0,0,0-.724.879,3.547,3.547,0,0,0-.254,1.369v0.123Zm-2.821.082a5.361,5.361,0,0,1,1.326-3.659,4.106,4.106,0,0,1,3.2-1.512,2.2,2.2,0,0,1,2.191,1.512v-0.01a1.2,1.2,0,0,1,.32-0.838,1.009,1.009,0,0,1,.771-0.348h0.771a1.02,1.02,0,0,1,.78.348,1.21,1.21,0,0,1,.329.848v8.166a0.635,0.635,0,0,1-.179.46,0.558,0.558,0,0,1-.423.194H61.234a1.293,1.293,0,0,1-.762-0.562,0.787,0.787,0,0,0-.489-0.276,0.722,0.722,0,0,0-.536.133,3.1,3.1,0,0,1-1.533.705,4.1,4.1,0,0,1-3.2-1.513,5.344,5.344,0,0,1-1.326-3.648h0Zm15.843,2.524a0.8,0.8,0,0,1,.4.634,1.835,1.835,0,0,1-.094.879,1.307,1.307,0,0,1-1.1,1.124,2.507,2.507,0,0,1-2.388-1.594,8.2,8.2,0,0,1-.621-3.455v-3.025H65.042a0.9,0.9,0,0,1-.686-0.306,1.063,1.063,0,0,1-.282-0.746v-0.021a1.05,1.05,0,0,1,.282-0.736,0.886,0.886,0,0,1,.686-0.317h0.395v-0.868A1.542,1.542,0,0,1,66,133.144a1.28,1.28,0,0,1,1.251-.266l0.038,0.01a1.361,1.361,0,0,1,.762.552,1.62,1.62,0,0,1,.3.951v0.868h0.865a0.877,0.877,0,0,1,.677.317,1.032,1.032,0,0,1,.291.736v0.021a1.044,1.044,0,0,1-.291.746,0.889,0.889,0,0,1-.677.306H68.352v4.947l0.884,0.49h0Zm6.788,0.276a2.064,2.064,0,0,0,1.645-.838,3.272,3.272,0,0,0,0-3.986,2.05,2.05,0,0,0-3.291,0,3.237,3.237,0,0,0,0,3.986,2.064,2.064,0,0,0,1.645.838h0Zm0.273-8.186a4.554,4.554,0,0,1,3.488,1.574,5.675,5.675,0,0,1,0,7.573,4.554,4.554,0,0,1-3.488,1.574c-0.094,0-.185,0-0.273-0.011s-0.2.011-.291,0.011a4.573,4.573,0,0,1-3.488-1.574,5.7,5.7,0,0,1,0-7.573,4.573,4.573,0,0,1,3.488-1.574c0.094,0,.191,0,0.291.01s0.179-.01.273-0.01h0Zm5.641,8.912a1.146,1.146,0,0,0,.1.828,1.042,1.042,0,0,0,.6.521,6.707,6.707,0,0,0,2.078.317,4.395,4.395,0,0,0,2.99-.93,2.966,2.966,0,0,0,1.006-2.351,3.29,3.29,0,0,0-2.5-3.117,4.932,4.932,0,0,1-1.175-.562,0.745,0.745,0,0,1-.32-0.613q0-.809,1.1-0.808a3.558,3.558,0,0,1,1.044.174,0.891,0.891,0,0,0,.771-0.112A1.024,1.024,0,0,0,88.1,136.5l0.009-.02a1.119,1.119,0,0,0-.113-0.828,1,1,0,0,0-.621-0.491,6.078,6.078,0,0,0-1.655-.225,3.967,3.967,0,0,0-2.746.941,3.059,3.059,0,0,0-1.025,2.371q-0.038,2.064,2.652,3.035a3.887,3.887,0,0,1,1.072.531,0.814,0.814,0,0,1,.282.644q0,0.828-1.232.828a4.669,4.669,0,0,1-1.476-.276,0.919,0.919,0,0,0-.809.092,1.086,1.086,0,0,0-.5.7v0.021ZM17,86.706a26.283,26.283,0,0,1,4.13-4.3,66.5,66.5,0,0,1,11.28-8.832,52.054,52.054,0,0,1,11.788-5.3,17.62,17.62,0,0,1,7.9-.322,48.626,48.626,0,0,1,12.794,4.382c2.019,0.941,3.973,2.023,6.046,2.849a46.677,46.677,0,0,0,8.633,2.282,83.568,83.568,0,0,1,9.7,2.087,6.472,6.472,0,0,1,3.469,2.191,3.953,3.953,0,0,1-.281,5.332,8.15,8.15,0,0,1-5.684,2.54,15.617,15.617,0,0,1-5.094-.868,27.573,27.573,0,0,0-10.611-.794,0.842,0.842,0,0,0-.743.252,0.752,0.752,0,0,0,.391.67,15.272,15.272,0,0,0,11.324,5.085c4.156,0.063,8.309-.1,12.456-0.4a17.1,17.1,0,0,0,8.751-3.275,33.713,33.713,0,0,1,7.335-4.143,10.454,10.454,0,0,1,4.347-.9A2.959,2.959,0,0,1,117.9,87.8a0.151,0.151,0,0,0,.1.154V89.3a10.192,10.192,0,0,1-3.449,4.653c-0.551.467-1.115,0.922-1.7,1.344a99.669,99.669,0,0,1-13.064,7.626,19.984,19.984,0,0,1-6.794,2.089c-2.733.322-5.479,0.4-8.224,0.492-3.33.11-6.668,0.114-9.984,0.426a15.106,15.106,0,0,1-6.422-.8,106.612,106.612,0,0,1-16.435-7.273,16.155,16.155,0,0,0-16.09-.257c-1.724.906-3.255,2.115-4.881,3.174a9.966,9.966,0,0,1-2.416,1.248,0.941,0.941,0,0,1-1.162-.359q-1.891-2.463-3.683-5Q20.344,91.952,17,87.226V86.706ZM67.641,48.5c8.363,0,16.727-.012,25.09.01a38.213,38.213,0,0,1,5.244.263,1.516,1.516,0,0,1,1.575,1.632,32.736,32.736,0,0,1,.163,3.993c0.033,6.751.114,13.5-.061,20.253-0.014.518-.053,1.038-0.117,1.552A1.828,1.828,0,0,1,97.7,78.07a18.411,18.411,0,0,1-3.24.083,3,3,0,0,1-1.437-.353,20.753,20.753,0,0,0-7.073-2.214c-4.088-.788-8.192-1.5-12.2-2.681a36.73,36.73,0,0,1-6.673-2.793A52.249,52.249,0,0,0,55.2,65.441a24.436,24.436,0,0,0-14.864.853c-1.5.58-2.979,1.222-4.443,1.9-0.523.241-.535,0.233-0.538-0.317-0.031-5.211-.094-10.421.007-15.632a12.554,12.554,0,0,1,.185-2.014,1.662,1.662,0,0,1,1.7-1.552c3.464-.227,6.933-0.192,10.4-0.2q9.995-.018,19.99,0V48.5ZM66.794,33.415c10.27-.01,20.541-0.072,30.811.04a39.76,39.76,0,0,1,5.09.26,1.382,1.382,0,0,1,1.479,1.467,43.07,43.07,0,0,1,0,9.173,1.328,1.328,0,0,1-1.447,1.427,64.175,64.175,0,0,1-7.562.295q-24.114.03-48.227,0.024c-4.516,0-9.034.045-13.549-.119a2.584,2.584,0,0,1-2.232-.818,1.437,1.437,0,0,1-.347-0.791,65.138,65.138,0,0,1,0-8.821A1.774,1.774,0,0,1,32.792,33.6c3.929-.189,7.862-0.178,11.795-0.185Q55.69,33.4,66.794,33.415Zm9.717-2.374c-2.594,0-5.187-.006-7.781.007-0.335,0-.437-0.068-0.389-0.425a35.89,35.89,0,0,1,5.67-15.077,11.5,11.5,0,0,1,6.643-5.1c7.09-1.937,11.911,2.818,12.682,8.2a9.746,9.746,0,0,1-3.925,9.423,23.756,23.756,0,0,1-4.572,2.87,1.4,1.4,0,0,1-.65.106H76.511Zm6.913-16.435a6.973,6.973,0,0,0-5.331,3.1,31.491,31.491,0,0,0-4.807,11.465c-0.126.537-.046,0.6,0.517,0.469A52.117,52.117,0,0,0,81.119,27.4a18.25,18.25,0,0,0,6.2-3.7,4.794,4.794,0,0,0,1.532-4.348A5.264,5.264,0,0,0,83.424,14.605ZM58.5,31.041c-2.542,0-5.084,0-7.625,0a1.838,1.838,0,0,1-.833-0.2,21.238,21.238,0,0,1-5.467-3.736c-4.543-4.319-3.418-11.339.384-14.7a9.5,9.5,0,0,1,7.537-2.324,11.329,11.329,0,0,1,8.342,5.2,32.69,32.69,0,0,1,5.116,11.673q0.378,1.614.692,3.242c0.159,0.828.128,0.843-.674,0.843H58.5ZM51.757,14.592a5.217,5.217,0,0,0-3.71,1.2,5.861,5.861,0,0,0-1.895,3.953,3.922,3.922,0,0,0,1.014,3.29,13.065,13.065,0,0,0,2.788,2.439,27.586,27.586,0,0,0,6.529,2.837c1.566,0.5,3.141.969,4.744,1.334,0.561,0.128.6,0.094,0.5-.469A24.087,24.087,0,0,0,61,26.272a26.133,26.133,0,0,0-4.424-8.981A6.746,6.746,0,0,0,51.757,14.592Z"/>
</svg>
